Exo-LightItalic.ufo
<glyph name="ampersand" format="1">
  <advance width="665"/>
  <unicode hex="0026"/>
  <note>
    GF Latin Plus glyph
  </note>
  <outline>
    <contour>
      <point x="238" y="49" type="curve" smooth="yes"/>
      <point x="163" y="49"/>
      <point x="120" y="94"/>
      <point x="120" y="167" type="curve" smooth="yes"/>
      <point x="120" y="252"/>
      <point x="143" y="306"/>
      <point x="244" y="363" type="curve" smooth="yes"/>
      <point x="299" y="394" type="line"/>
      <point x="444" y="147" type="line"/>
      <point x="404" y="114" type="line" smooth="yes"/>
      <point x="339" y="61"/>
      <point x="289" y="49"/>
    </contour>
    <contour>
      <point x="222" y="-6" type="curve" smooth="yes"/>
      <point x="291" y="-6"/>
      <point x="353" y="13"/>
      <point x="433" y="77" type="curve" smooth="yes"/>
      <point x="470" y="106" type="line"/>
      <point x="532" y="0" type="line"/>
      <point x="595" y="0" type="line"/>
      <point x="515" y="136" type="line"/>
      <point x="599" y="207" type="line"/>
      <point x="681" y="299" type="line"/>
      <point x="663" y="324" type="line"/>
      <point x="488" y="179" type="line"/>
      <point x="317" y="475" type="line" smooth="yes"/>
      <point x="293" y="518"/>
      <point x="284" y="552"/>
      <point x="284" y="584" type="curve" smooth="yes"/>
      <point x="284" y="657"/>
      <point x="338" y="682"/>
      <point x="418" y="682" type="curve" smooth="yes"/>
      <point x="552" y="682" type="line"/>
      <point x="559" y="723" type="line"/>
      <point x="524" y="727"/>
      <point x="487" y="733"/>
      <point x="417" y="733" type="curve" smooth="yes"/>
      <point x="298" y="733"/>
      <point x="227" y="681"/>
      <point x="227" y="586" type="curve" smooth="yes"/>
      <point x="227" y="551"/>
      <point x="236" y="509"/>
      <point x="261" y="464" type="curve" smooth="yes"/>
      <point x="277" y="435" type="line"/>
      <point x="206" y="394" type="line" smooth="yes"/>
      <point x="99" y="330"/>
      <point x="60" y="263"/>
      <point x="60" y="155" type="curve" smooth="yes"/>
      <point x="60" y="56"/>
      <point x="126" y="-6"/>
    </contour>
  </outline>
</glyph>
<glyph name="parenright" format="1">
  <advance width="334"/>
  <unicode hex="0029"/>
  <note>
    GF Latin Plus glyph
  </note>
  <outline>
    <contour>
      <point x="-9" y="-210" type="curve"/>
      <point x="47" y="-210" type="line"/>
      <point x="220" y="-5"/>
      <point x="309" y="241"/>
      <point x="309" y="477" type="curve" smooth="yes"/>
      <point x="309" y="617"/>
      <point x="282" y="737"/>
      <point x="216" y="860" type="curve"/>
      <point x="160" y="860" type="line"/>
      <point x="225" y="727"/>
      <point x="250" y="607"/>
      <point x="250" y="471" type="curve" smooth="yes"/>
      <point x="250" y="241"/>
      <point x="161" y="0"/>
    </contour>
  </outline>
</glyph>
<glyph name="asterisk" format="1">
  <advance width="470"/>
  <unicode hex="002A"/>
  <note>
    GF Latin Plus glyph
  </note>
  <outline>
    <contour>
      <point x="342" y="556" type="line"/>
      <point x="364" y="526" type="line"/>
      <point x="481" y="617" type="line"/>
      <point x="469" y="638" type="line"/>
    </contour>
    <contour>
      <point x="293" y="723" type="line"/>
      <point x="325" y="591" type="line"/>
      <point x="364" y="607" type="line"/>
      <point x="318" y="730" type="line"/>
    </contour>
    <contour>
      <point x="286" y="488" type="line"/>
      <point x="397" y="418" type="line"/>
      <point x="415" y="438" type="line"/>
      <point x="311" y="522" type="line"/>
    </contour>
    <contour>
      <point x="181" y="411" type="line"/>
      <point x="203" y="403" type="line"/>
      <point x="271" y="538" type="line"/>
      <point x="234" y="546" type="line"/>
    </contour>
    <contour>
      <point x="135" y="587" type="line"/>
      <point x="277" y="581" type="line"/>
      <point x="281" y="619" type="line"/>
      <point x="138" y="612" type="line"/>
    </contour>
  </outline>
</glyph>
<glyph name="comma" format="1">
  <advance width="189"/>
  <unicode hex="002C"/>
  <note>
    GF Latin Plus glyph
  </note>
  <outline>
    <contour>
      <point x="68" y="22" type="line" smooth="yes"/>
      <point x="68" y="19"/>
      <point x="68" y="16"/>
      <point x="68" y="15" type="curve" smooth="yes"/>
      <point x="68" y="7"/>
      <point x="73" y="3"/>
      <point x="80" y="3" type="curve" smooth="yes"/>
      <point x="87" y="3" type="line"/>
      <point x="81" y="-39" type="line" smooth="yes"/>
      <point x="78" y="-51"/>
      <point x="72" y="-55"/>
      <point x="59" y="-55" type="curve"/>
      <point x="56" y="-72" type="line"/>
      <point x="56" y="-72"/>
      <point x="64" y="-75"/>
      <point x="74" y="-75" type="curve" smooth="yes"/>
      <point x="90" y="-75"/>
      <point x="113" y="-68"/>
      <point x="119" y="-32" type="curve" smooth="yes"/>
      <point x="137" y="82" type="line" smooth="yes"/>
      <point x="138" y="85"/>
      <point x="138" y="89"/>
      <point x="138" y="90" type="curve" smooth="yes"/>
      <point x="138" y="97"/>
      <point x="135" y="101"/>
      <point x="126" y="101" type="curve" smooth="yes"/>
      <point x="96" y="101" type="line" smooth="yes"/>
      <point x="86" y="101"/>
      <point x="80" y="96"/>
      <point x="79" y="86" type="curve" smooth="yes"/>
    </contour>
  </outline>
</glyph>
<glyph name="two" format="1">
  <advance width="595"/>
  <unicode hex="0032"/>
  <note>
    GF Latin Plus glyph
  </note>
  <outline>
    <contour>
      <point x="194" y="686" type="line"/>
      <point x="392" y="686" type="line" smooth="yes"/>
      <point x="511" y="686"/>
      <point x="545" y="643"/>
      <point x="545" y="582" type="curve" smooth="yes"/>
      <point x="545" y="512"/>
      <point x="495" y="422"/>
      <point x="371" y="314" type="curve" smooth="yes"/>
      <point x="64" y="48" type="line"/>
      <point x="57" y="0" type="line"/>
      <point x="544" y="0" type="line"/>
      <point x="552" y="54" type="line"/>
      <point x="148" y="54" type="line"/>
      <point x="412" y="286" type="line" smooth="yes"/>
      <point x="546" y="404"/>
      <point x="603" y="507"/>
      <point x="603" y="594" type="curve" smooth="yes"/>
      <point x="603" y="678"/>
      <point x="553" y="740"/>
      <point x="410" y="740" type="curve" smooth="yes"/>
      <point x="336" y="740"/>
      <point x="260" y="734"/>
      <point x="201" y="729" type="curve"/>
    </contour>
  </outline>
</glyph>
<glyph name="five" format="1">
  <advance width="638"/>
  <unicode hex="0035"/>
  <note>
    GF Latin Plus glyph
  </note>
  <outline>
    <contour>
      <point x="115" y="4" type="line"/>
      <point x="176" y="-2"/>
      <point x="260" y="-4"/>
      <point x="344" y="-4" type="curve" smooth="yes"/>
      <point x="473" y="-4"/>
      <point x="577" y="54"/>
      <point x="595" y="170" type="curve" smooth="yes"/>
      <point x="613" y="279" type="line" smooth="yes"/>
      <point x="614" y="291"/>
      <point x="615" y="303"/>
      <point x="615" y="314" type="curve" smooth="yes"/>
      <point x="615" y="393"/>
      <point x="561" y="448"/>
      <point x="459" y="448" type="curve" smooth="yes"/>
      <point x="369" y="448" type="line" smooth="yes"/>
      <point x="302" y="448"/>
      <point x="257" y="420"/>
      <point x="239" y="391" type="curve"/>
      <point x="299" y="682" type="line"/>
      <point x="653" y="682" type="line"/>
      <point x="661" y="734" type="line"/>
      <point x="253" y="734" type="line"/>
      <point x="164" y="305" type="line"/>
      <point x="219" y="305" type="line"/>
      <point x="240" y="369"/>
      <point x="284" y="398"/>
      <point x="351" y="398" type="curve" smooth="yes"/>
      <point x="436" y="398" type="line" smooth="yes"/>
      <point x="516" y="398"/>
      <point x="555" y="361"/>
      <point x="555" y="301" type="curve" smooth="yes"/>
      <point x="555" y="292"/>
      <point x="554" y="281"/>
      <point x="553" y="270" type="curve" smooth="yes"/>
      <point x="539" y="180" type="line" smooth="yes"/>
      <point x="525" y="96"/>
      <point x="447" y="48"/>
      <point x="353" y="48" type="curve" smooth="yes"/>
      <point x="123" y="48" type="line"/>
    </contour>
  </outline>
</glyph>
<glyph name="six" format="1">
  <advance width="628"/>
  <unicode hex="0036"/>
  <note>
    GF Latin Plus glyph
  </note>
  <outline>
    <contour>
      <point x="192" y="356" type="curve"/>
      <point x="395" y="356" type="line" smooth="yes"/>
      <point x="486" y="356"/>
      <point x="542" y="342"/>
      <point x="542" y="275" type="curve" smooth="yes"/>
      <point x="542" y="267"/>
      <point x="541" y="258"/>
      <point x="540" y="249" type="curve" smooth="yes"/>
      <point x="526" y="161" type="line" smooth="yes"/>
      <point x="512" y="71"/>
      <point x="454" y="50"/>
      <point x="389" y="50" type="curve" smooth="yes"/>
      <point x="291" y="50" type="line" smooth="yes"/>
      <point x="221" y="50"/>
      <point x="178" y="86"/>
      <point x="178" y="208" type="curve" smooth="yes"/>
      <point x="178" y="248"/>
      <point x="183" y="296"/>
    </contour>
    <contour>
      <point x="121" y="205" type="curve" smooth="yes"/>
      <point x="121" y="42"/>
      <point x="182" y="-2"/>
      <point x="275" y="-2" type="curve" smooth="yes"/>
      <point x="391" y="-2" type="line" smooth="yes"/>
      <point x="481" y="-2"/>
      <point x="564" y="38"/>
      <point x="582" y="154" type="curve" smooth="yes"/>
      <point x="598" y="256" type="line" smooth="yes"/>
      <point x="600" y="269"/>
      <point x="601" y="280"/>
      <point x="601" y="290" type="curve" smooth="yes"/>
      <point x="601" y="379"/>
      <point x="529" y="406"/>
      <point x="414" y="406" type="curve" smooth="yes"/>
      <point x="362" y="406"/>
      <point x="264" y="404"/>
      <point x="199" y="397" type="curve"/>
      <point x="230" y="594"/>
      <point x="328" y="688"/>
      <point x="438" y="688" type="curve" smooth="yes"/>
      <point x="622" y="688" type="line"/>
      <point x="630" y="731" type="line"/>
      <point x="578" y="736"/>
      <point x="504" y="740"/>
      <point x="450" y="740" type="curve" smooth="yes"/>
      <point x="214" y="740"/>
      <point x="121" y="480"/>
    </contour>
  </outline>
</glyph>
<glyph name="eight" format="1">
  <advance width="648"/>
  <unicode hex="0038"/>
  <note>
    GF Latin Plus glyph
  </note>
  <outline>
    <contour>
      <point x="239" y="498" type="curve" smooth="yes"/>
      <point x="251" y="575" type="line" smooth="yes"/>
      <point x="264" y="654"/>
      <point x="301" y="689"/>
      <point x="379" y="689" type="curve" smooth="yes"/>
      <point x="498" y="689" type="line" smooth="yes"/>
      <point x="554" y="689"/>
      <point x="582" y="668"/>
      <point x="582" y="612" type="curve" smooth="yes"/>
      <point x="582" y="601"/>
      <point x="581" y="589"/>
      <point x="579" y="575" type="curve" smooth="yes"/>
      <point x="567" y="498" type="line" smooth="yes"/>
      <point x="560" y="454"/>
      <point x="523" y="400"/>
      <point x="446" y="400" type="curve" smooth="yes"/>
      <point x="333" y="400" type="line" smooth="yes"/>
      <point x="266" y="400"/>
      <point x="238" y="434"/>
      <point x="238" y="479" type="curve" smooth="yes"/>
      <point x="238" y="485"/>
      <point x="238" y="491"/>
    </contour>
    <contour>
      <point x="170" y="146" type="curve" smooth="yes"/>
      <point x="186" y="247" type="line" smooth="yes"/>
      <point x="198" y="324"/>
      <point x="281" y="349"/>
      <point x="324" y="349" type="curve" smooth="yes"/>
      <point x="438" y="349" type="line" smooth="yes"/>
      <point x="512" y="349"/>
      <point x="543" y="328"/>
      <point x="543" y="276" type="curve" smooth="yes"/>
      <point x="543" y="267"/>
      <point x="542" y="258"/>
      <point x="540" y="247" type="curve" smooth="yes"/>
      <point x="524" y="146" type="line" smooth="yes"/>
      <point x="514" y="82"/>
      <point x="473" y="49"/>
      <point x="396" y="49" type="curve" smooth="yes"/>
      <point x="278" y="49" type="line" smooth="yes"/>
      <point x="215" y="49"/>
      <point x="169" y="71"/>
      <point x="169" y="126" type="curve" smooth="yes"/>
      <point x="169" y="132"/>
      <point x="169" y="139"/>
    </contour>
    <contour>
      <point x="111" y="139" type="line" smooth="yes"/>
      <point x="110" y="129"/>
      <point x="109" y="119"/>
      <point x="109" y="109" type="curve" smooth="yes"/>
      <point x="109" y="41"/>
      <point x="155" y="-1"/>
      <point x="261" y="-1" type="curve" smooth="yes"/>
      <point x="400" y="-1" type="line" smooth="yes"/>
      <point x="498" y="-1"/>
      <point x="565" y="41"/>
      <point x="581" y="140" type="curve" smooth="yes"/>
      <point x="600" y="254" type="line" smooth="yes"/>
      <point x="601" y="264"/>
      <point x="602" y="273"/>
      <point x="602" y="282" type="curve" smooth="yes"/>
      <point x="602" y="330"/>
      <point x="578" y="371"/>
      <point x="528" y="380" type="curve"/>
      <point x="581" y="396"/>
      <point x="617" y="453"/>
      <point x="624" y="501" type="curve" smooth="yes"/>
      <point x="637" y="586" type="line" smooth="yes"/>
      <point x="640" y="603"/>
      <point x="641" y="617"/>
      <point x="641" y="630" type="curve" smooth="yes"/>
      <point x="641" y="708"/>
      <point x="599" y="739"/>
      <point x="519" y="739" type="curve" smooth="yes"/>
      <point x="379" y="739" type="line" smooth="yes"/>
      <point x="288" y="739"/>
      <point x="214" y="698"/>
      <point x="196" y="586" type="curve" smooth="yes"/>
      <point x="183" y="501" type="line" smooth="yes"/>
      <point x="181" y="491"/>
      <point x="180" y="481"/>
      <point x="180" y="471" type="curve" smooth="yes"/>
      <point x="180" y="430"/>
      <point x="199" y="393"/>
      <point x="246" y="371" type="curve"/>
      <point x="204" y="362"/>
      <point x="141" y="323"/>
      <point x="128" y="247" type="curve" smooth="yes"/>
    </contour>
  </outline>
</glyph>
<glyph name="greater" format="1">
  <advance width="609"/>
  <unicode hex="003E"/>
  <note>
    GF Latin Plus glyph
  </note>
  <outline>
    <contour>
      <point x="139" y="186" type="line"/>
      <point x="576" y="322" type="line"/>
      <point x="584" y="375" type="line"/>
      <point x="190" y="510" type="line"/>
      <point x="182" y="460" type="line"/>
      <point x="526" y="350" type="line"/>
      <point x="147" y="236" type="line"/>
    </contour>
  </outline>
</glyph>
<glyph name="A" format="1">
  <advance width="670"/>
  <unicode hex="0041"/>
  <note>
    GF Latin Plus glyph
  </note>
  <outline>
    <contour>
      <point x="241" y="279" type="line"/>
      <point x="448" y="680" type="line"/>
      <point x="521" y="279" type="line"/>
    </contour>
    <contour>
      <point x="39" y="0" type="line"/>
      <point x="99" y="0" type="line"/>
      <point x="217" y="227" type="line"/>
      <point x="528" y="227" type="line"/>
      <point x="571" y="0" type="line"/>
      <point x="631" y="0" type="line"/>
      <point x="494" y="734" type="line"/>
      <point x="419" y="734" type="line"/>
    </contour>
    <contour>
      <point x="463" y="810" type="move" name="top"/>
    </contour>
    <contour>
      <point x="585" y="0" type="move" name="ogonek"/>
    </contour>
    <contour>
      <point x="311" y="-150" type="move" name="bottom"/>
    </contour>
  </outline>
</glyph>
<glyph name="B" format="1">
  <advance width="607"/>
  <unicode hex="0042"/>
  <note>
    GF Latin Plus glyph
  </note>
  <outline>
    <contour>
      <point x="197" y="405" type="line"/>
      <point x="241" y="682" type="line"/>
      <point x="428" y="682" type="line" smooth="yes"/>
      <point x="509" y="682"/>
      <point x="555" y="653"/>
      <point x="555" y="583" type="curve" smooth="yes"/>
      <point x="555" y="568"/>
      <point x="553" y="553"/>
      <point x="549" y="535" type="curve" smooth="yes"/>
      <point x="532" y="452"/>
      <point x="484" y="405"/>
      <point x="402" y="405" type="curve" smooth="yes"/>
    </contour>
    <contour>
      <point x="141" y="52" type="line"/>
      <point x="190" y="358" type="line"/>
      <point x="396" y="358" type="line" smooth="yes"/>
      <point x="471" y="358"/>
      <point x="523" y="313"/>
      <point x="523" y="238" type="curve" smooth="yes"/>
      <point x="523" y="227"/>
      <point x="522" y="212"/>
      <point x="519" y="196" type="curve" smooth="yes"/>
      <point x="500" y="108"/>
      <point x="457" y="52"/>
      <point x="347" y="52" type="curve" smooth="yes"/>
    </contour>
    <contour>
      <point x="75" y="0" type="line"/>
      <point x="338" y="0" type="line" smooth="yes"/>
      <point x="476" y="0"/>
      <point x="550" y="63"/>
      <point x="572" y="178" type="curve" smooth="yes"/>
      <point x="578" y="203"/>
      <point x="578" y="220"/>
      <point x="578" y="234" type="curve" smooth="yes"/>
      <point x="578" y="327"/>
      <point x="517" y="371"/>
      <point x="472" y="384" type="curve"/>
      <point x="538" y="400"/>
      <point x="594" y="454"/>
      <point x="608" y="545" type="curve" smooth="yes"/>
      <point x="611" y="562"/>
      <point x="612" y="578"/>
      <point x="612" y="595" type="curve" smooth="yes"/>
      <point x="612" y="681"/>
      <point x="562" y="734"/>
      <point x="439" y="734" type="curve" smooth="yes"/>
      <point x="191" y="734" type="line"/>
    </contour>
    <contour>
      <point x="401" y="810" type="move" name="top"/>
    </contour>
  </outline>
</glyph>
<glyph name="F" format="1">
  <advance width="550"/>
  <unicode hex="0046"/>
  <note>
    GF Latin Plus glyph
  </note>
  <outline>
    <contour>
      <point x="75" y="0" type="line"/>
      <point x="133" y="0" type="line"/>
      <point x="186" y="332" type="line"/>
      <point x="523" y="336" type="line"/>
      <point x="531" y="379" type="line"/>
      <point x="194" y="386" type="line"/>
      <point x="225" y="583" type="line" smooth="yes"/>
      <point x="236" y="653"/>
      <point x="270" y="681"/>
      <point x="331" y="681" type="curve" smooth="yes"/>
      <point x="620" y="681" type="line"/>
      <point x="628" y="726" type="line"/>
      <point x="609" y="728"/>
      <point x="352" y="734"/>
      <point x="328" y="734" type="curve" smooth="yes"/>
      <point x="257" y="735"/>
      <point x="188" y="710"/>
      <point x="169" y="591" type="curve" smooth="yes"/>
    </contour>
    <contour>
      <point x="423" y="810" type="move" name="top"/>
    </contour>
  </outline>
</glyph>
<glyph name="J" format="1">
  <advance width="339"/>
  <unicode hex="004A"/>
  <note>
    GF Latin Plus glyph
  </note>
  <outline>
    <contour>
      <point x="32" y="18" type="line"/>
      <point x="54" y="5"/>
      <point x="92" y="-6"/>
      <point x="135" y="-6" type="curve" smooth="yes"/>
      <point x="238" y="-6"/>
      <point x="295" y="47"/>
      <point x="314" y="170" type="curve" smooth="yes"/>
      <point x="404" y="734" type="line"/>
      <point x="346" y="734" type="line"/>
      <point x="258" y="178" type="line" smooth="yes"/>
      <point x="243" y="87"/>
      <point x="198" y="48"/>
      <point x="129" y="48" type="curve" smooth="yes"/>
      <point x="105" y="48"/>
      <point x="63" y="52"/>
      <point x="39" y="62" type="curve"/>
    </contour>
    <contour>
      <point x="389" y="810" type="move" name="top"/>
    </contour>
  </outline>
</glyph>
<glyph name="N" format="1">
  <advance width="661"/>
  <unicode hex="004E"/>
  <note>
    GF Latin Plus glyph
  </note>
  <outline>
    <contour>
      <point x="75" y="0" type="line"/>
      <point x="133" y="0" type="line"/>
      <point x="234" y="636" type="line"/>
      <point x="540" y="0" type="line"/>
      <point x="588" y="0" type="line"/>
      <point x="704" y="734" type="line"/>
      <point x="646" y="734" type="line"/>
      <point x="545" y="99" type="line"/>
      <point x="240" y="734" type="line"/>
      <point x="191" y="734" type="line"/>
    </contour>
    <contour>
      <point x="452" y="810" type="move" name="top"/>
    </contour>
    <contour>
      <point x="300" y="-150" type="move" name="bottom"/>
    </contour>
  </outline>
</glyph>
<glyph name="P" format="1">
  <advance width="597"/>
  <unicode hex="0050"/>
  <note>
    GF Latin Plus glyph
  </note>
  <outline>
    <contour>
      <point x="186" y="336" type="line"/>
      <point x="241" y="682" type="line"/>
      <point x="455" y="682" type="line" smooth="yes"/>
      <point x="526" y="682"/>
      <point x="568" y="651"/>
      <point x="568" y="570" type="curve" smooth="yes"/>
      <point x="568" y="556"/>
      <point x="565" y="530"/>
      <point x="562" y="511" type="curve" smooth="yes"/>
      <point x="540" y="374"/>
      <point x="469" y="336"/>
      <point x="390" y="336" type="curve" smooth="yes"/>
    </contour>
    <contour>
      <point x="75" y="0" type="line"/>
      <point x="133" y="0" type="line"/>
      <point x="179" y="292" type="line"/>
      <point x="243" y="288"/>
      <point x="328" y="283"/>
      <point x="394" y="283" type="curve" smooth="yes"/>
      <point x="488" y="283"/>
      <point x="592" y="325"/>
      <point x="620" y="506" type="curve" smooth="yes"/>
      <point x="623" y="527"/>
      <point x="627" y="558"/>
      <point x="627" y="575" type="curve" smooth="yes"/>
      <point x="627" y="697"/>
      <point x="556" y="734"/>
      <point x="465" y="734" type="curve" smooth="yes"/>
      <point x="191" y="734" type="line"/>
    </contour>
    <contour>
      <point x="403" y="810" type="move" name="top"/>
    </contour>
  </outline>
</glyph>
<glyph name="R" format="1">
  <advance width="612"/>
  <unicode hex="0052"/>
  <note>
    GF Latin Plus glyph
  </note>
  <outline>
    <contour>
      <point x="190" y="360" type="line"/>
      <point x="241" y="682" type="line"/>
      <point x="444" y="682" type="line" smooth="yes"/>
      <point x="502" y="682"/>
      <point x="564" y="663"/>
      <point x="564" y="563" type="curve" smooth="yes"/>
      <point x="564" y="549"/>
      <point x="564" y="534"/>
      <point x="561" y="516" type="curve" smooth="yes"/>
      <point x="540" y="383"/>
      <point x="472" y="360"/>
      <point x="400" y="360" type="curve" smooth="yes"/>
    </contour>
    <contour>
      <point x="75" y="0" type="line"/>
      <point x="133" y="0" type="line"/>
      <point x="183" y="316" type="line"/>
      <point x="232" y="314"/>
      <point x="351" y="312"/>
      <point x="394" y="311" type="curve"/>
      <point x="493" y="0" type="line"/>
      <point x="552" y="0" type="line"/>
      <point x="448" y="318" type="line"/>
      <point x="505" y="326"/>
      <point x="594" y="352"/>
      <point x="620" y="511" type="curve" smooth="yes"/>
      <point x="623" y="533"/>
      <point x="625" y="552"/>
      <point x="625" y="570" type="curve" smooth="yes"/>
      <point x="625" y="703"/>
      <point x="536" y="734"/>
      <point x="455" y="734" type="curve" smooth="yes"/>
      <point x="191" y="734" type="line"/>
    </contour>
    <contour>
      <point x="397" y="810" type="move" name="top"/>
    </contour>
    <contour>
      <point x="291" y="-150" type="move" name="bottom"/>
    </contour>
  </outline>
</glyph>
<glyph name="S" format="1">
  <advance width="567"/>
  <unicode hex="0053"/>
  <note>
    GF Latin Plus glyph
  </note>
  <outline>
    <contour>
      <point x="74" y="9" type="line"/>
      <point x="129" y="0"/>
      <point x="224" y="-6"/>
      <point x="299" y="-6" type="curve" smooth="yes"/>
      <point x="430" y="-6"/>
      <point x="523" y="29"/>
      <point x="543" y="162" type="curve" smooth="yes"/>
      <point x="554" y="229" type="line" smooth="yes"/>
      <point x="556" y="244"/>
      <point x="557" y="257"/>
      <point x="557" y="270" type="curve" smooth="yes"/>
      <point x="557" y="352"/>
      <point x="507" y="397"/>
      <point x="402" y="397" type="curve" smooth="yes"/>
      <point x="302" y="397" type="line" smooth="yes"/>
      <point x="235" y="397"/>
      <point x="203" y="415"/>
      <point x="203" y="473" type="curve" smooth="yes"/>
      <point x="203" y="483"/>
      <point x="204" y="493"/>
      <point x="205" y="505" type="curve" smooth="yes"/>
      <point x="214" y="560" type="line" smooth="yes"/>
      <point x="229" y="663"/>
      <point x="285" y="686"/>
      <point x="382" y="686" type="curve" smooth="yes"/>
      <point x="430" y="686"/>
      <point x="528" y="683"/>
      <point x="593" y="678" type="curve"/>
      <point x="599" y="722" type="line"/>
      <point x="546" y="731"/>
      <point x="434" y="740"/>
      <point x="385" y="740" type="curve" smooth="yes"/>
      <point x="264" y="740"/>
      <point x="180" y="706"/>
      <point x="158" y="565" type="curve" smooth="yes"/>
      <point x="149" y="500" type="line" smooth="yes"/>
      <point x="147" y="486"/>
      <point x="146" y="474"/>
      <point x="146" y="461" type="curve" smooth="yes"/>
      <point x="146" y="379"/>
      <point x="197" y="341"/>
      <point x="291" y="341" type="curve" smooth="yes"/>
      <point x="389" y="341" type="line" smooth="yes"/>
      <point x="467" y="341"/>
      <point x="500" y="315"/>
      <point x="500" y="257" type="curve" smooth="yes"/>
      <point x="500" y="247"/>
      <point x="499" y="236"/>
      <point x="497" y="225" type="curve" smooth="yes"/>
      <point x="489" y="170" type="line" smooth="yes"/>
      <point x="473" y="67"/>
      <point x="402" y="46"/>
      <point x="302" y="46" type="curve" smooth="yes"/>
      <point x="225" y="46"/>
      <point x="136" y="49"/>
      <point x="81" y="53" type="curve"/>
    </contour>
    <contour>
      <point x="410" y="810" type="move" name="top"/>
    </contour>
    <contour>
      <point x="258" y="-150" type="move" name="bottom"/>
    </contour>
  </outline>
</glyph>
<glyph name="U" format="1">
  <advance width="673"/>
  <unicode hex="0055"/>
  <note>
    GF Latin Plus glyph
  </note>
  <outline>
    <contour>
      <point x="127" y="326" type="line" smooth="yes"/>
      <point x="119" y="279"/>
      <point x="115" y="229"/>
      <point x="115" y="194" type="curve" smooth="yes"/>
      <point x="115" y="47"/>
      <point x="192" y="-6"/>
      <point x="336" y="-6" type="curve" smooth="yes"/>
      <point x="498" y="-6"/>
      <point x="604" y="37"/>
      <point x="648" y="314" type="curve" smooth="yes"/>
      <point x="714" y="734" type="line"/>
      <point x="656" y="734" type="line"/>
      <point x="591" y="320" type="line" smooth="yes"/>
      <point x="553" y="81"/>
      <point x="473" y="46"/>
      <point x="340" y="46" type="curve" smooth="yes"/>
      <point x="230" y="46"/>
      <point x="172" y="84"/>
      <point x="172" y="197" type="curve" smooth="yes"/>
      <point x="172" y="229"/>
      <point x="177" y="275"/>
      <point x="184" y="320" type="curve" smooth="yes"/>
      <point x="249" y="734" type="line"/>
      <point x="191" y="734" type="line"/>
    </contour>
    <contour>
      <point x="454" y="810" type="move" name="top"/>
    </contour>
    <contour>
      <point x="412" y="0" type="move" name="ogonek"/>
    </contour>
    <contour>
      <point x="302" y="-150" type="move" name="bottom"/>
    </contour>
  </outline>
</glyph>
<glyph name="W" format="1">
  <advance width="994"/>
  <unicode hex="0057"/>
  <note>
    GF Latin Plus glyph
  </note>
  <outline>
    <contour>
      <point x="155" y="734" type="line"/>
      <point x="259" y="0" type="line"/>
      <point x="325" y="0" type="line"/>
      <point x="596" y="652" type="line"/>
      <point x="652" y="0" type="line"/>
      <point x="718" y="0" type="line"/>
      <point x="1064" y="734" type="line"/>
      <point x="1003" y="734" type="line"/>
      <point x="692" y="79" type="line"/>
      <point x="640" y="734" type="line"/>
      <point x="578" y="734" type="line"/>
      <point x="308" y="78" type="line"/>
      <point x="216" y="734" type="line"/>
    </contour>
    <contour>
      <point x="625" y="810" type="move" name="top"/>
    </contour>
  </outline>
</glyph>
<glyph name="Y" format="1">
  <advance width="604"/>
  <unicode hex="0059"/>
  <note>
    GF Latin Plus glyph
  </note>
  <outline>
    <contour>
      <point x="142" y="734" type="line"/>
      <point x="303" y="248" type="line"/>
      <point x="264" y="0" type="line"/>
      <point x="322" y="0" type="line"/>
      <point x="361" y="248" type="line"/>
      <point x="694" y="734" type="line"/>
      <point x="627" y="734" type="line"/>
      <point x="341" y="315" type="line"/>
      <point x="206" y="734" type="line"/>
    </contour>
    <contour>
      <point x="418" y="810" type="move" name="top"/>
    </contour>
    <contour>
      <point x="266" y="-150" type="move" name="bottom"/>
    </contour>
  </outline>
</glyph>
<glyph name="Z" format="1">
  <advance width="557"/>
  <unicode hex="005A"/>
  <note>
    GF Latin Plus glyph
  </note>
  <outline>
    <contour>
      <point x="42" y="0" type="line"/>
      <point x="515" y="0" type="line"/>
      <point x="523" y="52" type="line"/>
      <point x="117" y="52" type="line"/>
      <point x="613" y="684" type="line"/>
      <point x="621" y="734" type="line"/>
      <point x="158" y="734" type="line"/>
      <point x="150" y="682" type="line"/>
      <point x="546" y="682" type="line"/>
      <point x="50" y="50" type="line"/>
    </contour>
    <contour>
      <point x="394" y="810" type="move" name="top"/>
    </contour>
    <contour>
      <point x="242" y="-150" type="move" name="bottom"/>
    </contour>
  </outline>
</glyph>
<glyph name="bracketright" format="1">
  <advance width="330"/>
  <unicode hex="005D"/>
  <note>
    GF Latin Plus glyph
  </note>
  <outline>
    <contour>
      <point x="-2" y="-162" type="line"/>
      <point x="-9" y="-210" type="line"/>
      <point x="49" y="-210" type="line" smooth="yes"/>
      <point x="179" y="-210"/>
      <point x="214" y="-96"/>
      <point x="225" y="-28" type="curve" smooth="yes"/>
      <point x="335" y="664" type="line" smooth="yes"/>
      <point x="337" y="679"/>
      <point x="339" y="697"/>
      <point x="339" y="714" type="curve" smooth="yes"/>
      <point x="339" y="779"/>
      <point x="313" y="842"/>
      <point x="215" y="842" type="curve" smooth="yes"/>
      <point x="157" y="842" type="line"/>
      <point x="150" y="794" type="line"/>
      <point x="196" y="794" type="line" smooth="yes"/>
      <point x="247" y="794"/>
      <point x="280" y="766"/>
      <point x="280" y="700" type="curve" smooth="yes"/>
      <point x="280" y="687"/>
      <point x="279" y="674"/>
      <point x="276" y="658" type="curve" smooth="yes"/>
      <point x="168" y="-26" type="line" smooth="yes"/>
      <point x="155" y="-103"/>
      <point x="118" y="-162"/>
      <point x="44" y="-162" type="curve" smooth="yes"/>
    </contour>
  </outline>
</glyph>
<glyph name="c" format="1">
  <advance width="482"/>
  <unicode hex="0063"/>
  <note>
    GF Latin Plus glyph
  </note>
  <outline>
    <contour>
      <point x="98" y="278" type="curve" smooth="yes"/>
      <point x="92" y="242"/>
      <point x="88" y="210"/>
      <point x="88" y="185" type="curve" smooth="yes"/>
      <point x="88" y="32"/>
      <point x="164" y="-6"/>
      <point x="274" y="-6" type="curve" smooth="yes"/>
      <point x="347" y="-6"/>
      <point x="404" y="0"/>
      <point x="446" y="6" type="curve"/>
      <point x="451" y="41" type="line"/>
      <point x="290" y="41" type="line" smooth="yes"/>
      <point x="196" y="41"/>
      <point x="146" y="70"/>
      <point x="146" y="189" type="curve" smooth="yes"/>
      <point x="146" y="208"/>
      <point x="149" y="233"/>
      <point x="154" y="264" type="curve" smooth="yes"/>
      <point x="182" y="441"/>
      <point x="253" y="492"/>
      <point x="353" y="492" type="curve" smooth="yes"/>
      <point x="510" y="492" type="line"/>
      <point x="517" y="527" type="line"/>
      <point x="465" y="533"/>
      <point x="394" y="539"/>
      <point x="345" y="539" type="curve" smooth="yes"/>
      <point x="216" y="539"/>
      <point x="127" y="466"/>
    </contour>
    <contour>
      <point x="354" y="650" type="move" name="top"/>
    </contour>
    <contour>
      <point x="228" y="-150" type="move" name="bottom"/>
    </contour>
  </outline>
</glyph>
<glyph name="e" format="1">
  <advance width="548"/>
  <unicode hex="0065"/>
  <note>
    GF Latin Plus glyph
  </note>
  <outline>
    <contour>
      <point x="155" y="276" type="curve"/>
      <point x="175" y="415"/>
      <point x="226" y="495"/>
      <point x="365" y="495" type="curve" smooth="yes"/>
      <point x="455" y="495"/>
      <point x="500" y="467"/>
      <point x="500" y="394" type="curve" smooth="yes"/>
      <point x="500" y="292"/>
      <point x="409" y="265"/>
      <point x="277" y="265" type="curve" smooth="yes"/>
      <point x="232" y="265"/>
      <point x="187" y="270"/>
    </contour>
    <contour>
      <point x="90" y="177" type="curve" smooth="yes"/>
      <point x="90" y="56"/>
      <point x="154" y="-6"/>
      <point x="308" y="-6" type="curve" smooth="yes"/>
      <point x="372" y="-6"/>
      <point x="439" y="0"/>
      <point x="478" y="4" type="curve"/>
      <point x="484" y="40" type="line"/>
      <point x="325" y="40" type="line" smooth="yes"/>
      <point x="197" y="40"/>
      <point x="147" y="81"/>
      <point x="147" y="174" type="curve" smooth="yes"/>
      <point x="147" y="196"/>
      <point x="148" y="220"/>
      <point x="151" y="243" type="curve"/>
      <point x="177" y="235"/>
      <point x="234" y="227"/>
      <point x="301" y="227" type="curve" smooth="yes"/>
      <point x="430" y="227"/>
      <point x="556" y="259"/>
      <point x="556" y="400" type="curve" smooth="yes"/>
      <point x="556" y="506"/>
      <point x="482" y="542"/>
      <point x="369" y="542" type="curve" smooth="yes"/>
      <point x="203" y="542"/>
      <point x="124" y="451"/>
      <point x="100" y="293" type="curve" smooth="yes"/>
      <point x="94" y="257"/>
      <point x="90" y="219"/>
    </contour>
    <contour>
      <point x="381" y="650" type="move" name="top"/>
    </contour>
    <contour>
      <point x="468" y="4" type="move" name="ogonek"/>
    </contour>
    <contour>
      <point x="275" y="-150" type="move" name="bottom"/>
    </contour>
  </outline>
</glyph>
<glyph name="g" format="1">
  <advance width="564"/>
  <unicode hex="0067"/>
  <note>
    GF Latin Plus glyph
  </note>
  <outline>
    <contour>
      <point x="156" y="275" type="curve" smooth="yes"/>
      <point x="180" y="427"/>
      <point x="239" y="496"/>
      <point x="371" y="490" type="curve" smooth="yes"/>
      <point x="374" y="490"/>
      <point x="506" y="484"/>
      <point x="509" y="483" type="curve"/>
      <point x="448" y="96" type="line"/>
      <point x="376" y="60"/>
      <point x="323" y="43"/>
      <point x="259" y="43" type="curve" smooth="yes"/>
      <point x="196" y="43"/>
      <point x="146" y="85"/>
      <point x="146" y="176" type="curve" smooth="yes"/>
      <point x="146" y="205"/>
      <point x="150" y="235"/>
    </contour>
    <contour>
      <point x="56" y="-230" type="line"/>
      <point x="205" y="-236" type="line" smooth="yes"/>
      <point x="320" y="-243"/>
      <point x="457" y="-208"/>
      <point x="480" y="-65" type="curve" smooth="yes"/>
      <point x="573" y="520" type="line"/>
      <point x="536" y="528"/>
      <point x="464" y="539"/>
      <point x="374" y="539" type="curve" smooth="yes"/>
      <point x="201" y="539"/>
      <point x="127" y="455"/>
      <point x="99" y="283" type="curve" smooth="yes"/>
      <point x="93" y="243"/>
      <point x="88" y="202"/>
      <point x="88" y="168" type="curve" smooth="yes"/>
      <point x="88" y="57"/>
      <point x="155" y="-6"/>
      <point x="236" y="-6" type="curve" smooth="yes"/>
      <point x="298" y="-6"/>
      <point x="376" y="14"/>
      <point x="442" y="58" type="curve"/>
      <point x="423" y="-58" type="line" smooth="yes"/>
      <point x="407" y="-154"/>
      <point x="318" y="-190"/>
      <point x="222" y="-190" type="curve" smooth="yes"/>
      <point x="62" y="-190" type="line"/>
    </contour>
    <contour>
      <point x="382" y="650" type="move" name="top"/>
    </contour>
    <contour>
      <point x="208" y="-350" type="move" name="bottom"/>
    </contour>
  </outline>
</glyph>
<glyph name="l" format="1">
  <advance width="284"/>
  <unicode hex="006C"/>
  <note>
    GF Latin Plus glyph
  </note>
  <outline>
    <contour>
      <point x="101" y="181" type="line" smooth="yes"/>
      <point x="97" y="158"/>
      <point x="93" y="131"/>
      <point x="93" y="103" type="curve" smooth="yes"/>
      <point x="93" y="37"/>
      <point x="133" y="0"/>
      <point x="207" y="0" type="curve" smooth="yes"/>
      <point x="265" y="0" type="line"/>
      <point x="272" y="41" type="line"/>
      <point x="215" y="47" type="line" smooth="yes"/>
      <point x="177" y="51"/>
      <point x="153" y="67"/>
      <point x="153" y="115" type="curve" smooth="yes"/>
      <point x="153" y="143"/>
      <point x="159" y="175"/>
      <point x="161" y="195" type="curve" smooth="yes"/>
      <point x="252" y="763" type="line"/>
      <point x="194" y="763" type="line"/>
    </contour>
    <contour>
      <point x="241" y="850" type="move" name="top"/>
    </contour>
    <contour>
      <point x="254" y="650" type="move" name="altcaron"/>
    </contour>
    <contour>
      <point x="291" y="390" type="move" name="dot"/>
    </contour>
    <contour>
      <point x="157" y="-150" type="move" name="bottom"/>
    </contour>
  </outline>
</glyph>
<glyph name="n" format="1">
  <advance width="571"/>
  <unicode hex="006E"/>
  <note>
    GF Latin Plus glyph
  </note>
  <outline>
    <contour>
      <point x="73" y="0" type="line"/>
      <point x="131" y="0" type="line"/>
      <point x="199" y="429" type="line"/>
      <point x="267" y="468"/>
      <point x="319" y="489"/>
      <point x="396" y="489" type="curve" smooth="yes"/>
      <point x="475" y="489"/>
      <point x="501" y="448"/>
      <point x="501" y="394" type="curve" smooth="yes"/>
      <point x="501" y="382"/>
      <point x="499" y="370"/>
      <point x="492" y="324" type="curve" smooth="yes"/>
      <point x="441" y="0" type="line"/>
      <point x="499" y="0" type="line"/>
      <point x="551" y="326" type="line" smooth="yes"/>
      <point x="560" y="383"/>
      <point x="560" y="399"/>
      <point x="560" y="414" type="curve" smooth="yes"/>
      <point x="560" y="485"/>
      <point x="523" y="541"/>
      <point x="422" y="541" type="curve" smooth="yes"/>
      <point x="342" y="541"/>
      <point x="265" y="512"/>
      <point x="205" y="473" type="curve"/>
      <point x="202" y="533" type="line"/>
      <point x="157" y="533" type="line"/>
    </contour>
    <contour>
      <point x="386" y="650" type="move" name="top"/>
    </contour>
    <contour>
      <point x="260" y="-150" type="move" name="bottom"/>
    </contour>
  </outline>
</glyph>
<glyph name="q" format="1">
  <advance width="563"/>
  <unicode hex="0071"/>
  <note>
    GF Latin Plus glyph
  </note>
  <outline>
    <contour>
      <point x="155" y="271" type="curve" smooth="yes"/>
      <point x="180" y="423"/>
      <point x="235" y="496"/>
      <point x="385" y="490" type="curve" smooth="yes"/>
      <point x="387" y="490"/>
      <point x="505" y="484"/>
      <point x="509" y="483" type="curve"/>
      <point x="448" y="96" type="line"/>
      <point x="382" y="64"/>
      <point x="323" y="43"/>
      <point x="259" y="43" type="curve" smooth="yes"/>
      <point x="192" y="43"/>
      <point x="146" y="89"/>
      <point x="146" y="176" type="curve" smooth="yes"/>
      <point x="146" y="203"/>
      <point x="150" y="235"/>
    </contour>
    <contour>
      <point x="98" y="278" type="curve" smooth="yes"/>
      <point x="92" y="239"/>
      <point x="88" y="203"/>
      <point x="88" y="169" type="curve" smooth="yes"/>
      <point x="88" y="63"/>
      <point x="144" y="-6"/>
      <point x="235" y="-6" type="curve" smooth="yes"/>
      <point x="291" y="-6"/>
      <point x="373" y="13"/>
      <point x="441" y="58" type="curve"/>
      <point x="394" y="-237" type="line"/>
      <point x="452" y="-237" type="line"/>
      <point x="573" y="520" type="line"/>
      <point x="528" y="529"/>
      <point x="448" y="539"/>
      <point x="381" y="539" type="curve" smooth="yes"/>
      <point x="198" y="539"/>
      <point x="127" y="454"/>
    </contour>
  </outline>
</glyph>
<glyph name="w" format="1">
  <advance width="812"/>
  <unicode hex="0077"/>
  <note>
    GF Latin Plus glyph
  </note>
  <outline>
    <contour>
      <point x="98" y="533" type="line"/>
      <point x="203" y="0" type="line"/>
      <point x="265" y="0" type="line"/>
      <point x="457" y="444" type="line"/>
      <point x="535" y="0" type="line"/>
      <point x="598" y="0" type="line"/>
      <point x="796" y="407" type="line" smooth="yes"/>
      <point x="815" y="447"/>
      <point x="832" y="499"/>
      <point x="832" y="541" type="curve"/>
      <point x="780" y="541" type="line"/>
      <point x="776" y="506"/>
      <point x="759" y="457"/>
      <point x="749" y="433" type="curve" smooth="yes"/>
      <point x="575" y="60" type="line"/>
      <point x="491" y="533" type="line"/>
      <point x="446" y="533" type="line"/>
      <point x="246" y="61" type="line"/>
      <point x="157" y="533" type="line"/>
    </contour>
    <contour>
      <point x="489" y="650" type="move" name="top"/>
    </contour>
    <contour>
      <point x="363" y="-150" type="move" name="bottom"/>
    </contour>
  </outline>
</glyph>
<glyph name="y" format="1">
  <advance width="552"/>
  <unicode hex="0079"/>
  <note>
    GF Latin Plus glyph
  </note>
  <outline>
    <contour>
      <point x="100" y="533" type="line"/>
      <point x="173" y="119" type="line" smooth="yes"/>
      <point x="190" y="23"/>
      <point x="234" y="6"/>
      <point x="289" y="0" type="curve"/>
      <point x="229" y="-126"/>
      <point x="157" y="-178"/>
      <point x="97" y="-192" type="curve"/>
      <point x="97" y="-237" type="line"/>
      <point x="190" y="-223"/>
      <point x="265" y="-165"/>
      <point x="345" y="3" type="curve" smooth="yes"/>
      <point x="539" y="408" type="line" smooth="yes"/>
      <point x="562" y="458"/>
      <point x="570" y="499"/>
      <point x="570" y="541" type="curve"/>
      <point x="521" y="541" type="line"/>
      <point x="518" y="506"/>
      <point x="503" y="469"/>
      <point x="491" y="442" type="curve" smooth="yes"/>
      <point x="310" y="51" type="line"/>
      <point x="272" y="54"/>
      <point x="238" y="64"/>
      <point x="226" y="132" type="curve" smooth="yes"/>
      <point x="160" y="533" type="line"/>
    </contour>
    <contour>
      <point x="351" y="650" type="move" name="top"/>
    </contour>
    <contour>
      <point x="421" y="-150" type="move" name="bottom"/>
    </contour>
  </outline>
</glyph>
<glyph name="z" format="1">
  <advance width="498"/>
  <unicode hex="007A"/>
  <note>
    GF Latin Plus glyph
  </note>
  <outline>
    <contour>
      <point x="58" y="1" type="line"/>
      <point x="451" y="1" type="line"/>
      <point x="451" y="1"/>
      <point x="460" y="48"/>
      <point x="459" y="49" type="curve"/>
      <point x="132" y="49" type="line"/>
      <point x="513" y="487" type="line"/>
      <point x="519" y="533" type="line"/>
      <point x="128" y="533" type="line"/>
      <point x="121" y="484" type="line"/>
      <point x="446" y="484" type="line"/>
      <point x="65" y="45" type="line"/>
    </contour>
    <contour>
      <point x="342" y="650" type="move" name="top"/>
    </contour>
    <contour>
      <point x="216" y="-150" type="move" name="bottom"/>
    </contour>
  </outline>
</glyph>
<glyph name="braceright" format="1">
  <advance width="308"/>
  <unicode hex="007D"/>
  <note>
    GF Latin Plus glyph
  </note>
  <outline>
    <contour>
      <point x="0" y="-164" type="curve"/>
      <point x="-7" y="-210" type="line"/>
      <point x="147" y="-210"/>
      <point x="183" y="-129"/>
      <point x="197" y="-38" type="curve" smooth="yes"/>
      <point x="237" y="216" type="line" smooth="yes"/>
      <point x="246" y="267"/>
      <point x="287" y="285"/>
      <point x="332" y="285" type="curve"/>
      <point x="340" y="342" type="line"/>
      <point x="311" y="345"/>
      <point x="267" y="355"/>
      <point x="267" y="399" type="curve" smooth="yes"/>
      <point x="267" y="425"/>
      <point x="311" y="689"/>
      <point x="311" y="710" type="curve" smooth="yes"/>
      <point x="311" y="786"/>
      <point x="274" y="842"/>
      <point x="160" y="842" type="curve"/>
      <point x="152" y="794" type="line"/>
      <point x="216" y="794"/>
      <point x="251" y="770"/>
      <point x="251" y="699" type="curve" smooth="yes"/>
      <point x="251" y="663"/>
      <point x="207" y="430"/>
      <point x="207" y="388" type="curve" smooth="yes"/>
      <point x="207" y="345"/>
      <point x="237" y="319"/>
      <point x="279" y="314" type="curve"/>
      <point x="222" y="307"/>
      <point x="189" y="272"/>
      <point x="181" y="227" type="curve" smooth="yes"/>
      <point x="140" y="-31" type="line" smooth="yes"/>
      <point x="124" y="-130"/>
      <point x="82" y="-164"/>
    </contour>
  </outline>
</glyph>
<glyph name="asciitilde" format="1">
  <advance width="459"/>
  <unicode hex="007E"/>
  <note>
    GF Latin Plus glyph
  </note>
  <outline>
    <contour>
      <point x="152" y="577" type="line"/>
      <point x="188" y="608"/>
      <point x="228" y="638"/>
      <point x="271" y="638" type="curve" smooth="yes"/>
      <point x="310" y="638"/>
      <point x="351" y="573"/>
      <point x="383" y="573" type="curve" smooth="yes"/>
      <point x="422" y="573"/>
      <point x="463" y="604"/>
      <point x="489" y="623" type="curve"/>
      <point x="496" y="603" type="line"/>
      <point x="459" y="570"/>
      <point x="422" y="539"/>
      <point x="378" y="539" type="curve" smooth="yes"/>
      <point x="336" y="539"/>
      <point x="299" y="604"/>
      <point x="264" y="604" type="curve" smooth="yes"/>
      <point x="226" y="604"/>
      <point x="196" y="583"/>
      <point x="157" y="557" type="curve"/>
    </contour>
  </outline>
</glyph>
<glyph name="cent" format="1">
  <advance width="487"/>
  <unicode hex="00A2"/>
  <note>
    GF Latin Plus glyph
  </note>
  <outline>
    <contour>
      <point x="81" y="171" type="curve" smooth="yes"/>
      <point x="81" y="30"/>
      <point x="152" y="-3"/>
      <point x="243" y="-5" type="curve"/>
      <point x="231" y="-85" type="line"/>
      <point x="267" y="-85" type="line"/>
      <point x="279" y="-4" type="line"/>
      <point x="337" y="0"/>
      <point x="379" y="5"/>
      <point x="444" y="26" type="curve"/>
      <point x="449" y="61" type="line"/>
      <point x="392" y="50"/>
      <point x="345" y="41"/>
      <point x="266" y="41" type="curve" smooth="yes"/>
      <point x="187" y="41"/>
      <point x="139" y="65"/>
      <point x="139" y="172" type="curve" smooth="yes"/>
      <point x="139" y="340"/>
      <point x="218" y="490"/>
      <point x="342" y="490" type="curve" smooth="yes"/>
      <point x="409" y="490"/>
      <point x="464" y="483"/>
      <point x="508" y="474" type="curve"/>
      <point x="513" y="508" type="line"/>
      <point x="468" y="521"/>
      <point x="411" y="532"/>
      <point x="366" y="535" type="curve"/>
      <point x="379" y="621" type="line"/>
      <point x="343" y="621" type="line"/>
      <point x="330" y="536" type="line"/>
      <point x="184" y="535"/>
      <point x="81" y="369"/>
    </contour>
  </outline>
</glyph>
<glyph name="sterling" format="1">
  <advance width="609"/>
  <unicode hex="00A3"/>
  <note>
    GF Latin Plus glyph
  </note>
  <outline>
    <contour>
      <point x="65" y="0" type="line"/>
      <point x="539" y="0" type="line"/>
      <point x="547" y="52" type="line"/>
      <point x="245" y="52" type="line"/>
      <point x="291" y="339" type="line"/>
      <point x="516" y="344" type="line"/>
      <point x="521" y="378" type="line"/>
      <point x="298" y="384" type="line"/>
      <point x="321" y="529" type="line" smooth="yes"/>
      <point x="341" y="658"/>
      <point x="396" y="683"/>
      <point x="493" y="683" type="curve" smooth="yes"/>
      <point x="633" y="683" type="line"/>
      <point x="640" y="727" type="line"/>
      <point x="606" y="730"/>
      <point x="551" y="735"/>
      <point x="498" y="735" type="curve" smooth="yes"/>
      <point x="375" y="735"/>
      <point x="289" y="695"/>
      <point x="262" y="524" type="curve" smooth="yes"/>
      <point x="240" y="384" type="line"/>
      <point x="125" y="376" type="line"/>
      <point x="120" y="344" type="line"/>
      <point x="233" y="339" type="line"/>
      <point x="187" y="52" type="line"/>
      <point x="72" y="43" type="line"/>
    </contour>
  </outline>
</glyph>
<glyph name="currency" format="1">
  <advance width="609"/>
  <unicode hex="00A4"/>
  <note>
    GF Latin Plus glyph
  </note>
  <outline>
    <contour>
      <point x="383" y="517" type="curve" smooth="yes"/>
      <point x="279" y="517"/>
      <point x="199" y="438"/>
      <point x="199" y="335" type="curve" smooth="yes"/>
      <point x="199" y="258"/>
      <point x="259" y="195"/>
      <point x="339" y="195" type="curve" smooth="yes"/>
      <point x="443" y="195"/>
      <point x="524" y="274"/>
      <point x="524" y="377" type="curve" smooth="yes"/>
      <point x="524" y="454"/>
      <point x="463" y="517"/>
    </contour>
    <contour>
      <point x="290" y="475" type="line"/>
      <point x="202" y="579" type="line"/>
      <point x="169" y="550" type="line"/>
      <point x="256" y="446" type="line"/>
    </contour>
    <contour>
      <point x="492" y="444" type="line"/>
      <point x="615" y="550" type="line"/>
      <point x="590" y="579" type="line"/>
      <point x="468" y="473" type="line"/>
    </contour>
    <contour>
      <point x="553" y="162" type="line"/>
      <point x="464" y="268" type="line"/>
      <point x="430" y="239" type="line"/>
      <point x="520" y="133" type="line"/>
    </contour>
    <contour>
      <point x="132" y="133" type="line"/>
      <point x="258" y="241" type="line"/>
      <point x="232" y="270" type="line"/>
      <point x="107" y="162" type="line"/>
    </contour>
    <contour>
      <point x="381" y="479" type="curve" smooth="yes"/>
      <point x="442" y="479"/>
      <point x="486" y="434"/>
      <point x="486" y="375" type="curve" smooth="yes"/>
      <point x="486" y="284"/>
      <point x="421" y="233"/>
      <point x="341" y="233" type="curve" smooth="yes"/>
      <point x="281" y="233"/>
      <point x="238" y="279"/>
      <point x="238" y="337" type="curve" smooth="yes"/>
      <point x="238" y="423"/>
      <point x="302" y="479"/>
    </contour>
  </outline>
</glyph>
<glyph name="section" format="1">
  <advance width="554"/>
  <unicode hex="00A7"/>
  <note>
    GF Latin Plus glyph
  </note>
  <outline>
    <contour>
      <point x="170" y="357" type="curve" smooth="yes"/>
      <point x="179" y="411" type="line" smooth="yes"/>
      <point x="188" y="469"/>
      <point x="214" y="483"/>
      <point x="290" y="483" type="curve" smooth="yes"/>
      <point x="431" y="483" type="line" smooth="yes"/>
      <point x="489" y="483"/>
      <point x="509" y="473"/>
      <point x="509" y="437" type="curve" smooth="yes"/>
      <point x="509" y="430"/>
      <point x="508" y="423"/>
      <point x="506" y="413" type="curve" smooth="yes"/>
      <point x="497" y="358" type="line" smooth="yes"/>
      <point x="488" y="295"/>
      <point x="475" y="290"/>
      <point x="385" y="290" type="curve" smooth="yes"/>
      <point x="259" y="290" type="line" smooth="yes"/>
      <point x="189" y="290"/>
      <point x="169" y="309"/>
      <point x="169" y="341" type="curve" smooth="yes"/>
      <point x="169" y="346"/>
      <point x="169" y="351"/>
    </contour>
    <contour>
      <point x="114" y="358" type="line" smooth="yes"/>
      <point x="112" y="340"/>
      <point x="111" y="330"/>
      <point x="111" y="322" type="curve" smooth="yes"/>
      <point x="111" y="268"/>
      <point x="152" y="244"/>
      <point x="242" y="244" type="curve" smooth="yes"/>
      <point x="377" y="244" type="line" smooth="yes"/>
      <point x="445" y="244"/>
      <point x="462" y="236"/>
      <point x="462" y="207" type="curve" smooth="yes"/>
      <point x="462" y="197"/>
      <point x="458" y="175"/>
      <point x="449" y="121" type="curve" smooth="yes"/>
      <point x="442" y="75"/>
      <point x="418" y="42"/>
      <point x="315" y="42" type="curve" smooth="yes"/>
      <point x="109" y="42" type="line"/>
      <point x="103" y="2" type="line"/>
      <point x="143" y="-3"/>
      <point x="265" y="-6"/>
      <point x="315" y="-6" type="curve" smooth="yes"/>
      <point x="424" y="-6"/>
      <point x="492" y="25"/>
      <point x="506" y="120" type="curve" smooth="yes"/>
      <point x="515" y="171" type="line" smooth="yes"/>
      <point x="519" y="197"/>
      <point x="520" y="208"/>
      <point x="520" y="219" type="curve" smooth="yes"/>
      <point x="520" y="246"/>
      <point x="510" y="266"/>
      <point x="477" y="277" type="curve"/>
      <point x="525" y="285"/>
      <point x="545" y="309"/>
      <point x="555" y="367" type="curve" smooth="yes"/>
      <point x="564" y="423" type="line" smooth="yes"/>
      <point x="566" y="434"/>
      <point x="567" y="446"/>
      <point x="567" y="455" type="curve" smooth="yes"/>
      <point x="567" y="509"/>
      <point x="536" y="529"/>
      <point x="448" y="529" type="curve" smooth="yes"/>
      <point x="298" y="529" type="line" smooth="yes"/>
      <point x="244" y="529"/>
      <point x="216" y="536"/>
      <point x="216" y="575" type="curve" smooth="yes"/>
      <point x="216" y="584"/>
      <point x="218" y="602"/>
      <point x="227" y="649" type="curve" smooth="yes"/>
      <point x="239" y="722"/>
      <point x="281" y="736"/>
      <point x="348" y="736" type="curve" smooth="yes"/>
      <point x="568" y="736" type="line"/>
      <point x="574" y="775" type="line"/>
      <point x="535" y="781"/>
      <point x="399" y="784"/>
      <point x="349" y="784" type="curve" smooth="yes"/>
      <point x="243" y="784"/>
      <point x="187" y="750"/>
      <point x="172" y="656" type="curve" smooth="yes"/>
      <point x="162" y="597" type="line" smooth="yes"/>
      <point x="160" y="582"/>
      <point x="160" y="573"/>
      <point x="160" y="564" type="curve" smooth="yes"/>
      <point x="160" y="533"/>
      <point x="169" y="509"/>
      <point x="203" y="497" type="curve"/>
      <point x="158" y="487"/>
      <point x="131" y="467"/>
      <point x="122" y="403" type="curve" smooth="yes"/>
    </contour>
  </outline>
</glyph>
<glyph name="registered" format="1">
  <advance width="850"/>
  <unicode hex="00AE"/>
  <note>
    GF Latin Plus glyph
  </note>
  <outline>
    <contour>
      <point x="368" y="367" type="line"/>
      <point x="396" y="548" type="line"/>
      <point x="545" y="548" type="line" smooth="yes"/>
      <point x="592" y="548"/>
      <point x="621" y="531"/>
      <point x="621" y="480" type="curve" smooth="yes"/>
      <point x="621" y="422"/>
      <point x="576" y="367"/>
      <point x="516" y="367" type="curve" smooth="yes"/>
    </contour>
    <contour>
      <point x="299" y="153" type="line"/>
      <point x="333" y="153" type="line"/>
      <point x="363" y="343" type="line"/>
      <point x="501" y="339" type="line"/>
      <point x="575" y="153" type="line"/>
      <point x="608" y="153" type="line"/>
      <point x="533" y="339" type="line"/>
      <point x="605" y="347"/>
      <point x="655" y="412"/>
      <point x="655" y="487" type="curve" smooth="yes"/>
      <point x="655" y="564"/>
      <point x="604" y="580"/>
      <point x="546" y="580" type="curve" smooth="yes"/>
      <point x="367" y="580" type="line"/>
    </contour>
    <contour>
      <point x="425" y="700" type="curve" smooth="yes"/>
      <point x="669" y="700" type="line" smooth="yes"/>
      <point x="780" y="700"/>
      <point x="822" y="611"/>
      <point x="822" y="491" type="curve" smooth="yes"/>
      <point x="822" y="249"/>
      <point x="697" y="32"/>
      <point x="561" y="32" type="curve" smooth="yes"/>
      <point x="318" y="32" type="line" smooth="yes"/>
      <point x="191" y="32"/>
      <point x="148" y="150"/>
      <point x="148" y="278" type="curve" smooth="yes"/>
      <point x="148" y="508"/>
      <point x="291" y="700"/>
    </contour>
    <contour>
      <point x="114" y="275" type="curve" smooth="yes"/>
      <point x="114" y="140"/>
      <point x="170" y="0"/>
      <point x="320" y="0" type="curve" smooth="yes"/>
      <point x="558" y="0" type="line" smooth="yes"/>
      <point x="716" y="0"/>
      <point x="855" y="239"/>
      <point x="855" y="497" type="curve" smooth="yes"/>
      <point x="855" y="623"/>
      <point x="804" y="732"/>
      <point x="668" y="732" type="curve" smooth="yes"/>
      <point x="430" y="732" type="line" smooth="yes"/>
      <point x="256" y="732"/>
      <point x="114" y="502"/>
    </contour>
  </outline>
</glyph>
<glyph name="degree" format="1">
  <advance width="333"/>
  <unicode hex="00B0"/>
  <note>
    GF Latin Plus glyph
  </note>
  <outline>
    <contour>
      <point x="283" y="730" type="curve" smooth="yes"/>
      <point x="334" y="730"/>
      <point x="366" y="697"/>
      <point x="366" y="649" type="curve" smooth="yes"/>
      <point x="366" y="581"/>
      <point x="319" y="531"/>
      <point x="251" y="531" type="curve" smooth="yes"/>
      <point x="199" y="531"/>
      <point x="166" y="564"/>
      <point x="166" y="612" type="curve" smooth="yes"/>
      <point x="166" y="678"/>
      <point x="214" y="730"/>
    </contour>
    <contour>
      <point x="137" y="609" type="curve" smooth="yes"/>
      <point x="137" y="545"/>
      <point x="181" y="502"/>
      <point x="247" y="502" type="curve" smooth="yes"/>
      <point x="338" y="502"/>
      <point x="395" y="564"/>
      <point x="395" y="652" type="curve" smooth="yes"/>
      <point x="395" y="716"/>
      <point x="353" y="759"/>
      <point x="288" y="759" type="curve" smooth="yes"/>
      <point x="197" y="759"/>
      <point x="137" y="695"/>
    </contour>
  </outline>
</glyph>
<glyph name="twosuperior" format="1">
  <advance width="420"/>
  <unicode hex="00B2"/>
  <outline>
    <contour>
      <point x="194" y="801" type="line"/>
      <point x="326" y="801" type="line" smooth="yes"/>
      <point x="403" y="801"/>
      <point x="426" y="775"/>
      <point x="426" y="737" type="curve" smooth="yes"/>
      <point x="426" y="687"/>
      <point x="400" y="632"/>
      <point x="322" y="568" type="curve" smooth="yes"/>
      <point x="111" y="394" type="line"/>
      <point x="105" y="355" type="line"/>
      <point x="434" y="355" type="line"/>
      <point x="441" y="399" type="line"/>
      <point x="181" y="399" type="line"/>
      <point x="356" y="543" type="line" smooth="yes"/>
      <point x="447" y="619"/>
      <point x="476" y="685"/>
      <point x="476" y="751" type="curve" smooth="yes"/>
      <point x="476" y="808"/>
      <point x="442" y="846"/>
      <point x="345" y="846" type="curve" smooth="yes"/>
      <point x="293" y="846"/>
      <point x="240" y="841"/>
      <point x="200" y="837" type="curve"/>
    </contour>
  </outline>
</glyph>
<glyph name="threesuperior" format="1">
  <advance width="420"/>
  <unicode hex="00B3"/>
  <outline>
    <contour>
      <point x="186" y="801" type="line"/>
      <point x="328" y="801" type="line" smooth="yes"/>
      <point x="388" y="801"/>
      <point x="418" y="778"/>
      <point x="418" y="740" type="curve" smooth="yes"/>
      <point x="418" y="735"/>
      <point x="418" y="730"/>
      <point x="417" y="725" type="curve" smooth="yes"/>
      <point x="411" y="688" type="line" smooth="yes"/>
      <point x="403" y="642"/>
      <point x="366" y="625"/>
      <point x="317" y="623" type="curve" smooth="yes"/>
      <point x="190" y="618" type="line"/>
      <point x="184" y="583" type="line"/>
      <point x="312" y="578" type="line" smooth="yes"/>
      <point x="349" y="577"/>
      <point x="390" y="563"/>
      <point x="391" y="519" type="curve" smooth="yes"/>
      <point x="391" y="515"/>
      <point x="390" y="511"/>
      <point x="389" y="505" type="curve" smooth="yes"/>
      <point x="383" y="472" type="line" smooth="yes"/>
      <point x="374" y="410"/>
      <point x="327" y="396"/>
      <point x="269" y="396" type="curve" smooth="yes"/>
      <point x="105" y="396" type="line"/>
      <point x="98" y="359" type="line"/>
      <point x="142" y="354"/>
      <point x="205" y="351"/>
      <point x="277" y="351" type="curve" smooth="yes"/>
      <point x="363" y="351"/>
      <point x="420" y="390"/>
      <point x="431" y="465" type="curve" smooth="yes"/>
      <point x="437" y="500" type="line" smooth="yes"/>
      <point x="439" y="508"/>
      <point x="440" y="514"/>
      <point x="440" y="521" type="curve" smooth="yes"/>
      <point x="440" y="573"/>
      <point x="397" y="595"/>
      <point x="373" y="601" type="curve"/>
      <point x="399" y="606"/>
      <point x="449" y="628"/>
      <point x="459" y="690" type="curve" smooth="yes"/>
      <point x="466" y="732" type="line" smooth="yes"/>
      <point x="468" y="740"/>
      <point x="468" y="748"/>
      <point x="468" y="755" type="curve" smooth="yes"/>
      <point x="468" y="810"/>
      <point x="431" y="846"/>
      <point x="353" y="846" type="curve" smooth="yes"/>
      <point x="287" y="846"/>
      <point x="234" y="843"/>
      <point x="192" y="838" type="curve"/>
    </contour>
  </outline>
</glyph>
<glyph name="paragraph" format="1">
  <advance width="572"/>
  <unicode hex="00B6"/>
  <note>
    GF Latin Plus glyph
  </note>
  <outline>
    <contour>
      <point x="159" y="473" type="curve" smooth="yes"/>
      <point x="176" y="586" type="line" smooth="yes"/>
      <point x="186" y="647"/>
      <point x="235" y="690"/>
      <point x="315" y="690" type="curve" smooth="yes"/>
      <point x="391" y="690" type="line"/>
      <point x="338" y="356" type="line"/>
      <point x="262" y="356" type="line" smooth="yes"/>
      <point x="213" y="356"/>
      <point x="156" y="367"/>
      <point x="156" y="446" type="curve" smooth="yes"/>
      <point x="156" y="453"/>
      <point x="157" y="463"/>
    </contour>
    <contour>
      <point x="114" y="468" type="line" smooth="yes"/>
      <point x="112" y="455"/>
      <point x="111" y="445"/>
      <point x="111" y="436" type="curve" smooth="yes"/>
      <point x="111" y="366"/>
      <point x="155" y="312"/>
      <point x="250" y="312" type="curve" smooth="yes"/>
      <point x="289" y="312"/>
      <point x="322" y="317"/>
      <point x="333" y="324" type="curve"/>
      <point x="239" y="-270" type="line"/>
      <point x="283" y="-270" type="line"/>
      <point x="435" y="690" type="line"/>
      <point x="537" y="690" type="line"/>
      <point x="428" y="0" type="line"/>
      <point x="472" y="0" type="line"/>
      <point x="581" y="688" type="line"/>
      <point x="662" y="688" type="line"/>
      <point x="669" y="734" type="line"/>
      <point x="320" y="734" type="line" smooth="yes"/>
      <point x="236" y="734"/>
      <point x="149" y="689"/>
      <point x="134" y="594" type="curve" smooth="yes"/>
    </contour>
  </outline>
</glyph>
<glyph name="AE" format="1">
  <advance width="919"/>
  <unicode hex="00C6"/>
  <note>
    GF Latin Plus glyph
  </note>
  <outline>
    <contour>
      <point x="300" y="276" type="line"/>
      <point x="576" y="634" type="line"/>
      <point x="519" y="276" type="line"/>
    </contour>
    <contour>
      <point x="25" y="0" type="line"/>
      <point x="87" y="0" type="line"/>
      <point x="263" y="225" type="line"/>
      <point x="511" y="225" type="line"/>
      <point x="494" y="117" type="line" smooth="yes"/>
      <point x="480" y="11"/>
      <point x="553" y="-5"/>
      <point x="629" y="-4" type="curve" smooth="yes"/>
      <point x="629" y="-4"/>
      <point x="868" y="2"/>
      <point x="889" y="5" type="curve"/>
      <point x="896" y="50" type="line"/>
      <point x="641" y="50" type="line" smooth="yes"/>
      <point x="591" y="50"/>
      <point x="538" y="60"/>
      <point x="552" y="144" type="curve" smooth="yes"/>
      <point x="583" y="338" type="line"/>
      <point x="900" y="343" type="line"/>
      <point x="908" y="386" type="line"/>
      <point x="591" y="391" type="line"/>
      <point x="620" y="573" type="line" smooth="yes"/>
      <point x="631" y="643"/>
      <point x="627" y="681"/>
      <point x="730" y="681" type="curve" smooth="yes"/>
      <point x="996" y="681" type="line"/>
      <point x="1003" y="726" type="line"/>
      <point x="980" y="728"/>
      <point x="745" y="734"/>
      <point x="731" y="734" type="curve" smooth="yes"/>
      <point x="615" y="736"/>
      <point x="559" y="694"/>
      <point x="474" y="582" type="curve" smooth="yes"/>
    </contour>
    <contour>
      <point x="623" y="810" type="move" name="top"/>
    </contour>
  </outline>
</glyph>
<glyph name="Thorn" format="1">
  <advance width="544"/>
  <unicode hex="00DE"/>
  <note>
    GF Latin Plus glyph
  </note>
  <outline>
    <contour>
      <point x="248" y="734" type="line"/>
      <point x="191" y="734" type="line"/>
      <point x="75" y="0" type="line"/>
      <point x="133" y="0" type="line"/>
    </contour>
    <contour>
      <point x="200" y="539" type="line"/>
      <point x="371" y="539" type="line" smooth="yes"/>
      <point x="448" y="539"/>
      <point x="494" y="509"/>
      <point x="494" y="430" type="curve" smooth="yes"/>
      <point x="494" y="416"/>
      <point x="491" y="390"/>
      <point x="488" y="371" type="curve" smooth="yes"/>
      <point x="469" y="255"/>
      <point x="395" y="224"/>
      <point x="316" y="224" type="curve" smooth="yes"/>
      <point x="154" y="224" type="line"/>
      <point x="146" y="181" type="line"/>
      <point x="206" y="176"/>
      <point x="262" y="171"/>
      <point x="320" y="171" type="curve" smooth="yes"/>
      <point x="414" y="171"/>
      <point x="521" y="207"/>
      <point x="546" y="366" type="curve" smooth="yes"/>
      <point x="549" y="387"/>
      <point x="553" y="418"/>
      <point x="553" y="435" type="curve" smooth="yes"/>
      <point x="553" y="554"/>
      <point x="478" y="591"/>
      <point x="381" y="591" type="curve" smooth="yes"/>
      <point x="206" y="591" type="line"/>
    </contour>
  </outline>
</glyph>
<glyph name="ae" format="1">
  <advance width="904"/>
  <unicode hex="00E6"/>
  <note>
    GF Latin Plus glyph
  </note>
  <outline>
    <contour>
      <point x="510" y="275" type="curve"/>
      <point x="535" y="415"/>
      <point x="569" y="495"/>
      <point x="729" y="495" type="curve" smooth="yes"/>
      <point x="811" y="495"/>
      <point x="855" y="454"/>
      <point x="855" y="384" type="curve" smooth="yes"/>
      <point x="855" y="304"/>
      <point x="777" y="265"/>
      <point x="652" y="265" type="curve" smooth="yes"/>
      <point x="579" y="265"/>
      <point x="512" y="275"/>
    </contour>
    <contour>
      <point x="256" y="43" type="curve" smooth="yes"/>
      <point x="180" y="43"/>
      <point x="147" y="93"/>
      <point x="147" y="182" type="curve" smooth="yes"/>
      <point x="147" y="325"/>
      <point x="190" y="490"/>
      <point x="371" y="490" type="curve" smooth="yes"/>
      <point x="432" y="490"/>
      <point x="489" y="466"/>
      <point x="517" y="451" type="curve"/>
      <point x="463" y="375"/>
      <point x="445" y="262"/>
      <point x="445" y="177" type="curve" smooth="yes"/>
      <point x="445" y="159"/>
      <point x="447" y="142"/>
      <point x="450" y="128" type="curve"/>
      <point x="408" y="88"/>
      <point x="330" y="43"/>
    </contour>
    <contour>
      <point x="244" y="-6" type="curve" smooth="yes"/>
      <point x="328" y="-6"/>
      <point x="414" y="47"/>
      <point x="460" y="86" type="curve"/>
      <point x="480" y="32"/>
      <point x="534" y="-6"/>
      <point x="621" y="-6" type="curve" smooth="yes"/>
      <point x="693" y="-6"/>
      <point x="774" y="-3"/>
      <point x="835" y="4" type="curve"/>
      <point x="841" y="40" type="line"/>
      <point x="636" y="40" type="line" smooth="yes"/>
      <point x="530" y="40"/>
      <point x="502" y="90"/>
      <point x="502" y="177" type="curve" smooth="yes"/>
      <point x="502" y="201"/>
      <point x="502" y="211"/>
      <point x="506" y="244" type="curve"/>
      <point x="522" y="237"/>
      <point x="598" y="227"/>
      <point x="673" y="227" type="curve" smooth="yes"/>
      <point x="822" y="227"/>
      <point x="911" y="293"/>
      <point x="911" y="390" type="curve" smooth="yes"/>
      <point x="911" y="491"/>
      <point x="847" y="542"/>
      <point x="723" y="542" type="curve" smooth="yes"/>
      <point x="659" y="542"/>
      <point x="590" y="525"/>
      <point x="549" y="488" type="curve"/>
      <point x="504" y="521"/>
      <point x="424" y="539"/>
      <point x="368" y="539" type="curve" smooth="yes"/>
      <point x="163" y="539"/>
      <point x="89" y="371"/>
      <point x="89" y="173" type="curve" smooth="yes"/>
      <point x="89" y="45"/>
      <point x="153" y="-6"/>
    </contour>
    <contour>
      <point x="551" y="650" type="move" name="top"/>
    </contour>
  </outline>
</glyph>
<glyph name="eth" format="1">
  <advance width="564"/>
  <unicode hex="00F0"/>
  <note>
    GF Latin Plus glyph
  </note>
  <outline>
    <contour>
      <point x="96" y="266" type="curve" smooth="yes"/>
      <point x="91" y="233"/>
      <point x="89" y="203"/>
      <point x="89" y="173" type="curve" smooth="yes"/>
      <point x="89" y="41"/>
      <point x="165" y="-6"/>
      <point x="281" y="-6" type="curve" smooth="yes"/>
      <point x="445" y="-6"/>
      <point x="519" y="52"/>
      <point x="549" y="248" type="curve" smooth="yes"/>
      <point x="554" y="279"/>
      <point x="535" y="335"/>
      <point x="535" y="360" type="curve" smooth="yes"/>
      <point x="535" y="472"/>
      <point x="474" y="535"/>
      <point x="357" y="535" type="curve" smooth="yes"/>
      <point x="201" y="535"/>
      <point x="130" y="479"/>
    </contour>
    <contour>
      <point x="153" y="255" type="curve" smooth="yes"/>
      <point x="184" y="445"/>
      <point x="234" y="487"/>
      <point x="357" y="487" type="curve" smooth="yes"/>
      <point x="457" y="487"/>
      <point x="500" y="449"/>
      <point x="500" y="353" type="curve" smooth="yes"/>
      <point x="500" y="326"/>
      <point x="497" y="296"/>
      <point x="491" y="259" type="curve" smooth="yes"/>
      <point x="463" y="77"/>
      <point x="405" y="43"/>
      <point x="289" y="43" type="curve" smooth="yes"/>
      <point x="205" y="43"/>
      <point x="146" y="66"/>
      <point x="146" y="175" type="curve" smooth="yes"/>
      <point x="146" y="198"/>
      <point x="149" y="224"/>
    </contour>
    <contour>
      <point x="243" y="721" type="line"/>
      <point x="412" y="718"/>
      <point x="518" y="647"/>
      <point x="518" y="441" type="curve" smooth="yes"/>
      <point x="518" y="394"/>
      <point x="514" y="340"/>
      <point x="505" y="280" type="curve"/>
      <point x="551" y="260" type="line"/>
      <point x="561" y="328"/>
      <point x="566" y="389"/>
      <point x="566" y="442" type="curve" smooth="yes"/>
      <point x="566" y="669"/>
      <point x="443" y="761"/>
      <point x="250" y="763" type="curve"/>
    </contour>
    <contour>
      <point x="275" y="627" type="line"/>
      <point x="281" y="604" type="line"/>
      <point x="620" y="733" type="line"/>
      <point x="615" y="756" type="line"/>
    </contour>
  </outline>
</glyph>
<glyph name="thorn" format="1">
  <advance width="564"/>
  <unicode hex="00FE"/>
  <note>
    GF Latin Plus glyph
  </note>
  <outline>
    <contour>
      <point x="35" y="-237" type="line"/>
      <point x="93" y="-237" type="line"/>
      <point x="135" y="28" type="line"/>
      <point x="186" y="3"/>
      <point x="238" y="-6"/>
      <point x="301" y="-6" type="curve" smooth="yes"/>
      <point x="454" y="-6"/>
      <point x="524" y="95"/>
      <point x="550" y="256" type="curve" smooth="yes"/>
      <point x="555" y="287"/>
      <point x="560" y="324"/>
      <point x="560" y="358" type="curve" smooth="yes"/>
      <point x="560" y="481"/>
      <point x="501" y="539"/>
      <point x="391" y="539" type="curve" smooth="yes"/>
      <point x="317" y="539"/>
      <point x="258" y="537"/>
      <point x="215" y="533" type="curve"/>
      <point x="252" y="763" type="line"/>
      <point x="194" y="763" type="line"/>
    </contour>
    <contour>
      <point x="142" y="72" type="curve"/>
      <point x="208" y="488" type="line"/>
      <point x="378" y="490" type="line" smooth="yes"/>
      <point x="464" y="491"/>
      <point x="502" y="442"/>
      <point x="502" y="351" type="curve" smooth="yes"/>
      <point x="502" y="323"/>
      <point x="497" y="292"/>
      <point x="493" y="269" type="curve" smooth="yes"/>
      <point x="470" y="123"/>
      <point x="421" y="44"/>
      <point x="297" y="44" type="curve" smooth="yes"/>
      <point x="234" y="44"/>
      <point x="205" y="51"/>
    </contour>
  </outline>
</glyph>
<glyph name="kgreenlandic" format="1">
  <advance width="515"/>
  <unicode hex="0138"/>
  <note>
    GF Latin Plus glyph
  </note>
  <outline>
    <contour>
      <point x="73" y="0" type="line"/>
      <point x="131" y="0" type="line"/>
      <point x="170" y="248" type="line"/>
      <point x="197" y="248"/>
      <point x="240" y="252"/>
      <point x="272" y="262" type="curve"/>
      <point x="424" y="0" type="line"/>
      <point x="486" y="0" type="line"/>
      <point x="323" y="279" type="line"/>
      <point x="398" y="315"/>
      <point x="470" y="381"/>
      <point x="514" y="533" type="curve"/>
      <point x="456" y="533" type="line"/>
      <point x="405" y="361"/>
      <point x="306" y="299"/>
      <point x="177" y="295" type="curve"/>
      <point x="215" y="533" type="line"/>
      <point x="157" y="533" type="line"/>
    </contour>
  </outline>
</glyph>
<glyph name="Eng" format="1">
  <advance width="661"/>
  <unicode hex="014A"/>
  <note>
    GF Latin Plus glyph
  </note>
  <outline>
    <contour>
      <point x="268" y="-219" type="line"/>
      <point x="294" y="-232"/>
      <point x="339" y="-243"/>
      <point x="375" y="-243" type="curve" smooth="yes"/>
      <point x="489" y="-243"/>
      <point x="556" y="-202"/>
      <point x="575" y="-81" type="curve" smooth="yes"/>
      <point x="591" y="17" type="line"/>
      <point x="533" y="21" type="line"/>
      <point x="518" y="-75" type="line" smooth="yes"/>
      <point x="502" y="-169"/>
      <point x="448" y="-191"/>
      <point x="376" y="-191" type="curve" smooth="yes"/>
      <point x="351" y="-191"/>
      <point x="297" y="-183"/>
      <point x="275" y="-175" type="curve"/>
    </contour>
    <component base="N"/>
  </outline>
</glyph>
<glyph name="oe" format="1">
  <advance width="945"/>
  <unicode hex="0153"/>
  <note>
    GF Latin Plus glyph
  </note>
  <outline>
    <contour>
      <point x="876" y="4" type="curve"/>
      <point x="882" y="40" type="line"/>
      <point x="723" y="40" type="line" smooth="yes"/>
      <point x="596" y="40"/>
      <point x="545" y="81"/>
      <point x="545" y="174" type="curve" smooth="yes"/>
      <point x="545" y="196"/>
      <point x="546" y="220"/>
      <point x="549" y="243" type="curve"/>
      <point x="575" y="235"/>
      <point x="632" y="227"/>
      <point x="699" y="227" type="curve" smooth="yes"/>
      <point x="828" y="227"/>
      <point x="954" y="259"/>
      <point x="954" y="400" type="curve" smooth="yes"/>
      <point x="954" y="506"/>
      <point x="881" y="542"/>
      <point x="769" y="542" type="curve" smooth="yes"/>
      <point x="651" y="542"/>
      <point x="582" y="495"/>
      <point x="542" y="400" type="curve"/>
      <point x="526" y="486"/>
      <point x="478" y="539"/>
      <point x="365" y="539" type="curve" smooth="yes"/>
      <point x="208" y="539"/>
      <point x="131" y="483"/>
      <point x="97" y="270" type="curve" smooth="yes"/>
      <point x="92" y="236"/>
      <point x="89" y="204"/>
      <point x="89" y="173" type="curve" smooth="yes"/>
      <point x="89" y="41"/>
      <point x="165" y="-6"/>
      <point x="279" y="-6" type="curve" smooth="yes"/>
      <point x="404" y="-6"/>
      <point x="462" y="42"/>
      <point x="505" y="135" type="curve"/>
      <point x="518" y="41"/>
      <point x="583" y="-6"/>
      <point x="712" y="-6" type="curve" smooth="yes"/>
      <point x="771" y="-6"/>
      <point x="837" y="0"/>
    </contour>
    <contour>
      <point x="553" y="276" type="curve"/>
      <point x="573" y="415"/>
      <point x="624" y="495"/>
      <point x="763" y="495" type="curve" smooth="yes"/>
      <point x="853" y="495"/>
      <point x="898" y="467"/>
      <point x="898" y="394" type="curve" smooth="yes"/>
      <point x="898" y="292"/>
      <point x="807" y="265"/>
      <point x="675" y="265" type="curve" smooth="yes"/>
      <point x="630" y="265"/>
      <point x="585" y="270"/>
    </contour>
    <contour>
      <point x="154" y="259" type="curve" smooth="yes"/>
      <point x="184" y="449"/>
      <point x="235" y="491"/>
      <point x="358" y="491" type="curve" smooth="yes"/>
      <point x="460" y="491"/>
      <point x="500" y="453"/>
      <point x="500" y="355" type="curve" smooth="yes"/>
      <point x="500" y="328"/>
      <point x="497" y="297"/>
      <point x="491" y="259" type="curve" smooth="yes"/>
      <point x="463" y="77"/>
      <point x="397" y="43"/>
      <point x="289" y="43" type="curve" smooth="yes"/>
      <point x="205" y="43"/>
      <point x="146" y="70"/>
      <point x="146" y="175" type="curve" smooth="yes"/>
      <point x="146" y="199"/>
      <point x="149" y="226"/>
    </contour>
  </outline>
</glyph>
<glyph name="Schwa" format="1">
  <advance width="602"/>
  <unicode hex="018F"/>
  <note>
    GF Latin Plus glyph
  </note>
  <outline>
    <contour>
      <point x="295" y="-6" type="curve" smooth="yes"/>
      <point x="443" y="-6"/>
      <point x="549" y="68"/>
      <point x="598" y="370" type="curve" smooth="yes"/>
      <point x="608" y="433"/>
      <point x="613" y="486"/>
      <point x="613" y="530" type="curve" smooth="yes"/>
      <point x="613" y="701"/>
      <point x="532" y="740"/>
      <point x="383" y="740" type="curve" smooth="yes"/>
      <point x="310" y="740"/>
      <point x="248" y="729"/>
      <point x="204" y="718" type="curve"/>
      <point x="196" y="675" type="line"/>
      <point x="227" y="679"/>
      <point x="275" y="688"/>
      <point x="354" y="688" type="curve" smooth="yes"/>
      <point x="496" y="688"/>
      <point x="554" y="655"/>
      <point x="554" y="524" type="curve" smooth="yes"/>
      <point x="554" y="486"/>
      <point x="549" y="439"/>
      <point x="540" y="380" type="curve"/>
      <point x="123" y="380" type="line"/>
      <point x="116" y="334" type="line" smooth="yes"/>
      <point x="107" y="283"/>
      <point x="104" y="238"/>
      <point x="104" y="200" type="curve" smooth="yes"/>
      <point x="104" y="52"/>
      <point x="167" y="-6"/>
    </contour>
    <contour>
      <point x="301" y="46" type="curve" smooth="yes"/>
      <point x="201" y="46"/>
      <point x="161" y="92"/>
      <point x="161" y="202" type="curve" smooth="yes"/>
      <point x="161" y="238"/>
      <point x="165" y="280"/>
      <point x="173" y="332" type="curve"/>
      <point x="531" y="332" type="line"/>
      <point x="485" y="106"/>
      <point x="418" y="46"/>
    </contour>
  </outline>
</glyph>
<glyph name="Uhorn" format="1">
  <advance width="672"/>
  <unicode hex="01AF"/>
  <note>
    GF Latin Plus glyph
  </note>
  <outline>
    <contour>
      <point x="657" y="701" type="line"/>
      <point x="690" y="701" type="line" smooth="yes"/>
      <point x="750" y="701"/>
      <point x="813" y="735"/>
      <point x="831" y="849" type="curve"/>
      <point x="787" y="849" type="line"/>
      <point x="773" y="763"/>
      <point x="736" y="734"/>
      <point x="688" y="734" type="curve" smooth="yes"/>
      <point x="663" y="734" type="line"/>
    </contour>
    <component base="U"/>
    <contour>
      <point x="454" y="810" type="move" name="top"/>
    </contour>
    <contour>
      <point x="312" y="-150" type="move" name="bottom"/>
    </contour>
  </outline>
</glyph>
<glyph name="uhorn" format="1">
  <advance width="586"/>
  <unicode hex="01B0"/>
  <note>
    GF Latin Plus glyph
  </note>
  <outline>
    <contour>
      <point x="528" y="499" type="line"/>
      <point x="553" y="499" type="line" smooth="yes"/>
      <point x="613" y="499"/>
      <point x="675" y="534"/>
      <point x="693" y="647" type="curve"/>
      <point x="649" y="647" type="line"/>
      <point x="636" y="561"/>
      <point x="598" y="533"/>
      <point x="551" y="533" type="curve" smooth="yes"/>
      <point x="533" y="533" type="line"/>
    </contour>
    <component base="u"/>
    <contour>
      <point x="370" y="650" type="move" name="top"/>
    </contour>
    <contour>
      <point x="258" y="-150" type="move" name="bottom"/>
    </contour>
  </outline>
</glyph>
<glyph name="breve" format="1">
  <advance width="360"/>
  <unicode hex="02D8"/>
  <note>
    GF Latin Plus glyph
  </note>
  <outline>
    <contour>
      <point x="173" y="769" type="line"/>
      <point x="172" y="756"/>
      <point x="171" y="745"/>
      <point x="171" y="734" type="curve" smooth="yes"/>
      <point x="171" y="657"/>
      <point x="221" y="630"/>
      <point x="280" y="630" type="curve" smooth="yes"/>
      <point x="347" y="630"/>
      <point x="415" y="661"/>
      <point x="431" y="769" type="curve"/>
      <point x="402" y="769" type="line"/>
      <point x="389" y="687"/>
      <point x="337" y="659"/>
      <point x="282" y="659" type="curve" smooth="yes"/>
      <point x="237" y="659"/>
      <point x="200" y="682"/>
      <point x="200" y="741" type="curve" smooth="yes"/>
      <point x="200" y="749"/>
      <point x="201" y="759"/>
      <point x="202" y="769" type="curve"/>
    </contour>
  </outline>
</glyph>
<glyph name="ogonek" format="1">
  <advance width="246"/>
  <unicode hex="02DB"/>
  <note>
    GF Latin Plus glyph
  </note>
  <outline>
    <contour>
      <point x="135" y="0" type="line"/>
      <point x="67" y="-30"/>
      <point x="41" y="-76"/>
      <point x="41" y="-111" type="curve" smooth="yes"/>
      <point x="41" y="-155"/>
      <point x="75" y="-185"/>
      <point x="133" y="-185" type="curve" smooth="yes"/>
      <point x="141" y="-185"/>
      <point x="150" y="-184"/>
      <point x="158" y="-183" type="curve"/>
      <point x="163" y="-154" type="line"/>
      <point x="157" y="-154" type="line" smooth="yes"/>
      <point x="103" y="-154"/>
      <point x="76" y="-133"/>
      <point x="76" y="-97" type="curve" smooth="yes"/>
      <point x="76" y="-70"/>
      <point x="102" y="-27"/>
      <point x="159" y="0" type="curve"/>
    </contour>
  </outline>
</glyph>
<glyph name="tilde" format="1">
  <advance width="459"/>
  <unicode hex="02DC"/>
  <note>
    GF Latin Plus glyph
  </note>
  <outline>
    <contour>
      <point x="161" y="654" type="curve"/>
      <point x="191" y="654" type="line"/>
      <point x="199" y="699"/>
      <point x="231" y="718"/>
      <point x="265" y="718" type="curve" smooth="yes"/>
      <point x="320" y="718"/>
      <point x="360" y="654"/>
      <point x="417" y="654" type="curve" smooth="yes"/>
      <point x="476" y="654"/>
      <point x="513" y="692"/>
      <point x="524" y="754" type="curve"/>
      <point x="494" y="754" type="line"/>
      <point x="487" y="711"/>
      <point x="457" y="688"/>
      <point x="421" y="688" type="curve" smooth="yes"/>
      <point x="368" y="688"/>
      <point x="331" y="752"/>
      <point x="269" y="752" type="curve" smooth="yes"/>
      <point x="223" y="752"/>
      <point x="174" y="728"/>
    </contour>
  </outline>
</glyph>
<glyph name="emdash" format="1">
  <advance width="747"/>
  <unicode hex="2014"/>
  <note>
    GF Latin Plus glyph
  </note>
  <outline>
    <contour>
      <point x="68" y="264" type="line"/>
      <point x="764" y="264" type="line"/>
      <point x="772" y="315" type="line"/>
      <point x="76" y="315" type="line"/>
    </contour>
  </outline>
</glyph>
<glyph name="quoteleft" format="1">
  <advance width="174"/>
  <unicode hex="2018"/>
  <note>
    GF Latin Plus glyph
  </note>
  <outline>
    <contour>
      <point x="143" y="553" type="line" smooth="yes"/>
      <point x="142" y="551"/>
      <point x="142" y="549"/>
      <point x="142" y="547" type="curve" smooth="yes"/>
      <point x="142" y="540"/>
      <point x="145" y="535"/>
      <point x="152" y="535" type="curve" smooth="yes"/>
      <point x="186" y="535" type="line" smooth="yes"/>
      <point x="197" y="535"/>
      <point x="203" y="541"/>
      <point x="205" y="553" type="curve" smooth="yes"/>
      <point x="217" y="627" type="line" smooth="yes"/>
      <point x="217" y="628"/>
      <point x="217" y="629"/>
      <point x="217" y="631" type="curve" smooth="yes"/>
      <point x="217" y="639"/>
      <point x="211" y="644"/>
      <point x="203" y="644" type="curve" smooth="yes"/>
      <point x="195" y="644" type="line"/>
      <point x="204" y="701" type="line" smooth="yes"/>
      <point x="206" y="714"/>
      <point x="213" y="722"/>
      <point x="229" y="722" type="curve"/>
      <point x="232" y="742" type="line"/>
      <point x="227" y="744"/>
      <point x="224" y="744"/>
      <point x="217" y="744" type="curve" smooth="yes"/>
      <point x="200" y="744"/>
      <point x="172" y="737"/>
      <point x="165" y="693" type="curve" smooth="yes"/>
    </contour>
  </outline>
</glyph>
<glyph name="quotesinglbase" format="1">
  <advance width="174"/>
  <unicode hex="201A"/>
  <note>
    GF Latin Plus glyph
  </note>
  <outline>
    <contour>
      <point x="57" y="12" type="line" smooth="yes"/>
      <point x="56" y="11"/>
      <point x="56" y="9"/>
      <point x="56" y="8" type="curve" smooth="yes"/>
      <point x="56" y="-1"/>
      <point x="62" y="-6"/>
      <point x="70" y="-6" type="curve" smooth="yes"/>
      <point x="78" y="-6" type="line"/>
      <point x="69" y="-63" type="line" smooth="yes"/>
      <point x="67" y="-76"/>
      <point x="60" y="-84"/>
      <point x="44" y="-84" type="curve"/>
      <point x="41" y="-104" type="line"/>
      <point x="44" y="-105"/>
      <point x="49" y="-106"/>
      <point x="56" y="-106" type="curve" smooth="yes"/>
      <point x="73" y="-106"/>
      <point x="101" y="-99"/>
      <point x="108" y="-54" type="curve" smooth="yes"/>
      <point x="131" y="85" type="line" smooth="yes"/>
      <point x="131" y="87"/>
      <point x="131" y="89"/>
      <point x="131" y="91" type="curve" smooth="yes"/>
      <point x="131" y="98"/>
      <point x="128" y="103"/>
      <point x="121" y="103" type="curve" smooth="yes"/>
      <point x="87" y="103" type="line" smooth="yes"/>
      <point x="76" y="103"/>
      <point x="70" y="97"/>
      <point x="69" y="85" type="curve" smooth="yes"/>
    </contour>
  </outline>
</glyph>
<glyph name="daggerdbl" format="1">
  <advance width="439"/>
  <unicode hex="2021"/>
  <note>
    GF Latin Plus glyph
  </note>
  <outline>
    <contour>
      <point x="53" y="180" type="line"/>
      <point x="205" y="172" type="line"/>
      <point x="174" y="-72" type="line"/>
      <point x="219" y="-72" type="line"/>
      <point x="264" y="173" type="line"/>
      <point x="421" y="180" type="line"/>
      <point x="427" y="221" type="line"/>
      <point x="274" y="228" type="line"/>
      <point x="314" y="487" type="line"/>
      <point x="470" y="494" type="line"/>
      <point x="476" y="535" type="line"/>
      <point x="323" y="542" type="line"/>
      <point x="353" y="770" type="line"/>
      <point x="307" y="770" type="line"/>
      <point x="264" y="542" type="line"/>
      <point x="108" y="535" type="line"/>
      <point x="102" y="494" type="line"/>
      <point x="255" y="487" type="line"/>
      <point x="215" y="228" type="line"/>
      <point x="59" y="221" type="line"/>
    </contour>
  </outline>
</glyph>
<glyph name="bullet" format="1">
  <advance width="331"/>
  <unicode hex="2022"/>
  <note>
    GF Latin Plus glyph
  </note>
  <outline>
    <contour>
      <point x="130" y="354" type="line" smooth="yes"/>
      <point x="127" y="334"/>
      <point x="137" y="322"/>
      <point x="157" y="322" type="curve" smooth="yes"/>
      <point x="205" y="322" type="line" smooth="yes"/>
      <point x="225" y="322"/>
      <point x="242" y="330"/>
      <point x="246" y="354" type="curve" smooth="yes"/>
      <point x="255" y="408" type="line" smooth="yes"/>
      <point x="259" y="430"/>
      <point x="251" y="443"/>
      <point x="226" y="443" type="curve" smooth="yes"/>
      <point x="178" y="443" type="line" smooth="yes"/>
      <point x="156" y="443"/>
      <point x="142" y="429"/>
      <point x="139" y="408" type="curve" smooth="yes"/>
    </contour>
  </outline>
</glyph>
<glyph name="ellipsis" format="1">
  <advance width="816"/>
  <unicode hex="2026"/>
  <note>
    GF Latin Plus glyph
  </note>
  <outline>
    <contour>
      <point x="109" y="14" type="line" smooth="yes"/>
      <point x="108" y="13"/>
      <point x="108" y="13"/>
      <point x="108" y="12" type="curve" smooth="yes"/>
      <point x="108" y="5"/>
      <point x="113" y="0"/>
      <point x="121" y="0" type="curve" smooth="yes"/>
      <point x="151" y="0" type="line" smooth="yes"/>
      <point x="160" y="0"/>
      <point x="167" y="4"/>
      <point x="168" y="14" type="curve" smooth="yes"/>
      <point x="180" y="87" type="line" smooth="yes"/>
      <point x="180" y="88"/>
      <point x="180" y="90"/>
      <point x="180" y="91" type="curve" smooth="yes"/>
      <point x="180" y="97"/>
      <point x="176" y="102"/>
      <point x="168" y="102" type="curve" smooth="yes"/>
      <point x="137" y="102" type="line" smooth="yes"/>
      <point x="127" y="102"/>
      <point x="122" y="97"/>
      <point x="120" y="87" type="curve" smooth="yes"/>
    </contour>
    <contour>
      <point x="381" y="14" type="line" smooth="yes"/>
      <point x="380" y="13"/>
      <point x="380" y="13"/>
      <point x="380" y="12" type="curve" smooth="yes"/>
      <point x="380" y="5"/>
      <point x="385" y="0"/>
      <point x="393" y="0" type="curve" smooth="yes"/>
      <point x="423" y="0" type="line" smooth="yes"/>
      <point x="432" y="0"/>
      <point x="439" y="4"/>
      <point x="440" y="14" type="curve" smooth="yes"/>
      <point x="452" y="87" type="line" smooth="yes"/>
      <point x="452" y="88"/>
      <point x="452" y="90"/>
      <point x="452" y="91" type="curve" smooth="yes"/>
      <point x="452" y="97"/>
      <point x="448" y="102"/>
      <point x="440" y="102" type="curve" smooth="yes"/>
      <point x="409" y="102" type="line" smooth="yes"/>
      <point x="399" y="102"/>
      <point x="394" y="97"/>
      <point x="392" y="87" type="curve" smooth="yes"/>
    </contour>
    <contour>
      <point x="653" y="14" type="line" smooth="yes"/>
      <point x="652" y="13"/>
      <point x="652" y="13"/>
      <point x="652" y="12" type="curve" smooth="yes"/>
      <point x="652" y="5"/>
      <point x="657" y="0"/>
      <point x="665" y="0" type="curve" smooth="yes"/>
      <point x="695" y="0" type="line" smooth="yes"/>
      <point x="704" y="0"/>
      <point x="711" y="4"/>
      <point x="712" y="14" type="curve" smooth="yes"/>
      <point x="724" y="87" type="line" smooth="yes"/>
      <point x="724" y="88"/>
      <point x="724" y="90"/>
      <point x="724" y="91" type="curve" smooth="yes"/>
      <point x="724" y="97"/>
      <point x="720" y="102"/>
      <point x="712" y="102" type="curve" smooth="yes"/>
      <point x="681" y="102" type="line" smooth="yes"/>
      <point x="671" y="102"/>
      <point x="666" y="97"/>
      <point x="664" y="87" type="curve" smooth="yes"/>
    </contour>
  </outline>
</glyph>
<glyph name="perthousand" format="1">
  <advance width="1379"/>
  <unicode hex="2030"/>
  <note>
    GF Latin Plus glyph
  </note>
  <outline>
    <contour>
      <point x="1028" y="136" type="curve" smooth="yes"/>
      <point x="1046" y="253" type="line" smooth="yes"/>
      <point x="1058" y="331"/>
      <point x="1092" y="348"/>
      <point x="1160" y="348" type="curve" smooth="yes"/>
      <point x="1251" y="348" type="line" smooth="yes"/>
      <point x="1312" y="348"/>
      <point x="1335" y="330"/>
      <point x="1335" y="285" type="curve" smooth="yes"/>
      <point x="1335" y="276"/>
      <point x="1333" y="265"/>
      <point x="1331" y="253" type="curve" smooth="yes"/>
      <point x="1313" y="136" type="line" smooth="yes"/>
      <point x="1301" y="60"/>
      <point x="1268" y="41"/>
      <point x="1200" y="41" type="curve" smooth="yes"/>
      <point x="1109" y="41" type="line" smooth="yes"/>
      <point x="1051" y="41"/>
      <point x="1025" y="56"/>
      <point x="1025" y="104" type="curve" smooth="yes"/>
      <point x="1025" y="114"/>
      <point x="1026" y="125"/>
    </contour>
    <contour>
      <point x="989" y="130" type="line" smooth="yes"/>
      <point x="987" y="116"/>
      <point x="986" y="103"/>
      <point x="986" y="91" type="curve" smooth="yes"/>
      <point x="986" y="33"/>
      <point x="1016" y="3"/>
      <point x="1097" y="3" type="curve" smooth="yes"/>
      <point x="1198" y="3" type="line" smooth="yes"/>
      <point x="1299" y="3"/>
      <point x="1337" y="45"/>
      <point x="1350" y="130" type="curve" smooth="yes"/>
      <point x="1370" y="259" type="line" smooth="yes"/>
      <point x="1373" y="273"/>
      <point x="1374" y="286"/>
      <point x="1374" y="298" type="curve" smooth="yes"/>
      <point x="1374" y="356"/>
      <point x="1343" y="386"/>
      <point x="1261" y="386" type="curve" smooth="yes"/>
      <point x="1160" y="386" type="line" smooth="yes"/>
      <point x="1059" y="386"/>
      <point x="1023" y="344"/>
      <point x="1009" y="259" type="curve" smooth="yes"/>
    </contour>
    <contour>
      <point x="606" y="136" type="curve" smooth="yes"/>
      <point x="624" y="253" type="line" smooth="yes"/>
      <point x="636" y="331"/>
      <point x="670" y="348"/>
      <point x="738" y="348" type="curve" smooth="yes"/>
      <point x="829" y="348" type="line" smooth="yes"/>
      <point x="890" y="348"/>
      <point x="913" y="330"/>
      <point x="913" y="285" type="curve" smooth="yes"/>
      <point x="913" y="276"/>
      <point x="911" y="265"/>
      <point x="909" y="253" type="curve" smooth="yes"/>
      <point x="891" y="136" type="line" smooth="yes"/>
      <point x="879" y="60"/>
      <point x="846" y="41"/>
      <point x="778" y="41" type="curve" smooth="yes"/>
      <point x="687" y="41" type="line" smooth="yes"/>
      <point x="629" y="41"/>
      <point x="603" y="56"/>
      <point x="603" y="104" type="curve" smooth="yes"/>
      <point x="603" y="114"/>
      <point x="604" y="125"/>
    </contour>
    <contour>
      <point x="567" y="130" type="line" smooth="yes"/>
      <point x="565" y="116"/>
      <point x="564" y="103"/>
      <point x="564" y="91" type="curve" smooth="yes"/>
      <point x="564" y="33"/>
      <point x="594" y="3"/>
      <point x="675" y="3" type="curve" smooth="yes"/>
      <point x="776" y="3" type="line" smooth="yes"/>
      <point x="877" y="3"/>
      <point x="915" y="45"/>
      <point x="928" y="130" type="curve" smooth="yes"/>
      <point x="948" y="259" type="line" smooth="yes"/>
      <point x="951" y="273"/>
      <point x="952" y="286"/>
      <point x="952" y="298" type="curve" smooth="yes"/>
      <point x="952" y="356"/>
      <point x="921" y="386"/>
      <point x="839" y="386" type="curve" smooth="yes"/>
      <point x="738" y="386" type="line" smooth="yes"/>
      <point x="637" y="386"/>
      <point x="601" y="344"/>
      <point x="587" y="259" type="curve" smooth="yes"/>
    </contour>
    <contour>
      <point x="232" y="0" type="line"/>
      <point x="275" y="0" type="line"/>
      <point x="831" y="732" type="line"/>
      <point x="789" y="732" type="line"/>
    </contour>
    <contour>
      <point x="164" y="482" type="curve" smooth="yes"/>
      <point x="183" y="599" type="line" smooth="yes"/>
      <point x="195" y="677"/>
      <point x="228" y="694"/>
      <point x="296" y="694" type="curve" smooth="yes"/>
      <point x="387" y="694" type="line" smooth="yes"/>
      <point x="448" y="694"/>
      <point x="471" y="676"/>
      <point x="471" y="631" type="curve" smooth="yes"/>
      <point x="471" y="622"/>
      <point x="470" y="611"/>
      <point x="468" y="599" type="curve" smooth="yes"/>
      <point x="450" y="482" type="line" smooth="yes"/>
      <point x="438" y="406"/>
      <point x="405" y="387"/>
      <point x="337" y="387" type="curve" smooth="yes"/>
      <point x="246" y="387" type="line" smooth="yes"/>
      <point x="188" y="387"/>
      <point x="162" y="402"/>
      <point x="162" y="450" type="curve" smooth="yes"/>
      <point x="162" y="460"/>
      <point x="163" y="471"/>
    </contour>
    <contour>
      <point x="126" y="476" type="line" smooth="yes"/>
      <point x="124" y="462"/>
      <point x="123" y="449"/>
      <point x="123" y="437" type="curve" smooth="yes"/>
      <point x="123" y="379"/>
      <point x="153" y="349"/>
      <point x="234" y="349" type="curve" smooth="yes"/>
      <point x="335" y="349" type="line" smooth="yes"/>
      <point x="436" y="349"/>
      <point x="474" y="391"/>
      <point x="487" y="476" type="curve" smooth="yes"/>
      <point x="507" y="605" type="line" smooth="yes"/>
      <point x="509" y="619"/>
      <point x="511" y="632"/>
      <point x="511" y="644" type="curve" smooth="yes"/>
      <point x="511" y="702"/>
      <point x="480" y="732"/>
      <point x="398" y="732" type="curve" smooth="yes"/>
      <point x="297" y="732" type="line" smooth="yes"/>
      <point x="196" y="732"/>
      <point x="160" y="690"/>
      <point x="146" y="605" type="curve" smooth="yes"/>
    </contour>
  </outline>
</glyph>
<glyph name="minute" format="1">
  <advance width="143"/>
  <unicode hex="2032"/>
  <outline>
    <contour>
      <point x="107" y="467" type="line"/>
      <point x="147" y="467" type="line"/>
      <point x="236" y="763" type="line"/>
      <point x="181" y="763" type="line"/>
    </contour>
  </outline>
</glyph>
<glyph name="foursuperior" format="1">
  <advance width="420"/>
  <unicode hex="2074"/>
  <outline>
    <contour>
      <point x="114" y="509" type="line"/>
      <point x="121" y="481" type="line"/>
      <point x="358" y="481" type="line"/>
      <point x="337" y="356" type="line"/>
      <point x="385" y="356" type="line"/>
      <point x="406" y="481" type="line"/>
      <point x="477" y="490" type="line"/>
      <point x="482" y="523" type="line"/>
      <point x="412" y="523" type="line"/>
      <point x="440" y="701" type="line"/>
      <point x="402" y="701" type="line"/>
      <point x="385" y="657" type="line"/>
      <point x="363" y="523" type="line"/>
      <point x="174" y="523" type="line"/>
      <point x="409" y="842" type="line"/>
      <point x="357" y="842" type="line"/>
    </contour>
  </outline>
</glyph>
<glyph name="sixsuperior" format="1">
  <advance width="420"/>
  <unicode hex="2076"/>
  <outline>
    <contour>
      <point x="196" y="587" type="curve"/>
      <point x="325" y="587" type="line" smooth="yes"/>
      <point x="382" y="587"/>
      <point x="418" y="578"/>
      <point x="418" y="536" type="curve" smooth="yes"/>
      <point x="418" y="532"/>
      <point x="418" y="526"/>
      <point x="417" y="519" type="curve" smooth="yes"/>
      <point x="408" y="465" type="line" smooth="yes"/>
      <point x="400" y="409"/>
      <point x="362" y="396"/>
      <point x="322" y="396" type="curve" smooth="yes"/>
      <point x="259" y="396" type="line" smooth="yes"/>
      <point x="215" y="396"/>
      <point x="188" y="419"/>
      <point x="188" y="495" type="curve" smooth="yes"/>
      <point x="188" y="520"/>
      <point x="191" y="550"/>
    </contour>
    <contour>
      <point x="140" y="490" type="curve" smooth="yes"/>
      <point x="141" y="383"/>
      <point x="182" y="353"/>
      <point x="247" y="353" type="curve" smooth="yes"/>
      <point x="324" y="353" type="line" smooth="yes"/>
      <point x="387" y="353"/>
      <point x="443" y="381"/>
      <point x="455" y="458" type="curve" smooth="yes"/>
      <point x="466" y="527" type="line" smooth="yes"/>
      <point x="467" y="535"/>
      <point x="468" y="543"/>
      <point x="468" y="550" type="curve" smooth="yes"/>
      <point x="468" y="608"/>
      <point x="421" y="628"/>
      <point x="343" y="628" type="curve" smooth="yes"/>
      <point x="306" y="628"/>
      <point x="244" y="626"/>
      <point x="202" y="621" type="curve"/>
      <point x="223" y="744"/>
      <point x="288" y="803"/>
      <point x="366" y="803" type="curve" smooth="yes"/>
      <point x="480" y="803" type="line"/>
      <point x="486" y="840" type="line"/>
      <point x="451" y="843"/>
      <point x="401" y="846"/>
      <point x="364" y="846" type="curve" smooth="yes"/>
      <point x="222" y="846"/>
      <point x="139" y="697"/>
    </contour>
  </outline>
</glyph>
<glyph name="sevensuperior" format="1">
  <advance width="420"/>
  <unicode hex="2077"/>
  <outline>
    <contour>
      <point x="176" y="794" type="line"/>
      <point x="431" y="794" type="line"/>
      <point x="185" y="355" type="line"/>
      <point x="238" y="355" type="line"/>
      <point x="495" y="817" type="line"/>
      <point x="483" y="842" type="line"/>
      <point x="183" y="842" type="line"/>
    </contour>
  </outline>
</glyph>
<glyph name="ninesuperior" format="1">
  <advance width="420"/>
  <unicode hex="2079"/>
  <outline>
    <contour>
      <point x="426" y="611" type="curve"/>
      <point x="298" y="611" type="line" smooth="yes"/>
      <point x="240" y="611"/>
      <point x="204" y="620"/>
      <point x="204" y="661" type="curve" smooth="yes"/>
      <point x="204" y="666"/>
      <point x="205" y="672"/>
      <point x="206" y="679" type="curve" smooth="yes"/>
      <point x="214" y="734" type="line" smooth="yes"/>
      <point x="223" y="789"/>
      <point x="260" y="801"/>
      <point x="301" y="801" type="curve" smooth="yes"/>
      <point x="363" y="801" type="line" smooth="yes"/>
      <point x="407" y="801"/>
      <point x="435" y="779"/>
      <point x="435" y="703" type="curve" smooth="yes"/>
      <point x="435" y="678"/>
      <point x="432" y="648"/>
    </contour>
    <contour>
      <point x="483" y="708" type="curve" smooth="yes"/>
      <point x="482" y="814"/>
      <point x="441" y="844"/>
      <point x="376" y="844" type="curve" smooth="yes"/>
      <point x="298" y="844" type="line" smooth="yes"/>
      <point x="236" y="844"/>
      <point x="180" y="817"/>
      <point x="167" y="739" type="curve" smooth="yes"/>
      <point x="157" y="671" type="line" smooth="yes"/>
      <point x="155" y="663"/>
      <point x="154" y="655"/>
      <point x="155" y="648" type="curve" smooth="yes"/>
      <point x="155" y="589"/>
      <point x="202" y="570"/>
      <point x="280" y="570" type="curve" smooth="yes"/>
      <point x="317" y="570"/>
      <point x="379" y="571"/>
      <point x="420" y="576" type="curve"/>
      <point x="396" y="454"/>
      <point x="335" y="395"/>
      <point x="256" y="395" type="curve" smooth="yes"/>
      <point x="143" y="395" type="line"/>
      <point x="136" y="359" type="line"/>
      <point x="172" y="355"/>
      <point x="221" y="352"/>
      <point x="259" y="352" type="curve" smooth="yes"/>
      <point x="400" y="352"/>
      <point x="483" y="502"/>
    </contour>
  </outline>
</glyph>
<glyph name="n.superior" format="1">
  <advance width="429"/>
  <unicode hex="207F"/>
  <note>
    GF Latin Plus glyph
  </note>
  <outline>
    <contour>
      <point x="97" y="280" type="line"/>
      <point x="147" y="280" type="line"/>
      <point x="196" y="590" type="line"/>
      <point x="245" y="617"/>
      <point x="283" y="632"/>
      <point x="338" y="632" type="curve" smooth="yes"/>
      <point x="396" y="632"/>
      <point x="414" y="604"/>
      <point x="414" y="566" type="curve" smooth="yes"/>
      <point x="414" y="557"/>
      <point x="413" y="548"/>
      <point x="408" y="513" type="curve" smooth="yes"/>
      <point x="371" y="280" type="line"/>
      <point x="421" y="280" type="line"/>
      <point x="458" y="515" type="line" smooth="yes"/>
      <point x="465" y="559"/>
      <point x="465" y="574"/>
      <point x="465" y="585" type="curve" smooth="yes"/>
      <point x="465" y="637"/>
      <point x="437" y="678"/>
      <point x="362" y="678" type="curve" smooth="yes"/>
      <point x="302" y="678"/>
      <point x="246" y="656"/>
      <point x="202" y="628" type="curve"/>
      <point x="199" y="672" type="line"/>
      <point x="159" y="672" type="line"/>
    </contour>
    <contour>
      <point x="332" y="757" type="move" name="top"/>
    </contour>
    <contour>
      <point x="240" y="169" type="move" name="bottom"/>
    </contour>
  </outline>
</glyph>
<glyph name="lira" format="1">
  <advance width="609"/>
  <unicode hex="20A4"/>
  <note>
    GF Latin Plus glyph
  </note>
  <outline>
    <contour>
      <point x="65" y="0" type="line"/>
      <point x="539" y="0" type="line"/>
      <point x="547" y="52" type="line"/>
      <point x="245" y="52" type="line"/>
      <point x="275" y="240" type="line"/>
      <point x="499" y="243" type="line"/>
      <point x="504" y="273" type="line"/>
      <point x="281" y="277" type="line"/>
      <point x="297" y="377" type="line"/>
      <point x="521" y="380" type="line"/>
      <point x="526" y="410" type="line"/>
      <point x="302" y="414" type="line"/>
      <point x="321" y="529" type="line" smooth="yes"/>
      <point x="341" y="658"/>
      <point x="395" y="683"/>
      <point x="493" y="683" type="curve" smooth="yes"/>
      <point x="633" y="683" type="line"/>
      <point x="640" y="727" type="line"/>
      <point x="606" y="730"/>
      <point x="551" y="735"/>
      <point x="498" y="735" type="curve" smooth="yes"/>
      <point x="375" y="735"/>
      <point x="289" y="696"/>
      <point x="263" y="528" type="curve" smooth="yes"/>
      <point x="244" y="414" type="line"/>
      <point x="130" y="410" type="line"/>
      <point x="125" y="380" type="line"/>
      <point x="239" y="377" type="line"/>
      <point x="223" y="279" type="line"/>
      <point x="109" y="275" type="line"/>
      <point x="104" y="245" type="line"/>
      <point x="217" y="242" type="line"/>
      <point x="187" y="52" type="line"/>
      <point x="72" y="43" type="line"/>
    </contour>
  </outline>
</glyph>
<glyph name="naira" format="1">
  <advance width="609"/>
  <unicode hex="20A6"/>
  <note>
    GF Latin Plus glyph
  </note>
  <outline>
    <contour>
      <point x="99" y="0" type="line"/>
      <point x="149" y="0" type="line"/>
      <point x="249" y="630" type="line"/>
      <point x="466" y="0" type="line"/>
      <point x="510" y="0" type="line"/>
      <point x="628" y="743" type="line"/>
      <point x="578" y="743" type="line"/>
      <point x="478" y="113" type="line"/>
      <point x="261" y="743" type="line"/>
      <point x="217" y="743" type="line"/>
    </contour>
    <contour>
      <point x="103" y="465" type="line"/>
      <point x="195" y="465" type="line"/>
      <point x="201" y="503" type="line"/>
      <point x="109" y="503" type="line"/>
    </contour>
    <contour>
      <point x="331" y="465" type="line"/>
      <point x="652" y="465" type="line"/>
      <point x="658" y="503" type="line"/>
      <point x="319" y="503" type="line"/>
    </contour>
    <contour>
      <point x="68" y="240" type="line"/>
      <point x="414" y="240" type="line"/>
      <point x="400" y="278" type="line"/>
      <point x="74" y="278" type="line"/>
    </contour>
    <contour>
      <point x="529" y="240" type="line"/>
      <point x="617" y="240" type="line"/>
      <point x="623" y="278" type="line"/>
      <point x="535" y="278" type="line"/>
    </contour>
  </outline>
</glyph>
<glyph name="kip" format="1">
  <advance width="609"/>
  <unicode hex="20AD"/>
  <note>
    GF Latin Plus glyph
  </note>
  <outline>
    <contour>
      <point x="80" y="340" type="line"/>
      <point x="601" y="340" type="line"/>
      <point x="610" y="394" type="line"/>
      <point x="89" y="394" type="line"/>
    </contour>
    <contour>
      <point x="97" y="0" type="line"/>
      <point x="155" y="0" type="line"/>
      <point x="209" y="341" type="line"/>
      <point x="343" y="341" type="line"/>
      <point x="502" y="0" type="line"/>
      <point x="564" y="0" type="line"/>
      <point x="394" y="367" type="line"/>
      <point x="679" y="734" type="line"/>
      <point x="617" y="734" type="line"/>
      <point x="353" y="393" type="line"/>
      <point x="218" y="393" type="line"/>
      <point x="272" y="734" type="line"/>
      <point x="214" y="734" type="line"/>
    </contour>
  </outline>
</glyph>
<glyph name="cedi" format="1">
  <advance width="609"/>
  <unicode hex="20B5"/>
  <note>
    GF Latin Plus glyph
  </note>
  <outline>
    <contour>
      <point x="358" y="-104" type="line"/>
      <point x="500" y="793" type="line"/>
      <point x="464" y="793" type="line"/>
      <point x="322" y="-104" type="line"/>
    </contour>
    <contour>
      <point x="113" y="226" type="curve" smooth="yes"/>
      <point x="113" y="40"/>
      <point x="209" y="-6"/>
      <point x="336" y="-6" type="curve" smooth="yes"/>
      <point x="430" y="-6"/>
      <point x="511" y="8"/>
      <point x="559" y="26" type="curve"/>
      <point x="565" y="67" type="line"/>
      <point x="495" y="50"/>
      <point x="445" y="44"/>
      <point x="357" y="44" type="curve" smooth="yes"/>
      <point x="242" y="44"/>
      <point x="167" y="82"/>
      <point x="167" y="228" type="curve" smooth="yes"/>
      <point x="167" y="494"/>
      <point x="294" y="680"/>
      <point x="475" y="680" type="curve" smooth="yes"/>
      <point x="543" y="680"/>
      <point x="608" y="668"/>
      <point x="660" y="657" type="curve"/>
      <point x="666" y="698" type="line"/>
      <point x="634" y="712"/>
      <point x="554" y="732"/>
      <point x="470" y="732" type="curve" smooth="yes"/>
      <point x="269" y="732"/>
      <point x="113" y="533"/>
    </contour>
  </outline>
</glyph>
<glyph name="estimated" format="1">
  <advance width="890"/>
  <unicode hex="212E"/>
  <outline>
    <contour>
      <point x="237" y="353" type="curve" smooth="yes"/>
      <point x="237" y="540" type="line" smooth="yes"/>
      <point x="237" y="572"/>
      <point x="346" y="673"/>
      <point x="492" y="673" type="curve" smooth="yes"/>
      <point x="608" y="673"/>
      <point x="750" y="594"/>
      <point x="750" y="536" type="curve" smooth="yes"/>
      <point x="750" y="350" type="line" smooth="yes"/>
      <point x="750" y="336"/>
      <point x="749" y="340"/>
      <point x="732" y="340" type="curve" smooth="yes"/>
      <point x="249" y="340" type="line" smooth="yes"/>
      <point x="242" y="340"/>
      <point x="237" y="340"/>
    </contour>
    <contour>
      <point x="89" y="327" type="curve" smooth="yes"/>
      <point x="89" y="219"/>
      <point x="126" y="132"/>
      <point x="200" y="62" type="curve" smooth="yes"/>
      <point x="274" y="-8"/>
      <point x="367" y="-41"/>
      <point x="493" y="-41" type="curve" smooth="yes"/>
      <point x="577" y="-41"/>
      <point x="618" y="-32"/>
      <point x="675" y="-10" type="curve" smooth="yes"/>
      <point x="729" y="12"/>
      <point x="775" y="50"/>
      <point x="826" y="105" type="curve"/>
      <point x="751" y="105" type="line"/>
      <point x="693" y="39"/>
      <point x="596" y="-13"/>
      <point x="493" y="-13" type="curve" smooth="yes"/>
      <point x="339" y="-13"/>
      <point x="237" y="80"/>
      <point x="237" y="117" type="curve" smooth="yes"/>
      <point x="237" y="301" type="line" smooth="yes"/>
      <point x="237" y="318"/>
      <point x="243" y="317"/>
      <point x="253" y="317" type="curve" smooth="yes"/>
      <point x="899" y="317" type="line"/>
      <point x="894" y="439"/>
      <point x="852" y="542"/>
      <point x="774" y="604" type="curve" smooth="yes"/>
      <point x="695" y="666"/>
      <point x="613" y="698"/>
      <point x="493" y="698" type="curve" smooth="yes"/>
      <point x="362" y="698"/>
      <point x="275" y="661"/>
      <point x="200" y="591" type="curve" smooth="yes"/>
      <point x="125" y="521"/>
      <point x="89" y="434"/>
    </contour>
  </outline>
</glyph>
<glyph name="partialdiff" format="1">
  <advance width="664"/>
  <unicode hex="2202"/>
  <outline>
    <contour>
      <point x="388" y="393" type="curve" smooth="yes"/>
      <point x="454" y="393"/>
      <point x="540" y="369"/>
      <point x="568" y="352" type="curve"/>
      <point x="557" y="261"/>
      <point x="507" y="48"/>
      <point x="333" y="48" type="curve" smooth="yes"/>
      <point x="245" y="48"/>
      <point x="170" y="101"/>
      <point x="170" y="206" type="curve" smooth="yes"/>
      <point x="170" y="317"/>
      <point x="241" y="393"/>
    </contour>
    <contour>
      <point x="112" y="196" type="curve" smooth="yes"/>
      <point x="112" y="64"/>
      <point x="206" y="-5"/>
      <point x="327" y="-5" type="curve" smooth="yes"/>
      <point x="551" y="-5"/>
      <point x="640" y="266"/>
      <point x="640" y="482" type="curve" smooth="yes"/>
      <point x="640" y="643"/>
      <point x="577" y="740"/>
      <point x="420" y="740" type="curve" smooth="yes"/>
      <point x="335" y="740"/>
      <point x="271" y="715"/>
      <point x="205" y="672" type="curve"/>
      <point x="210" y="631" type="line"/>
      <point x="260" y="660"/>
      <point x="323" y="688"/>
      <point x="400" y="688" type="curve" smooth="yes"/>
      <point x="536" y="688"/>
      <point x="582" y="610"/>
      <point x="582" y="483" type="curve" smooth="yes"/>
      <point x="582" y="455"/>
      <point x="580" y="425"/>
      <point x="577" y="393" type="curve"/>
      <point x="520" y="434"/>
      <point x="437" y="445"/>
      <point x="386" y="445" type="curve" smooth="yes"/>
      <point x="205" y="445"/>
      <point x="112" y="342"/>
    </contour>
  </outline>
</glyph>
<glyph name="emptyset" format="1">
  <advance width="609"/>
  <unicode hex="2205"/>
  <outline>
    <contour>
      <point x="619" y="604" type="line"/>
      <point x="66" y="-39" type="line"/>
      <point x="87" y="-60" type="line"/>
      <point x="639" y="584" type="line"/>
    </contour>
    <contour>
      <point x="182" y="232" type="curve" smooth="yes"/>
      <point x="182" y="300" type="line" smooth="yes"/>
      <point x="182" y="431"/>
      <point x="241" y="486"/>
      <point x="318" y="486" type="curve" smooth="yes"/>
      <point x="387" y="486" type="line" smooth="yes"/>
      <point x="464" y="486"/>
      <point x="523" y="431"/>
      <point x="523" y="300" type="curve" smooth="yes"/>
      <point x="523" y="232" type="line" smooth="yes"/>
      <point x="523" y="100"/>
      <point x="464" y="46"/>
      <point x="387" y="46" type="curve" smooth="yes"/>
      <point x="318" y="46" type="line" smooth="yes"/>
      <point x="241" y="46"/>
      <point x="182" y="100"/>
    </contour>
    <contour>
      <point x="124" y="226" type="line" smooth="yes"/>
      <point x="124" y="100"/>
      <point x="184" y="-6"/>
      <point x="318" y="-6" type="curve" smooth="yes"/>
      <point x="387" y="-6" type="line" smooth="yes"/>
      <point x="521" y="-6"/>
      <point x="581" y="100"/>
      <point x="581" y="226" type="curve" smooth="yes"/>
      <point x="581" y="306" type="line" smooth="yes"/>
      <point x="581" y="432"/>
      <point x="521" y="538"/>
      <point x="387" y="538" type="curve" smooth="yes"/>
      <point x="318" y="538" type="line" smooth="yes"/>
      <point x="184" y="538"/>
      <point x="124" y="432"/>
      <point x="124" y="306" type="curve" smooth="yes"/>
    </contour>
  </outline>
</glyph>
<glyph name="increment" format="1">
  <advance width="669"/>
  <unicode hex="2206"/>
  <outline>
    <contour>
      <point x="122" y="50" type="line"/>
      <point x="448" y="680" type="line"/>
      <point x="563" y="50" type="line"/>
    </contour>
    <contour>
      <point x="39" y="0" type="line"/>
      <point x="631" y="0" type="line"/>
      <point x="494" y="734" type="line"/>
      <point x="419" y="734" type="line"/>
    </contour>
  </outline>
</glyph>
<glyph name="summation" format="1">
  <advance width="510"/>
  <unicode hex="2211"/>
  <outline>
    <contour>
      <point x="5" y="-200" type="line"/>
      <point x="499" y="-200" type="line"/>
      <point x="507" y="-143" type="line"/>
      <point x="91" y="-143" type="line"/>
      <point x="364" y="267" type="line"/>
      <point x="213" y="678" type="line"/>
      <point x="638" y="678" type="line"/>
      <point x="647" y="732" type="line"/>
      <point x="153" y="732" type="line"/>
      <point x="144" y="678" type="line"/>
      <point x="292" y="269" type="line"/>
      <point x="13" y="-143" type="line"/>
    </contour>
  </outline>
</glyph>
<glyph name="bulletoperator" format="1">
  <advance width="609"/>
  <unicode hex="2219"/>
  <note>
    GF Latin Plus glyph
  </note>
  <outline>
    <contour>
      <point x="317" y="335" type="line" smooth="yes"/>
      <point x="317" y="334"/>
      <point x="317" y="332"/>
      <point x="317" y="331" type="curve" smooth="yes"/>
      <point x="317" y="319"/>
      <point x="325" y="312"/>
      <point x="338" y="312" type="curve" smooth="yes"/>
      <point x="370" y="312" type="line" smooth="yes"/>
      <point x="384" y="312"/>
      <point x="395" y="317"/>
      <point x="398" y="335" type="curve" smooth="yes"/>
      <point x="404" y="375" type="line" smooth="yes"/>
      <point x="405" y="377"/>
      <point x="405" y="380"/>
      <point x="405" y="382" type="curve" smooth="yes"/>
      <point x="405" y="394"/>
      <point x="398" y="400"/>
      <point x="383" y="400" type="curve" smooth="yes"/>
      <point x="351" y="400" type="line" smooth="yes"/>
      <point x="335" y="400"/>
      <point x="326" y="390"/>
      <point x="323" y="375" type="curve" smooth="yes"/>
    </contour>
  </outline>
</glyph>
<glyph name="infinity" format="1">
  <advance width="684"/>
  <unicode hex="221E"/>
  <outline>
    <contour>
      <point x="425" y="342" type="curve"/>
      <point x="470" y="399"/>
      <point x="554" y="470"/>
      <point x="609" y="470" type="curve" smooth="yes"/>
      <point x="702" y="470"/>
      <point x="707" y="418"/>
      <point x="695" y="341" type="curve" smooth="yes"/>
      <point x="684" y="267"/>
      <point x="659" y="213"/>
      <point x="568" y="213" type="curve" smooth="yes"/>
      <point x="503" y="213"/>
      <point x="452" y="277"/>
    </contour>
    <contour>
      <point x="101" y="343" type="curve" smooth="yes"/>
      <point x="115" y="435"/>
      <point x="142" y="470"/>
      <point x="228" y="470" type="curve" smooth="yes"/>
      <point x="288" y="470"/>
      <point x="338" y="404"/>
      <point x="370" y="343" type="curve"/>
      <point x="338" y="299"/>
      <point x="264" y="213"/>
      <point x="188" y="213" type="curve" smooth="yes"/>
      <point x="107" y="213"/>
      <point x="87" y="255"/>
    </contour>
    <contour>
      <point x="54" y="348" type="curve" smooth="yes"/>
      <point x="39" y="256"/>
      <point x="53" y="169"/>
      <point x="180" y="169" type="curve" smooth="yes"/>
      <point x="267" y="169"/>
      <point x="341" y="237"/>
      <point x="391" y="309" type="curve"/>
      <point x="419" y="245"/>
      <point x="483" y="168"/>
      <point x="567" y="168" type="curve" smooth="yes"/>
      <point x="694" y="168"/>
      <point x="727" y="240"/>
      <point x="742" y="332" type="curve" smooth="yes"/>
      <point x="754" y="411"/>
      <point x="757" y="514"/>
      <point x="619" y="514" type="curve" smooth="yes"/>
      <point x="542" y="514"/>
      <point x="447" y="434"/>
      <point x="403" y="377" type="curve"/>
      <point x="373" y="436"/>
      <point x="310" y="514"/>
      <point x="229" y="514" type="curve" smooth="yes"/>
      <point x="90" y="514"/>
      <point x="68" y="435"/>
    </contour>
  </outline>
</glyph>
<glyph name="integral" format="1">
  <advance width="396"/>
  <unicode hex="222B"/>
  <outline>
    <contour>
      <point x="-10" y="-193" type="line"/>
      <point x="13" y="-199"/>
      <point x="52" y="-204"/>
      <point x="90" y="-204" type="curve" smooth="yes"/>
      <point x="195" y="-204"/>
      <point x="232" y="-124"/>
      <point x="250" y="-8" type="curve" smooth="yes"/>
      <point x="341" y="564" type="line" smooth="yes"/>
      <point x="353" y="638"/>
      <point x="382" y="752"/>
      <point x="465" y="752" type="curve" smooth="yes"/>
      <point x="545" y="752" type="line"/>
      <point x="550" y="789" type="line"/>
      <point x="533" y="793"/>
      <point x="508" y="800"/>
      <point x="452" y="800" type="curve" smooth="yes"/>
      <point x="341" y="800"/>
      <point x="301" y="677"/>
      <point x="286" y="580" type="curve" smooth="yes"/>
      <point x="196" y="11" type="line" smooth="yes"/>
      <point x="177" y="-104"/>
      <point x="147" y="-156"/>
      <point x="80" y="-156" type="curve" smooth="yes"/>
      <point x="-5" y="-156" type="line"/>
    </contour>
  </outline>
</glyph>
<glyph name="fi" format="1">
  <advance width="571"/>
  <unicode hex="FB01"/>
  <note>
    GF Latin Plus glyph
  </note>
  <outline>
    <contour>
      <point x="104" y="483" type="line"/>
      <point x="188" y="483" type="line"/>
      <point x="112" y="0" type="line"/>
      <point x="170" y="0" type="line"/>
      <point x="246" y="483" type="line"/>
      <point x="547" y="483" type="line"/>
      <point x="555" y="533" type="line"/>
      <point x="254" y="533" type="line"/>
      <point x="266" y="605" type="line" smooth="yes"/>
      <point x="277" y="676"/>
      <point x="294" y="721"/>
      <point x="370" y="721" type="curve" smooth="yes"/>
      <point x="475" y="721" type="line"/>
      <point x="482" y="763" type="line"/>
      <point x="449" y="766"/>
      <point x="404" y="769"/>
      <point x="365" y="769" type="curve" smooth="yes"/>
      <point x="240" y="769"/>
      <point x="221" y="683"/>
      <point x="210" y="616" type="curve" smooth="yes"/>
      <point x="196" y="533" type="line"/>
      <point x="111" y="520" type="line"/>
    </contour>
    <component base="i" xOffset="368"/>
  </outline>
</glyph>
<glyph name="f_f_l" format="1">
  <advance width="1020"/>
  <unicode hex="FB04"/>
  <outline>
    <contour>
      <point x="104" y="483" type="line"/>
      <point x="188" y="483" type="line"/>
      <point x="112" y="0" type="line"/>
      <point x="170" y="0" type="line"/>
      <point x="246" y="483" type="line"/>
      <point x="588" y="483" type="line"/>
      <point x="596" y="533" type="line"/>
      <point x="254" y="533" type="line"/>
      <point x="266" y="605" type="line" smooth="yes"/>
      <point x="277" y="676"/>
      <point x="294" y="721"/>
      <point x="370" y="721" type="curve" smooth="yes"/>
      <point x="475" y="721" type="line"/>
      <point x="482" y="763" type="line"/>
      <point x="449" y="766"/>
      <point x="404" y="769"/>
      <point x="365" y="769" type="curve" smooth="yes"/>
      <point x="240" y="769"/>
      <point x="221" y="683"/>
      <point x="210" y="616" type="curve" smooth="yes"/>
      <point x="196" y="533" type="line"/>
      <point x="111" y="520" type="line"/>
    </contour>
    <component base="fl" xOffset="368"/>
  </outline>
</glyph>
<glyph name="s_t" format="1">
  <advance width="840"/>
  <unicode hex="FB06"/>
  <outline>
    <contour>
      <point x="63" y="5" type="line"/>
      <point x="100" y="-2"/>
      <point x="220" y="-6"/>
      <point x="275" y="-6" type="curve" smooth="yes"/>
      <point x="383" y="-6"/>
      <point x="455" y="26"/>
      <point x="469" y="113" type="curve" smooth="yes"/>
      <point x="477" y="162" type="line" smooth="yes"/>
      <point x="478" y="172"/>
      <point x="479" y="181"/>
      <point x="479" y="190" type="curve" smooth="yes"/>
      <point x="479" y="255"/>
      <point x="429" y="290"/>
      <point x="357" y="290" type="curve" smooth="yes"/>
      <point x="252" y="290" type="line" smooth="yes"/>
      <point x="189" y="290"/>
      <point x="163" y="302"/>
      <point x="163" y="336" type="curve" smooth="yes"/>
      <point x="163" y="344"/>
      <point x="164" y="354"/>
      <point x="167" y="371" type="curve" smooth="yes"/>
      <point x="174" y="408" type="line" smooth="yes"/>
      <point x="184" y="465"/>
      <point x="220" y="492"/>
      <point x="307" y="492" type="curve" smooth="yes"/>
      <point x="684" y="492" type="line"/>
      <point x="671" y="529" type="line"/>
      <point x="586" y="536"/>
      <point x="415" y="539"/>
      <point x="318" y="539" type="curve" smooth="yes"/>
      <point x="185" y="539"/>
      <point x="134" y="488"/>
      <point x="120" y="411" type="curve" smooth="yes"/>
      <point x="113" y="367" type="line" smooth="yes"/>
      <point x="110" y="352"/>
      <point x="109" y="338"/>
      <point x="109" y="326" type="curve" smooth="yes"/>
      <point x="109" y="266"/>
      <point x="154" y="240"/>
      <point x="242" y="240" type="curve" smooth="yes"/>
      <point x="346" y="240" type="line" smooth="yes"/>
      <point x="398" y="240"/>
      <point x="423" y="221"/>
      <point x="423" y="179" type="curve" smooth="yes"/>
      <point x="423" y="174"/>
      <point x="423" y="169"/>
      <point x="422" y="163" type="curve" smooth="yes"/>
      <point x="415" y="122" type="line" smooth="yes"/>
      <point x="405" y="60"/>
      <point x="358" y="40"/>
      <point x="287" y="40" type="curve" smooth="yes"/>
      <point x="69" y="40" type="line"/>
    </contour>
    <contour>
      <point x="663" y="496" type="line"/>
      <point x="612" y="195" type="line" smooth="yes"/>
      <point x="607" y="167"/>
      <point x="603" y="139"/>
      <point x="603" y="111" type="curve" smooth="yes"/>
      <point x="603" y="40"/>
      <point x="645" y="0"/>
      <point x="729" y="0" type="curve" smooth="yes"/>
      <point x="792" y="0" type="line"/>
      <point x="799" y="42" type="line"/>
      <point x="735" y="48" type="line" smooth="yes"/>
      <point x="685" y="52"/>
      <point x="661" y="76"/>
      <point x="661" y="122" type="curve" smooth="yes"/>
      <point x="661" y="145"/>
      <point x="666" y="174"/>
      <point x="670" y="195" type="curve" smooth="yes"/>
      <point x="716" y="484" type="line"/>
      <point x="877" y="484" type="line"/>
      <point x="885" y="533" type="line"/>
      <point x="723" y="533" type="line"/>
      <point x="747" y="682" type="line"/>
      <point x="703" y="682" type="line"/>
      <point x="665" y="523" type="line"/>
    </contour>
  </outline>
</glyph>
<glyph name="B.smcp" format="1">
  <advance width="516"/>
  <note>
    GF Latin Plus glyph
  </note>
  <outline>
    <contour>
      <point x="177" y="312" type="line"/>
      <point x="208" y="512" type="line"/>
      <point x="353" y="512" type="line" smooth="yes"/>
      <point x="416" y="512"/>
      <point x="451" y="492"/>
      <point x="451" y="441" type="curve" smooth="yes"/>
      <point x="451" y="430"/>
      <point x="450" y="419"/>
      <point x="448" y="406" type="curve" smooth="yes"/>
      <point x="435" y="345"/>
      <point x="398" y="312"/>
      <point x="335" y="312" type="curve" smooth="yes"/>
    </contour>
    <contour>
      <point x="135" y="48" type="line"/>
      <point x="170" y="270" type="line"/>
      <point x="330" y="270" type="line" smooth="yes"/>
      <point x="388" y="270"/>
      <point x="428" y="237"/>
      <point x="429" y="183" type="curve" smooth="yes"/>
      <point x="429" y="175"/>
      <point x="428" y="163"/>
      <point x="425" y="150" type="curve" smooth="yes"/>
      <point x="411" y="89"/>
      <point x="380" y="48"/>
      <point x="294" y="48" type="curve" smooth="yes"/>
    </contour>
    <contour>
      <point x="71" y="0" type="line"/>
      <point x="287" y="0" type="line" smooth="yes"/>
      <point x="400" y="0"/>
      <point x="460" y="46"/>
      <point x="478" y="136" type="curve" smooth="yes"/>
      <point x="482" y="155"/>
      <point x="482" y="169"/>
      <point x="482" y="179" type="curve" smooth="yes"/>
      <point x="482" y="250"/>
      <point x="434" y="283"/>
      <point x="395" y="293" type="curve"/>
      <point x="449" y="305"/>
      <point x="493" y="347"/>
      <point x="503" y="415" type="curve" smooth="yes"/>
      <point x="506" y="428"/>
      <point x="506" y="440"/>
      <point x="506" y="452" type="curve" smooth="yes"/>
      <point x="506" y="519"/>
      <point x="466" y="560"/>
      <point x="364" y="560" type="curve" smooth="yes"/>
      <point x="160" y="560" type="line"/>
    </contour>
    <contour>
      <point x="339" y="650" type="move" name="top"/>
    </contour>
  </outline>
</glyph>
<glyph name="C.smcp" format="1">
  <advance width="500"/>
  <note>
    GF Latin Plus glyph
  </note>
  <outline>
    <contour>
      <point x="108" y="291" type="curve" smooth="yes"/>
      <point x="102" y="254"/>
      <point x="96" y="208"/>
      <point x="96" y="170" type="curve" smooth="yes"/>
      <point x="97" y="57"/>
      <point x="148" y="-5"/>
      <point x="266" y="-5" type="curve" smooth="yes"/>
      <point x="323" y="-5"/>
      <point x="387" y="1"/>
      <point x="440" y="13" type="curve"/>
      <point x="446" y="53" type="line"/>
      <point x="402" y="47"/>
      <point x="360" y="43"/>
      <point x="279" y="43" type="curve" smooth="yes"/>
      <point x="188" y="43"/>
      <point x="154" y="80"/>
      <point x="153" y="171" type="curve" smooth="yes"/>
      <point x="153" y="201"/>
      <point x="157" y="243"/>
      <point x="163" y="279" type="curve" smooth="yes"/>
      <point x="192" y="445"/>
      <point x="243" y="517"/>
      <point x="352" y="517" type="curve" smooth="yes"/>
      <point x="413" y="517"/>
      <point x="466" y="511"/>
      <point x="517" y="502" type="curve"/>
      <point x="525" y="542" type="line"/>
      <point x="483" y="552"/>
      <point x="427" y="565"/>
      <point x="345" y="565" type="curve" smooth="yes"/>
      <point x="201" y="565"/>
      <point x="134" y="467"/>
    </contour>
    <contour>
      <point x="368" y="650" type="move" name="top"/>
    </contour>
    <contour>
      <point x="250" y="-150" type="move" name="bottom"/>
    </contour>
  </outline>
</glyph>
<glyph name="E.smcp" format="1">
  <advance width="489"/>
  <note>
    GF Latin Plus glyph
  </note>
  <outline>
    <contour>
      <point x="88" y="107" type="line" smooth="yes"/>
      <point x="73" y="13"/>
      <point x="139" y="-5"/>
      <point x="194" y="-5" type="curve" smooth="yes"/>
      <point x="266" y="-5"/>
      <point x="378" y="-2"/>
      <point x="430" y="2" type="curve"/>
      <point x="436" y="44" type="line"/>
      <point x="213" y="44" type="line" smooth="yes"/>
      <point x="167" y="44"/>
      <point x="137" y="57"/>
      <point x="146" y="115" type="curve" smooth="yes"/>
      <point x="167" y="254" type="line"/>
      <point x="434" y="257" type="line"/>
      <point x="441" y="297" type="line"/>
      <point x="175" y="303" type="line"/>
      <point x="196" y="439" type="line" smooth="yes"/>
      <point x="205" y="492"/>
      <point x="235" y="511"/>
      <point x="280" y="511" type="curve" smooth="yes"/>
      <point x="510" y="511" type="line"/>
      <point x="517" y="553" type="line"/>
      <point x="494" y="555"/>
      <point x="296" y="560"/>
      <point x="275" y="560" type="curve" smooth="yes"/>
      <point x="214" y="561"/>
      <point x="156" y="536"/>
      <point x="142" y="452" type="curve" smooth="yes"/>
    </contour>
    <contour>
      <point x="363" y="650" type="move" name="top"/>
    </contour>
    <contour>
      <point x="420" y="2" type="move" name="ogonek"/>
    </contour>
    <contour>
      <point x="227" y="-150" type="move" name="bottom"/>
    </contour>
  </outline>
</glyph>
<glyph name="Eng.smcp" format="1">
  <advance width="561"/>
  <note>
    GF Latin Plus glyph
  </note>
  <outline>
    <contour>
      <point x="232" y="-168" type="line"/>
      <point x="253" y="-177"/>
      <point x="289" y="-185"/>
      <point x="320" y="-185" type="curve" smooth="yes"/>
      <point x="414" y="-185"/>
      <point x="469" y="-152"/>
      <point x="483" y="-59" type="curve" smooth="yes"/>
      <point x="495" y="15" type="line"/>
      <point x="439" y="17" type="line"/>
      <point x="428" y="-53" type="line" smooth="yes"/>
      <point x="417" y="-121"/>
      <point x="375" y="-137"/>
      <point x="319" y="-137" type="curve" smooth="yes"/>
      <point x="301" y="-137"/>
      <point x="255" y="-132"/>
      <point x="238" y="-127" type="curve"/>
    </contour>
    <component base="N.smcp"/>
  </outline>
</glyph>
<glyph name="Eth.smcp" format="1">
  <advance width="566"/>
  <note>
    GF Latin Plus glyph
  </note>
  <outline>
    <contour>
      <point x="57" y="266" type="line"/>
      <point x="321" y="266" type="line"/>
      <point x="328" y="303" type="line"/>
      <point x="64" y="303" type="line"/>
    </contour>
    <component base="D.smcp"/>
  </outline>
</glyph>
<glyph name="Germandbls.smcp" format="1">
  <advance width="559"/>
  <note>
    GF Latin Plus glyph
  </note>
  <outline>
    <contour>
      <point x="345" y="289" type="line"/>
      <point x="549" y="515" type="line"/>
      <point x="555" y="555" type="line"/>
      <point x="488" y="513" type="line"/>
      <point x="295" y="297" type="line"/>
    </contour>
    <contour>
      <point x="289" y="257" type="line"/>
      <point x="389" y="257" type="line" smooth="yes"/>
      <point x="447" y="257"/>
      <point x="471" y="235"/>
      <point x="471" y="194" type="curve" smooth="yes"/>
      <point x="471" y="187"/>
      <point x="471" y="180"/>
      <point x="463" y="131" type="curve" smooth="yes"/>
      <point x="451" y="58"/>
      <point x="391" y="43"/>
      <point x="319" y="43" type="curve" smooth="yes"/>
      <point x="280" y="43"/>
      <point x="234" y="47"/>
      <point x="211" y="50" type="curve"/>
      <point x="204" y="6" type="line"/>
      <point x="229" y="1"/>
      <point x="290" y="-5"/>
      <point x="318" y="-5" type="curve" smooth="yes"/>
      <point x="415" y="-5"/>
      <point x="500" y="20"/>
      <point x="519" y="124" type="curve" smooth="yes"/>
      <point x="527" y="177"/>
      <point x="529" y="189"/>
      <point x="529" y="198" type="curve" smooth="yes"/>
      <point x="528" y="261"/>
      <point x="484" y="297"/>
      <point x="402" y="297" type="curve" smooth="yes"/>
      <point x="295" y="297" type="line"/>
    </contour>
    <contour>
      <point x="76" y="0" type="line"/>
      <point x="132" y="0" type="line"/>
      <point x="202" y="442" type="line" smooth="yes"/>
      <point x="210" y="490"/>
      <point x="240" y="512"/>
      <point x="286" y="512" type="curve" smooth="yes"/>
      <point x="527" y="512" type="line"/>
      <point x="555" y="555" type="line"/>
      <point x="535" y="556"/>
      <point x="325" y="560"/>
      <point x="292" y="560" type="curve" smooth="yes"/>
      <point x="220" y="561"/>
      <point x="160" y="529"/>
      <point x="146" y="442" type="curve" smooth="yes"/>
    </contour>
  </outline>
</glyph>
<glyph name="H.smcp" format="1">
  <advance width="559"/>
  <note>
    GF Latin Plus glyph
  </note>
  <outline>
    <contour>
      <point x="71" y="0" type="line"/>
      <point x="127" y="0" type="line"/>
      <point x="166" y="249" type="line"/>
      <point x="473" y="249" type="line"/>
      <point x="434" y="0" type="line"/>
      <point x="490" y="0" type="line"/>
      <point x="579" y="560" type="line"/>
      <point x="523" y="560" type="line"/>
      <point x="481" y="296" type="line"/>
      <point x="174" y="296" type="line"/>
      <point x="216" y="560" type="line"/>
      <point x="160" y="560" type="line"/>
    </contour>
    <contour>
      <point x="387" y="650" type="move" name="top"/>
    </contour>
    <contour>
      <point x="253" y="-150" type="move" name="bottom"/>
    </contour>
  </outline>
</glyph>
<glyph name="J.smcp" format="1">
  <advance width="303"/>
  <note>
    GF Latin Plus glyph
  </note>
  <outline>
    <contour>
      <point x="37" y="13" type="line"/>
      <point x="56" y="4"/>
      <point x="88" y="-5"/>
      <point x="124" y="-5" type="curve" smooth="yes"/>
      <point x="209" y="-5"/>
      <point x="255" y="36"/>
      <point x="270" y="131" type="curve" smooth="yes"/>
      <point x="338" y="560" type="line"/>
      <point x="282" y="560" type="line"/>
      <point x="216" y="139" type="line" smooth="yes"/>
      <point x="205" y="73"/>
      <point x="171" y="45"/>
      <point x="116" y="44" type="curve" smooth="yes"/>
      <point x="97" y="44"/>
      <point x="63" y="47"/>
      <point x="44" y="54" type="curve"/>
    </contour>
    <contour>
      <point x="330" y="650" type="move" name="top"/>
    </contour>
  </outline>
</glyph>
<glyph name="O.smcp" format="1">
  <advance width="577"/>
  <note>
    GF Latin Plus glyph
  </note>
  <outline>
    <contour>
      <point x="151" y="161" type="curve" smooth="yes"/>
      <point x="150" y="191"/>
      <point x="155" y="231"/>
      <point x="162" y="277" type="curve" smooth="yes"/>
      <point x="194" y="477"/>
      <point x="251" y="517"/>
      <point x="370" y="517" type="curve" smooth="yes"/>
      <point x="460" y="517"/>
      <point x="512" y="496"/>
      <point x="513" y="393" type="curve" smooth="yes"/>
      <point x="513" y="362"/>
      <point x="511" y="322"/>
      <point x="502" y="275" type="curve" smooth="yes"/>
      <point x="471" y="84"/>
      <point x="419" y="43"/>
      <point x="296" y="43" type="curve" smooth="yes"/>
      <point x="197" y="43"/>
      <point x="152" y="63"/>
    </contour>
    <contour>
      <point x="95" y="160" type="curve" smooth="yes"/>
      <point x="96" y="24"/>
      <point x="169" y="-5"/>
      <point x="287" y="-5" type="curve" smooth="yes"/>
      <point x="442" y="-5"/>
      <point x="523" y="40"/>
      <point x="558" y="266" type="curve" smooth="yes"/>
      <point x="567" y="315"/>
      <point x="570" y="359"/>
      <point x="570" y="393" type="curve" smooth="yes"/>
      <point x="569" y="530"/>
      <point x="493" y="565"/>
      <point x="378" y="565" type="curve" smooth="yes"/>
      <point x="219" y="565"/>
      <point x="142" y="511"/>
      <point x="106" y="286" type="curve" smooth="yes"/>
      <point x="98" y="238"/>
      <point x="94" y="194"/>
    </contour>
    <contour>
      <point x="397" y="650" type="move" name="top"/>
    </contour>
    <contour>
      <point x="340" y="0" type="move" name="ogonek"/>
    </contour>
    <contour>
      <point x="264" y="-142" type="move" name="bottom"/>
    </contour>
  </outline>
</glyph>
<glyph name="P.smcp" format="1">
  <advance width="507"/>
  <note>
    GF Latin Plus glyph
  </note>
  <outline>
    <contour>
      <point x="168" y="259" type="line"/>
      <point x="208" y="512" type="line"/>
      <point x="374" y="512" type="line" smooth="yes"/>
      <point x="429" y="512"/>
      <point x="460" y="490"/>
      <point x="461" y="432" type="curve" smooth="yes"/>
      <point x="461" y="420"/>
      <point x="460" y="401"/>
      <point x="457" y="385" type="curve" smooth="yes"/>
      <point x="441" y="286"/>
      <point x="388" y="259"/>
      <point x="326" y="259" type="curve" smooth="yes"/>
    </contour>
    <contour>
      <point x="71" y="0" type="line"/>
      <point x="127" y="0" type="line"/>
      <point x="162" y="218" type="line"/>
      <point x="211" y="215"/>
      <point x="278" y="211"/>
      <point x="332" y="211" type="curve" smooth="yes"/>
      <point x="408" y="211"/>
      <point x="491" y="244"/>
      <point x="513" y="377" type="curve" smooth="yes"/>
      <point x="516" y="398"/>
      <point x="518" y="422"/>
      <point x="518" y="437" type="curve" smooth="yes"/>
      <point x="517" y="532"/>
      <point x="459" y="560"/>
      <point x="384" y="560" type="curve" smooth="yes"/>
      <point x="160" y="560" type="line"/>
    </contour>
    <contour>
      <point x="342" y="650" type="move" name="top"/>
    </contour>
  </outline>
</glyph>
<glyph name="Q.smcp" format="1">
  <advance width="577"/>
  <note>
    GF Latin Plus glyph
  </note>
  <outline>
    <contour>
      <point x="285" y="-26" type="line"/>
      <point x="289" y="-98"/>
      <point x="339" y="-127"/>
      <point x="406" y="-127" type="curve" smooth="yes"/>
      <point x="424" y="-127"/>
      <point x="441" y="-125"/>
      <point x="457" y="-121" type="curve"/>
      <point x="463" y="-80" type="line"/>
      <point x="446" y="-84"/>
      <point x="426" y="-88"/>
      <point x="407" y="-88" type="curve" smooth="yes"/>
      <point x="361" y="-88"/>
      <point x="333" y="-72"/>
      <point x="323" y="-26" type="curve"/>
    </contour>
    <component base="O.smcp"/>
  </outline>
</glyph>
<glyph name="R.smcp" format="1">
  <advance width="521"/>
  <note>
    GF Latin Plus glyph
  </note>
  <outline>
    <contour>
      <point x="172" y="277" type="line"/>
      <point x="208" y="512" type="line"/>
      <point x="363" y="512" type="line" smooth="yes"/>
      <point x="408" y="512"/>
      <point x="458" y="499"/>
      <point x="458" y="426" type="curve" smooth="yes"/>
      <point x="458" y="416"/>
      <point x="458" y="404"/>
      <point x="455" y="389" type="curve" smooth="yes"/>
      <point x="441" y="293"/>
      <point x="388" y="277"/>
      <point x="332" y="277" type="curve" smooth="yes"/>
    </contour>
    <contour>
      <point x="71" y="0" type="line"/>
      <point x="127" y="0" type="line"/>
      <point x="165" y="237" type="line"/>
      <point x="205" y="235"/>
      <point x="290" y="234"/>
      <point x="326" y="234" type="curve"/>
      <point x="406" y="0" type="line"/>
      <point x="463" y="0" type="line"/>
      <point x="378" y="240" type="line"/>
      <point x="424" y="247"/>
      <point x="494" y="268"/>
      <point x="512" y="387" type="curve" smooth="yes"/>
      <point x="515" y="404"/>
      <point x="516" y="419"/>
      <point x="516" y="433" type="curve" smooth="yes"/>
      <point x="516" y="535"/>
      <point x="444" y="560"/>
      <point x="374" y="560" type="curve" smooth="yes"/>
      <point x="160" y="560" type="line"/>
    </contour>
    <contour>
      <point x="339" y="650" type="move" name="top"/>
    </contour>
    <contour>
      <point x="217" y="-150" type="move" name="bottom"/>
    </contour>
  </outline>
</glyph>
<glyph name="S.smcp" format="1">
  <advance width="483"/>
  <note>
    GF Latin Plus glyph
  </note>
  <outline>
    <contour>
      <point x="70" y="8" type="line"/>
      <point x="114" y="1"/>
      <point x="191" y="-5"/>
      <point x="254" y="-5" type="curve" smooth="yes"/>
      <point x="365" y="-5"/>
      <point x="438" y="24"/>
      <point x="453" y="124" type="curve" smooth="yes"/>
      <point x="462" y="187"/>
      <point x="462" y="197"/>
      <point x="462" y="206" type="curve" smooth="yes"/>
      <point x="462" y="271"/>
      <point x="426" y="306"/>
      <point x="333" y="306" type="curve" smooth="yes"/>
      <point x="257" y="306" type="line" smooth="yes"/>
      <point x="204" y="306"/>
      <point x="179" y="320"/>
      <point x="179" y="361" type="curve" smooth="yes"/>
      <point x="179" y="369"/>
      <point x="179" y="377"/>
      <point x="187" y="425" type="curve" smooth="yes"/>
      <point x="198" y="499"/>
      <point x="239" y="515"/>
      <point x="316" y="515" type="curve" smooth="yes"/>
      <point x="356" y="515"/>
      <point x="434" y="513"/>
      <point x="488" y="509" type="curve"/>
      <point x="494" y="550" type="line"/>
      <point x="449" y="558"/>
      <point x="361" y="565"/>
      <point x="319" y="565" type="curve" smooth="yes"/>
      <point x="219" y="565"/>
      <point x="150" y="537"/>
      <point x="133" y="429" type="curve" smooth="yes"/>
      <point x="125" y="370"/>
      <point x="124" y="361"/>
      <point x="124" y="351" type="curve" smooth="yes"/>
      <point x="125" y="286"/>
      <point x="167" y="256"/>
      <point x="245" y="256" type="curve" smooth="yes"/>
      <point x="320" y="256" type="line" smooth="yes"/>
      <point x="381" y="256"/>
      <point x="408" y="237"/>
      <point x="408" y="195" type="curve" smooth="yes"/>
      <point x="408" y="188"/>
      <point x="407" y="179"/>
      <point x="400" y="130" type="curve" smooth="yes"/>
      <point x="389" y="58"/>
      <point x="336" y="43"/>
      <point x="256" y="43" type="curve" smooth="yes"/>
      <point x="194" y="43"/>
      <point x="122" y="45"/>
      <point x="76" y="48" type="curve"/>
    </contour>
    <contour>
      <point x="340" y="650" type="move" name="top"/>
    </contour>
    <contour>
      <point x="213" y="-150" type="move" name="bottom"/>
    </contour>
  </outline>
</glyph>
<glyph name="U.smcp" format="1">
  <advance width="569"/>
  <note>
    GF Latin Plus glyph
  </note>
  <outline>
    <contour>
      <point x="111" y="250" type="line" smooth="yes"/>
      <point x="105" y="214"/>
      <point x="101" y="177"/>
      <point x="102" y="150" type="curve" smooth="yes"/>
      <point x="103" y="37"/>
      <point x="167" y="-5"/>
      <point x="284" y="-5" type="curve" smooth="yes"/>
      <point x="417" y="-5"/>
      <point x="502" y="28"/>
      <point x="536" y="238" type="curve" smooth="yes"/>
      <point x="587" y="560" type="line"/>
      <point x="531" y="560" type="line"/>
      <point x="480" y="244" type="line" smooth="yes"/>
      <point x="453" y="69"/>
      <point x="391" y="43"/>
      <point x="288" y="43" type="curve" smooth="yes"/>
      <point x="203" y="43"/>
      <point x="158" y="71"/>
      <point x="158" y="153" type="curve" smooth="yes"/>
      <point x="157" y="177"/>
      <point x="161" y="211"/>
      <point x="166" y="244" type="curve" smooth="yes"/>
      <point x="216" y="560" type="line"/>
      <point x="160" y="560" type="line"/>
    </contour>
    <contour>
      <point x="379" y="650" type="move" name="top"/>
    </contour>
    <contour>
      <point x="347" y="0" type="move" name="ogonek"/>
    </contour>
    <contour>
      <point x="254" y="-150" type="move" name="bottom"/>
    </contour>
  </outline>
</glyph>
<glyph name="W.salt.smcp" format="1">
  <advance width="837"/>
  <outline>
    <contour>
      <point x="131" y="560" type="line"/>
      <point x="235" y="0" type="line"/>
      <point x="309" y="0" type="line"/>
      <point x="465" y="298" type="line"/>
      <point x="530" y="0" type="line"/>
      <point x="604" y="0" type="line"/>
      <point x="885" y="560" type="line"/>
      <point x="828" y="560" type="line"/>
      <point x="574" y="58" type="line"/>
      <point x="504" y="372" type="line"/>
      <point x="595" y="560" type="line"/>
      <point x="536" y="560" type="line"/>
      <point x="285" y="58" type="line"/>
      <point x="189" y="560" type="line"/>
    </contour>
    <contour>
      <point x="542" y="650" type="move" name="top"/>
    </contour>
  </outline>
</glyph>
<glyph name="W.smcp" format="1">
  <advance width="830"/>
  <note>
    GF Latin Plus glyph
  </note>
  <outline>
    <contour>
      <point x="131" y="560" type="line"/>
      <point x="216" y="0" type="line"/>
      <point x="278" y="0" type="line"/>
      <point x="488" y="485" type="line"/>
      <point x="553" y="0" type="line"/>
      <point x="615" y="0" type="line"/>
      <point x="869" y="560" type="line"/>
      <point x="811" y="560" type="line"/>
      <point x="590" y="74" type="line"/>
      <point x="528" y="560" type="line"/>
      <point x="471" y="560" type="line"/>
      <point x="263" y="73" type="line"/>
      <point x="188" y="560" type="line"/>
    </contour>
    <contour>
      <point x="514" y="650" type="move" name="top"/>
    </contour>
  </outline>
</glyph>
<glyph name="X.salt" format="1">
  <advance width="618"/>
  <outline>
    <contour>
      <point x="43" y="0" type="line"/>
      <point x="106" y="0" type="line"/>
      <point x="296" y="252" type="line" smooth="yes"/>
      <point x="330" y="298"/>
      <point x="351" y="348"/>
      <point x="351" y="396" type="curve" smooth="yes"/>
      <point x="351" y="432"/>
      <point x="339" y="466"/>
      <point x="325" y="496" type="curve" smooth="yes"/>
      <point x="218" y="734" type="line"/>
      <point x="157" y="734" type="line"/>
      <point x="270" y="476" type="line" smooth="yes"/>
      <point x="283" y="447"/>
      <point x="293" y="418"/>
      <point x="293" y="389" type="curve" smooth="yes"/>
      <point x="293" y="348"/>
      <point x="274" y="309"/>
      <point x="245" y="270" type="curve" smooth="yes"/>
    </contour>
    <contour>
      <point x="514" y="0" type="line"/>
      <point x="577" y="0" type="line"/>
      <point x="460" y="270" type="line" smooth="yes"/>
      <point x="450" y="293"/>
      <point x="445" y="315"/>
      <point x="445" y="338" type="curve" smooth="yes"/>
      <point x="445" y="384"/>
      <point x="469" y="431"/>
      <point x="502" y="476" type="curve" smooth="yes"/>
      <point x="693" y="734" type="line"/>
      <point x="632" y="734" type="line"/>
      <point x="453" y="496" type="line" smooth="yes"/>
      <point x="417" y="447"/>
      <point x="387" y="388"/>
      <point x="387" y="331" type="curve" smooth="yes"/>
      <point x="387" y="304"/>
      <point x="392" y="278"/>
      <point x="404" y="252" type="curve" smooth="yes"/>
    </contour>
    <contour>
      <point x="436" y="810" type="move" name="top"/>
    </contour>
    <contour>
      <point x="284" y="-150" type="move" name="bottom"/>
    </contour>
  </outline>
</glyph>
<glyph name="X.salt.smcp" format="1">
  <advance width="531"/>
  <outline>
    <contour>
      <point x="45" y="0" type="line"/>
      <point x="105" y="0" type="line"/>
      <point x="254" y="192" type="line" smooth="yes"/>
      <point x="281" y="227"/>
      <point x="297" y="265"/>
      <point x="297" y="303" type="curve" smooth="yes"/>
      <point x="297" y="329"/>
      <point x="287" y="355"/>
      <point x="274" y="383" type="curve" smooth="yes"/>
      <point x="190" y="560" type="line"/>
      <point x="131" y="560" type="line"/>
      <point x="222" y="365" type="line" smooth="yes"/>
      <point x="232" y="344"/>
      <point x="240" y="322"/>
      <point x="240" y="300" type="curve" smooth="yes"/>
      <point x="240" y="266"/>
      <point x="229" y="243"/>
      <point x="204" y="209" type="curve" smooth="yes"/>
    </contour>
    <contour>
      <point x="427" y="0" type="line"/>
      <point x="487" y="0" type="line"/>
      <point x="393" y="206" type="line" smooth="yes"/>
      <point x="385" y="224"/>
      <point x="381" y="241"/>
      <point x="381" y="258" type="curve" smooth="yes"/>
      <point x="381" y="293"/>
      <point x="399" y="328"/>
      <point x="425" y="361" type="curve" smooth="yes"/>
      <point x="576" y="560" type="line"/>
      <point x="518" y="560" type="line"/>
      <point x="378" y="381" type="line" smooth="yes"/>
      <point x="347" y="340"/>
      <point x="325" y="296"/>
      <point x="325" y="252" type="curve" smooth="yes"/>
      <point x="325" y="231"/>
      <point x="329" y="211"/>
      <point x="339" y="191" type="curve" smooth="yes"/>
    </contour>
    <contour>
      <point x="367" y="650" type="move" name="top"/>
    </contour>
    <contour>
      <point x="243" y="-150" type="move" name="bottom"/>
    </contour>
  </outline>
</glyph>
<glyph name="X.smcp" format="1">
  <advance width="517"/>
  <note>
    GF Latin Plus glyph
  </note>
  <outline>
    <contour>
      <point x="42" y="0" type="line"/>
      <point x="107" y="0" type="line"/>
      <point x="303" y="245" type="line"/>
      <point x="279" y="294" type="line"/>
    </contour>
    <contour>
      <point x="301" y="308" type="line"/>
      <point x="325" y="262" type="line"/>
      <point x="569" y="560" type="line"/>
      <point x="504" y="560" type="line"/>
    </contour>
    <contour>
      <point x="282" y="259" type="line"/>
      <point x="414" y="0" type="line"/>
      <point x="476" y="0" type="line"/>
      <point x="324" y="296" type="line"/>
      <point x="191" y="560" type="line"/>
      <point x="128" y="560" type="line"/>
    </contour>
    <contour>
      <point x="361" y="650" type="move" name="top"/>
    </contour>
    <contour>
      <point x="234" y="-150" type="move" name="bottom"/>
    </contour>
  </outline>
</glyph>
<glyph name="a.superior" format="1">
  <advance width="422"/>
  <note>
    GF Latin Plus glyph
  </note>
  <outline>
    <contour>
      <point x="164" y="475" type="curve" smooth="yes"/>
      <point x="182" y="585"/>
      <point x="215" y="634"/>
      <point x="316" y="634" type="curve" smooth="yes"/>
      <point x="363" y="634"/>
      <point x="399" y="621"/>
      <point x="416" y="612" type="curve"/>
      <point x="375" y="355" type="line"/>
      <point x="335" y="335"/>
      <point x="296" y="318"/>
      <point x="246" y="318" type="curve" smooth="yes"/>
      <point x="193" y="318"/>
      <point x="157" y="349"/>
      <point x="157" y="415" type="curve" smooth="yes"/>
      <point x="157" y="431"/>
      <point x="159" y="449"/>
    </contour>
    <contour>
      <point x="116" y="483" type="curve" smooth="yes"/>
      <point x="112" y="461"/>
      <point x="107" y="432"/>
      <point x="107" y="408" type="curve" smooth="yes"/>
      <point x="107" y="315"/>
      <point x="161" y="276"/>
      <point x="228" y="276" type="curve" smooth="yes"/>
      <point x="282" y="276"/>
      <point x="349" y="306"/>
      <point x="371" y="322" type="curve"/>
      <point x="372" y="280" type="line"/>
      <point x="414" y="280" type="line"/>
      <point x="469" y="633" type="line"/>
      <point x="434" y="663"/>
      <point x="370" y="676"/>
      <point x="319" y="676" type="curve" smooth="yes"/>
      <point x="193" y="676"/>
      <point x="136" y="615"/>
    </contour>
    <contour>
      <point x="329" y="757" type="move" name="top"/>
    </contour>
    <contour>
      <point x="406" y="280" type="move" name="ogonek"/>
    </contour>
    <contour>
      <point x="237" y="169" type="move" name="bottom"/>
    </contour>
  </outline>
</glyph>
<glyph name="ampersand.salt" format="1">
  <advance width="943"/>
  <outline>
    <contour>
      <point x="292" y="223" type="line"/>
      <point x="310" y="337"/>
      <point x="357" y="363"/>
      <point x="418" y="363" type="curve" smooth="yes"/>
      <point x="524" y="363" type="line" smooth="yes"/>
      <point x="586" y="363"/>
      <point x="608" y="354"/>
      <point x="599" y="294" type="curve" smooth="yes"/>
      <point x="590" y="233"/>
      <point x="567" y="223"/>
      <point x="501" y="223" type="curve" smooth="yes"/>
    </contour>
    <contour>
      <point x="145" y="300" type="curve" smooth="yes"/>
      <point x="158" y="384" type="line" smooth="yes"/>
      <point x="173" y="490"/>
      <point x="224" y="507"/>
      <point x="348" y="508" type="curve"/>
      <point x="798" y="508" type="line"/>
      <point x="749" y="199" type="line" smooth="yes"/>
      <point x="729" y="75"/>
      <point x="636" y="49"/>
      <point x="533" y="49" type="curve" smooth="yes"/>
      <point x="401" y="49" type="line" smooth="yes"/>
      <point x="311" y="49"/>
      <point x="270" y="68"/>
      <point x="285" y="178" type="curve"/>
      <point x="494" y="178" type="line" smooth="yes"/>
      <point x="584" y="178"/>
      <point x="639" y="182"/>
      <point x="656" y="287" type="curve" smooth="yes"/>
      <point x="674" y="400"/>
      <point x="604" y="408"/>
      <point x="532" y="408" type="curve" smooth="yes"/>
      <point x="423" y="408" type="line" smooth="yes"/>
      <point x="309" y="408"/>
      <point x="256" y="350"/>
      <point x="233" y="223" type="curve"/>
      <point x="184" y="223"/>
      <point x="134" y="233"/>
    </contour>
    <contour>
      <point x="87" y="304" type="line" smooth="yes"/>
      <point x="71" y="198"/>
      <point x="152" y="176"/>
      <point x="226" y="176" type="curve"/>
      <point x="206" y="26"/>
      <point x="286" y="0"/>
      <point x="396" y="0" type="curve" smooth="yes"/>
      <point x="535" y="0" type="line" smooth="yes"/>
      <point x="648" y="0"/>
      <point x="779" y="17"/>
      <point x="807" y="192" type="curve" smooth="yes"/>
      <point x="856" y="509" type="line"/>
      <point x="997" y="520" type="line"/>
      <point x="1003" y="557" type="line"/>
      <point x="864" y="557" type="line"/>
      <point x="886" y="697" type="line"/>
      <point x="839" y="697" type="line"/>
      <point x="806" y="558" type="line"/>
      <point x="355" y="558" type="line" smooth="yes"/>
      <point x="210" y="557"/>
      <point x="122" y="541"/>
      <point x="101" y="394" type="curve" smooth="yes"/>
    </contour>
  </outline>
</glyph>
<glyph name="ampersand.smcp" format="1">
  <advance width="565"/>
  <note>
    GF Latin Plus glyph
  </note>
  <outline>
    <contour>
      <point x="208" y="45" type="curve" smooth="yes"/>
      <point x="150" y="45"/>
      <point x="117" y="78"/>
      <point x="116" y="130" type="curve" smooth="yes"/>
      <point x="115" y="192"/>
      <point x="134" y="231"/>
      <point x="210" y="272" type="curve" smooth="yes"/>
      <point x="251" y="296" type="line"/>
      <point x="365" y="115" type="line"/>
      <point x="336" y="93" type="line" smooth="yes"/>
      <point x="285" y="53"/>
      <point x="247" y="45"/>
    </contour>
    <contour>
      <point x="192" y="-5" type="curve" smooth="yes"/>
      <point x="248" y="-5"/>
      <point x="298" y="10"/>
      <point x="359" y="57" type="curve" smooth="yes"/>
      <point x="390" y="79" type="line"/>
      <point x="440" y="0" type="line"/>
      <point x="500" y="0" type="line"/>
      <point x="433" y="107" type="line"/>
      <point x="499" y="159" type="line"/>
      <point x="563" y="231" type="line"/>
      <point x="546" y="254" type="line"/>
      <point x="407" y="144" type="line"/>
      <point x="274" y="361" type="line" smooth="yes"/>
      <point x="253" y="393"/>
      <point x="246" y="418"/>
      <point x="246" y="441" type="curve" smooth="yes"/>
      <point x="245" y="496"/>
      <point x="287" y="512"/>
      <point x="347" y="512" type="curve" smooth="yes"/>
      <point x="457" y="512" type="line"/>
      <point x="463" y="550" type="line"/>
      <point x="435" y="554"/>
      <point x="401" y="559"/>
      <point x="346" y="559" type="curve" smooth="yes"/>
      <point x="246" y="559"/>
      <point x="189" y="517"/>
      <point x="190" y="445" type="curve" smooth="yes"/>
      <point x="190" y="418"/>
      <point x="198" y="387"/>
      <point x="218" y="352" type="curve" smooth="yes"/>
      <point x="230" y="331" type="line"/>
      <point x="176" y="301" type="line" smooth="yes"/>
      <point x="90" y="252"/>
      <point x="58" y="201"/>
      <point x="59" y="122" type="curve" smooth="yes"/>
      <point x="60" y="44"/>
      <point x="113" y="-5"/>
    </contour>
  </outline>
</glyph>
<glyph name="asterisk.smcp" format="1">
  <advance width="400"/>
  <note>
    GF Latin Plus glyph
  </note>
  <outline>
    <contour>
      <point x="284" y="423" type="line"/>
      <point x="303" y="400" type="line"/>
      <point x="396" y="469" type="line"/>
      <point x="385" y="487" type="line"/>
    </contour>
    <contour>
      <point x="242" y="551" type="line"/>
      <point x="269" y="450" type="line"/>
      <point x="301" y="464" type="line"/>
      <point x="265" y="557" type="line"/>
    </contour>
    <contour>
      <point x="238" y="370" type="line"/>
      <point x="327" y="316" type="line"/>
      <point x="344" y="334" type="line"/>
      <point x="258" y="397" type="line"/>
    </contour>
    <contour>
      <point x="153" y="314" type="line"/>
      <point x="174" y="307" type="line"/>
      <point x="226" y="410" type="line"/>
      <point x="194" y="415" type="line"/>
    </contour>
    <contour>
      <point x="115" y="446" type="line"/>
      <point x="231" y="443" type="line"/>
      <point x="232" y="474" type="line"/>
      <point x="119" y="468" type="line"/>
    </contour>
  </outline>
</glyph>
<glyph name="braceleft.smcp" format="1">
  <advance width="274"/>
  <note>
    GF Latin Plus glyph
  </note>
  <outline>
    <contour>
      <point x="84" y="229" type="line"/>
      <point x="125" y="229"/>
      <point x="143" y="215"/>
      <point x="143" y="183" type="curve" smooth="yes"/>
      <point x="143" y="158"/>
      <point x="104" y="-30"/>
      <point x="104" y="-69" type="curve" smooth="yes"/>
      <point x="105" y="-122"/>
      <point x="133" y="-160"/>
      <point x="235" y="-160" type="curve"/>
      <point x="240" y="-119" type="line"/>
      <point x="189" y="-119"/>
      <point x="163" y="-103"/>
      <point x="163" y="-54" type="curve" smooth="yes"/>
      <point x="163" y="-26"/>
      <point x="201" y="173"/>
      <point x="201" y="195" type="curve" smooth="yes"/>
      <point x="201" y="225"/>
      <point x="180" y="249"/>
      <point x="139" y="254" type="curve"/>
      <point x="179" y="259"/>
      <point x="214" y="282"/>
      <point x="220" y="324" type="curve" smooth="yes"/>
      <point x="247" y="492" type="line" smooth="yes"/>
      <point x="262" y="582"/>
      <point x="293" y="598"/>
      <point x="354" y="598" type="curve"/>
      <point x="361" y="642" type="line"/>
      <point x="248" y="642"/>
      <point x="208" y="595"/>
      <point x="193" y="500" type="curve" smooth="yes"/>
      <point x="165" y="332" type="line" smooth="yes"/>
      <point x="160" y="291"/>
      <point x="119" y="282"/>
      <point x="91" y="279" type="curve"/>
    </contour>
  </outline>
</glyph>
<glyph name="bracketleft.smcp" format="1">
  <advance width="291"/>
  <note>
    GF Latin Plus glyph
  </note>
  <outline>
    <contour>
      <point x="87" y="-19" type="line" smooth="yes"/>
      <point x="85" y="-31"/>
      <point x="84" y="-45"/>
      <point x="84" y="-59" type="curve" smooth="yes"/>
      <point x="84" y="-107"/>
      <point x="105" y="-160"/>
      <point x="188" y="-160" type="curve" smooth="yes"/>
      <point x="237" y="-160" type="line"/>
      <point x="243" y="-116" type="line"/>
      <point x="207" y="-116" type="line" smooth="yes"/>
      <point x="161" y="-116"/>
      <point x="142" y="-89"/>
      <point x="141" y="-47" type="curve" smooth="yes"/>
      <point x="141" y="-37"/>
      <point x="143" y="-27"/>
      <point x="144" y="-17" type="curve" smooth="yes"/>
      <point x="225" y="498" type="line" smooth="yes"/>
      <point x="237" y="570"/>
      <point x="274" y="598"/>
      <point x="321" y="598" type="curve" smooth="yes"/>
      <point x="357" y="598" type="line"/>
      <point x="364" y="642" type="line"/>
      <point x="315" y="642" type="line" smooth="yes"/>
      <point x="213" y="642"/>
      <point x="180" y="565"/>
      <point x="170" y="505" type="curve" smooth="yes"/>
    </contour>
  </outline>
</glyph>
<glyph name="bracketright.smcp" format="1">
  <advance width="291"/>
  <note>
    GF Latin Plus glyph
  </note>
  <outline>
    <contour>
      <point x="12" y="-116" type="line"/>
      <point x="5" y="-160" type="line"/>
      <point x="54" y="-160" type="line" smooth="yes"/>
      <point x="162" y="-160"/>
      <point x="191" y="-73"/>
      <point x="199" y="-19" type="curve" smooth="yes"/>
      <point x="282" y="505" type="line" smooth="yes"/>
      <point x="283" y="516"/>
      <point x="285" y="529"/>
      <point x="285" y="542" type="curve" smooth="yes"/>
      <point x="284" y="595"/>
      <point x="261" y="642"/>
      <point x="181" y="642" type="curve" smooth="yes"/>
      <point x="132" y="642" type="line"/>
      <point x="125" y="598" type="line"/>
      <point x="161" y="598" type="line" smooth="yes"/>
      <point x="201" y="598"/>
      <point x="227" y="578"/>
      <point x="228" y="529" type="curve" smooth="yes"/>
      <point x="228" y="520"/>
      <point x="227" y="510"/>
      <point x="225" y="498" type="curve" smooth="yes"/>
      <point x="144" y="-17" type="line" smooth="yes"/>
      <point x="135" y="-74"/>
      <point x="105" y="-116"/>
      <point x="48" y="-116" type="curve" smooth="yes"/>
    </contour>
  </outline>
</glyph>
<glyph name="brevecomb_acutecomb" format="1">
  <outline>
    <contour>
      <point x="-396" y="735" type="line"/>
      <point x="-397" y="727"/>
      <point x="-398" y="720"/>
      <point x="-398" y="713" type="curve" smooth="yes"/>
      <point x="-398" y="648"/>
      <point x="-344" y="626"/>
      <point x="-284" y="626" type="curve" smooth="yes"/>
      <point x="-217" y="626"/>
      <point x="-151" y="650"/>
      <point x="-138" y="735" type="curve"/>
      <point x="-167" y="735" type="line"/>
      <point x="-178" y="665"/>
      <point x="-244" y="653"/>
      <point x="-283" y="653" type="curve" smooth="yes"/>
      <point x="-329" y="653"/>
      <point x="-368" y="672"/>
      <point x="-368" y="719" type="curve" smooth="yes"/>
      <point x="-368" y="724"/>
      <point x="-368" y="729"/>
      <point x="-367" y="735" type="curve"/>
    </contour>
    <component base="acutecomb" yOffset="106"/>
    <contour>
      <point x="-269" y="650" type="move" name="_top"/>
    </contour>
  </outline>
</glyph>
<glyph name="brevecomb_tildecomb" format="1">
  <outline>
    <contour>
      <point x="-404" y="735" type="line"/>
      <point x="-406" y="727"/>
      <point x="-407" y="720"/>
      <point x="-407" y="712" type="curve" smooth="yes"/>
      <point x="-407" y="648"/>
      <point x="-353" y="626"/>
      <point x="-293" y="626" type="curve" smooth="yes"/>
      <point x="-226" y="626"/>
      <point x="-160" y="650"/>
      <point x="-146" y="735" type="curve"/>
      <point x="-176" y="735" type="line"/>
      <point x="-187" y="665"/>
      <point x="-243" y="653"/>
      <point x="-292" y="653" type="curve" smooth="yes"/>
      <point x="-338" y="653"/>
      <point x="-376" y="672"/>
      <point x="-376" y="719" type="curve" smooth="yes"/>
      <point x="-376" y="724"/>
      <point x="-376" y="729"/>
      <point x="-375" y="735" type="curve"/>
    </contour>
    <contour>
      <point x="-427" y="770" type="curve"/>
      <point x="-397" y="770" type="line"/>
      <point x="-391" y="802"/>
      <point x="-363" y="816"/>
      <point x="-333" y="816" type="curve" smooth="yes"/>
      <point x="-281" y="816"/>
      <point x="-244" y="770"/>
      <point x="-190" y="770" type="curve" smooth="yes"/>
      <point x="-136" y="770"/>
      <point x="-101" y="798"/>
      <point x="-91" y="849" type="curve"/>
      <point x="-121" y="849" type="line"/>
      <point x="-126" y="818"/>
      <point x="-154" y="801"/>
      <point x="-186" y="801" type="curve" smooth="yes"/>
      <point x="-237" y="801"/>
      <point x="-271" y="847"/>
      <point x="-330" y="847" type="curve" smooth="yes"/>
      <point x="-370" y="847"/>
      <point x="-415" y="831"/>
    </contour>
    <contour>
      <point x="-283" y="650" type="move" name="_top"/>
    </contour>
  </outline>
</glyph>
<glyph name="breveinvertedcomb" format="1">
  <note>
    GF Latin Plus glyph
  </note>
  <outline>
    <contour>
      <point x="-145" y="631" type="line"/>
      <point x="-144" y="644"/>
      <point x="-143" y="655"/>
      <point x="-143" y="666" type="curve" smooth="yes"/>
      <point x="-143" y="743"/>
      <point x="-193" y="770"/>
      <point x="-252" y="770" type="curve" smooth="yes"/>
      <point x="-319" y="770"/>
      <point x="-387" y="739"/>
      <point x="-403" y="631" type="curve"/>
      <point x="-374" y="631" type="line"/>
      <point x="-361" y="713"/>
      <point x="-308" y="741"/>
      <point x="-256" y="741" type="curve" smooth="yes"/>
      <point x="-209" y="741"/>
      <point x="-172" y="718"/>
      <point x="-172" y="659" type="curve" smooth="yes"/>
      <point x="-172" y="651"/>
      <point x="-173" y="641"/>
      <point x="-174" y="631" type="curve"/>
    </contour>
    <contour>
      <point x="-269" y="650" type="move" name="_top"/>
    </contour>
  </outline>
</glyph>
<glyph name="bullet.smcp" format="1">
  <advance width="289"/>
  <note>
    GF Latin Plus glyph
  </note>
  <outline>
    <contour>
      <point x="113" y="266" type="line" smooth="yes"/>
      <point x="111" y="251"/>
      <point x="119" y="242"/>
      <point x="135" y="242" type="curve" smooth="yes"/>
      <point x="180" y="242" type="line" smooth="yes"/>
      <point x="196" y="242"/>
      <point x="210" y="248"/>
      <point x="213" y="266" type="curve" smooth="yes"/>
      <point x="220" y="314" type="line" smooth="yes"/>
      <point x="223" y="331"/>
      <point x="217" y="341"/>
      <point x="196" y="341" type="curve" smooth="yes"/>
      <point x="152" y="341" type="line" smooth="yes"/>
      <point x="134" y="341"/>
      <point x="123" y="330"/>
      <point x="120" y="314" type="curve" smooth="yes"/>
    </contour>
  </outline>
</glyph>
<glyph name="c.superior" format="1">
  <advance width="361"/>
  <note>
    GF Latin Plus glyph
  </note>
  <outline>
    <contour>
      <point x="116" y="486" type="curve" smooth="yes"/>
      <point x="112" y="459"/>
      <point x="109" y="435"/>
      <point x="109" y="417" type="curve" smooth="yes"/>
      <point x="109" y="304"/>
      <point x="166" y="276"/>
      <point x="249" y="276" type="curve" smooth="yes"/>
      <point x="304" y="276"/>
      <point x="347" y="280"/>
      <point x="379" y="286" type="curve"/>
      <point x="383" y="316" type="line"/>
      <point x="263" y="316" type="line" smooth="yes"/>
      <point x="195" y="316"/>
      <point x="158" y="337"/>
      <point x="158" y="421" type="curve" smooth="yes"/>
      <point x="158" y="434"/>
      <point x="161" y="452"/>
      <point x="164" y="474" type="curve" smooth="yes"/>
      <point x="184" y="599"/>
      <point x="235" y="636"/>
      <point x="309" y="636" type="curve" smooth="yes"/>
      <point x="425" y="636" type="line"/>
      <point x="430" y="666" type="line"/>
      <point x="391" y="671"/>
      <point x="338" y="676"/>
      <point x="301" y="676" type="curve" smooth="yes"/>
      <point x="204" y="676"/>
      <point x="138" y="623"/>
    </contour>
    <contour>
      <point x="308" y="757" type="move" name="top"/>
    </contour>
    <contour>
      <point x="216" y="169" type="move" name="bottom"/>
    </contour>
  </outline>
</glyph>
<glyph name="c_t" format="1">
  <advance width="820"/>
  <outline>
    <contour>
      <point x="640" y="498" type="line"/>
      <point x="589" y="195" type="line" smooth="yes"/>
      <point x="584" y="167"/>
      <point x="580" y="139"/>
      <point x="580" y="111" type="curve" smooth="yes"/>
      <point x="580" y="40"/>
      <point x="622" y="0"/>
      <point x="706" y="0" type="curve" smooth="yes"/>
      <point x="769" y="0" type="line"/>
      <point x="776" y="42" type="line"/>
      <point x="712" y="48" type="line" smooth="yes"/>
      <point x="662" y="52"/>
      <point x="638" y="76"/>
      <point x="638" y="122" type="curve" smooth="yes"/>
      <point x="638" y="145"/>
      <point x="643" y="174"/>
      <point x="647" y="195" type="curve" smooth="yes"/>
      <point x="693" y="484" type="line"/>
      <point x="854" y="484" type="line"/>
      <point x="862" y="533" type="line"/>
      <point x="700" y="533" type="line"/>
      <point x="724" y="682" type="line"/>
      <point x="680" y="682" type="line"/>
      <point x="645" y="533" type="line"/>
    </contour>
    <contour>
      <point x="98" y="278" type="curve" smooth="yes"/>
      <point x="92" y="242"/>
      <point x="88" y="210"/>
      <point x="88" y="185" type="curve" smooth="yes"/>
      <point x="88" y="32"/>
      <point x="163" y="-6"/>
      <point x="274" y="-6" type="curve" smooth="yes"/>
      <point x="347" y="-6"/>
      <point x="404" y="-1"/>
      <point x="446" y="6" type="curve"/>
      <point x="451" y="41" type="line"/>
      <point x="290" y="41" type="line" smooth="yes"/>
      <point x="196" y="41"/>
      <point x="146" y="70"/>
      <point x="146" y="189" type="curve" smooth="yes"/>
      <point x="146" y="208"/>
      <point x="149" y="233"/>
      <point x="154" y="264" type="curve" smooth="yes"/>
      <point x="182" y="441"/>
      <point x="253" y="492"/>
      <point x="353" y="492" type="curve" smooth="yes"/>
      <point x="664" y="492" type="line"/>
      <point x="666" y="534" type="line"/>
      <point x="627" y="536"/>
      <point x="455" y="539"/>
      <point x="349" y="539" type="curve" smooth="yes"/>
      <point x="220" y="539"/>
      <point x="127" y="466"/>
    </contour>
  </outline>
</glyph>
<glyph name="cedi.smcp" format="1">
  <advance width="516"/>
  <note>
    GF Latin Plus glyph
  </note>
  <outline>
    <contour>
      <point x="305" y="-77" type="line"/>
      <point x="413" y="604" type="line"/>
      <point x="380" y="604" type="line"/>
      <point x="273" y="-77" type="line"/>
    </contour>
    <contour>
      <point x="100" y="173" type="curve" smooth="yes"/>
      <point x="101" y="36"/>
      <point x="178" y="-5"/>
      <point x="283" y="-5" type="curve" smooth="yes"/>
      <point x="360" y="-5"/>
      <point x="424" y="6"/>
      <point x="463" y="20" type="curve"/>
      <point x="469" y="57" type="line"/>
      <point x="416" y="45"/>
      <point x="374" y="41"/>
      <point x="302" y="41" type="curve" smooth="yes"/>
      <point x="212" y="41"/>
      <point x="153" y="70"/>
      <point x="152" y="177" type="curve" smooth="yes"/>
      <point x="150" y="371"/>
      <point x="247" y="512"/>
      <point x="391" y="512" type="curve" smooth="yes"/>
      <point x="445" y="512"/>
      <point x="498" y="503"/>
      <point x="539" y="495" type="curve"/>
      <point x="545" y="533" type="line"/>
      <point x="519" y="543"/>
      <point x="455" y="558"/>
      <point x="385" y="558" type="curve" smooth="yes"/>
      <point x="223" y="558"/>
      <point x="98" y="407"/>
    </contour>
  </outline>
</glyph>
<glyph name="circumflexcomb_acutecomb" format="1">
  <outline>
    <contour>
      <point x="-422" y="631" type="line"/>
      <point x="-386" y="631" type="line"/>
      <point x="-266" y="697" type="line"/>
      <point x="-177" y="631" type="line"/>
      <point x="-140" y="631" type="line"/>
      <point x="-240" y="726" type="line"/>
      <point x="-282" y="726" type="line"/>
    </contour>
    <contour>
      <point x="-181" y="705" type="line"/>
      <point x="-149" y="705" type="line"/>
      <point x="-10" y="836" type="line"/>
      <point x="-60" y="836" type="line"/>
    </contour>
    <contour>
      <point x="-272" y="650" type="move" name="_top"/>
    </contour>
  </outline>
</glyph>
<glyph name="circumflexcomb_hookabovecomb" format="1">
  <outline>
    <contour>
      <point x="-289" y="726" type="line"/>
      <point x="-429" y="631" type="line"/>
      <point x="-392" y="631" type="line"/>
      <point x="-273" y="697" type="line"/>
      <point x="-184" y="631" type="line"/>
      <point x="-147" y="631" type="line"/>
      <point x="-247" y="726" type="line"/>
    </contour>
    <contour>
      <point x="-182" y="798" type="line"/>
      <point x="-171" y="802"/>
      <point x="-156" y="804"/>
      <point x="-145" y="804" type="curve" smooth="yes"/>
      <point x="-116" y="804"/>
      <point x="-104" y="793"/>
      <point x="-104" y="774" type="curve" smooth="yes"/>
      <point x="-104" y="750"/>
      <point x="-119" y="724"/>
      <point x="-169" y="708" type="curve"/>
      <point x="-173" y="682" type="line"/>
      <point x="-99" y="702"/>
      <point x="-72" y="740"/>
      <point x="-72" y="779" type="curve" smooth="yes"/>
      <point x="-72" y="811"/>
      <point x="-92" y="831"/>
      <point x="-134" y="831" type="curve" smooth="yes"/>
      <point x="-149" y="831"/>
      <point x="-163" y="829"/>
      <point x="-178" y="824" type="curve"/>
    </contour>
    <contour>
      <point x="-282" y="650" type="move" name="_top"/>
    </contour>
  </outline>
</glyph>
<glyph name="colonsign.smcp" format="1">
  <advance width="516"/>
  <note>
    GF Latin Plus glyph
  </note>
  <outline>
    <contour>
      <point x="220" y="-84" type="line"/>
      <point x="637" y="604" type="line"/>
      <point x="604" y="604" type="line"/>
      <point x="187" y="-84" type="line"/>
    </contour>
    <contour>
      <point x="107" y="-84" type="line"/>
      <point x="523" y="604" type="line"/>
      <point x="490" y="604" type="line"/>
      <point x="74" y="-84" type="line"/>
    </contour>
    <contour>
      <point x="111" y="168" type="curve" smooth="yes"/>
      <point x="112" y="42"/>
      <point x="177" y="-5"/>
      <point x="283" y="-5" type="curve" smooth="yes"/>
      <point x="359" y="-5"/>
      <point x="424" y="6"/>
      <point x="463" y="20" type="curve"/>
      <point x="472" y="55" type="line"/>
      <point x="416" y="43"/>
      <point x="375" y="39"/>
      <point x="305" y="39" type="curve" smooth="yes"/>
      <point x="213" y="39"/>
      <point x="163" y="69"/>
      <point x="162" y="178" type="curve" smooth="yes"/>
      <point x="161" y="346"/>
      <point x="272" y="527"/>
      <point x="434" y="527" type="curve" smooth="yes"/>
      <point x="486" y="527"/>
      <point x="529" y="518"/>
      <point x="565" y="510" type="curve"/>
      <point x="586" y="544" type="line"/>
      <point x="561" y="555"/>
      <point x="513" y="571"/>
      <point x="433" y="571" type="curve" smooth="yes"/>
      <point x="249" y="571"/>
      <point x="109" y="378"/>
    </contour>
  </outline>
</glyph>
<glyph name="commaaccentcomb" format="1">
  <note>
    GF Latin Plus glyph
  </note>
  <outline>
    <contour>
      <point x="-398" y="-174" type="line"/>
      <point x="-402" y="-198" type="line"/>
      <point x="-368" y="-198" type="line" smooth="yes"/>
      <point x="-281" y="-198"/>
      <point x="-254" y="-160"/>
      <point x="-238" y="-60" type="curve"/>
      <point x="-275" y="-60" type="line"/>
      <point x="-289" y="-154"/>
      <point x="-317" y="-164"/>
      <point x="-367" y="-170" type="curve" smooth="yes"/>
    </contour>
    <contour>
      <point x="-312" y="-150" type="move" name="_bottom"/>
    </contour>
  </outline>
</glyph>
<glyph name="commaturnedabovecomb" format="1">
  <note>
    GF Latin Plus glyph
  </note>
  <outline>
    <contour>
      <point x="-102" y="728" type="line"/>
      <point x="-98" y="752" type="line"/>
      <point x="-132" y="752" type="line" smooth="yes"/>
      <point x="-219" y="752"/>
      <point x="-245" y="715"/>
      <point x="-261" y="614" type="curve"/>
      <point x="-224" y="614" type="line"/>
      <point x="-211" y="708"/>
      <point x="-183" y="718"/>
      <point x="-133" y="724" type="curve" smooth="yes"/>
    </contour>
    <contour>
      <point x="-207" y="650" type="move" name="_top"/>
    </contour>
  </outline>
</glyph>
<glyph name="d.superior" format="1">
  <advance width="424"/>
  <note>
    GF Latin Plus glyph
  </note>
  <outline>
    <contour>
      <point x="164" y="475" type="curve" smooth="yes"/>
      <point x="185" y="587"/>
      <point x="216" y="634"/>
      <point x="316" y="634" type="curve" smooth="yes"/>
      <point x="359" y="634"/>
      <point x="388" y="627"/>
      <point x="417" y="612" type="curve"/>
      <point x="377" y="355" type="line"/>
      <point x="336" y="335"/>
      <point x="293" y="318"/>
      <point x="243" y="318" type="curve" smooth="yes"/>
      <point x="197" y="318"/>
      <point x="158" y="344"/>
      <point x="158" y="414" type="curve" smooth="yes"/>
      <point x="158" y="432"/>
      <point x="161" y="452"/>
    </contour>
    <contour>
      <point x="116" y="486" type="curve" smooth="yes"/>
      <point x="111" y="458"/>
      <point x="109" y="432"/>
      <point x="109" y="405" type="curve" smooth="yes"/>
      <point x="109" y="320"/>
      <point x="158" y="276"/>
      <point x="226" y="276" type="curve" smooth="yes"/>
      <point x="283" y="276"/>
      <point x="337" y="301"/>
      <point x="372" y="322" type="curve"/>
      <point x="373" y="280" type="line"/>
      <point x="414" y="280" type="line"/>
      <point x="503" y="841" type="line"/>
      <point x="454" y="841" type="line"/>
      <point x="424" y="654" type="line"/>
      <point x="391" y="670"/>
      <point x="356" y="676"/>
      <point x="315" y="676" type="curve" smooth="yes"/>
      <point x="176" y="676"/>
      <point x="139" y="602"/>
    </contour>
    <contour>
      <point x="505" y="757" type="move" name="altcaron"/>
    </contour>
    <contour>
      <point x="239" y="169" type="move" name="bottom"/>
    </contour>
  </outline>
</glyph>
<glyph name="dblgravecomb" format="1">
  <note>
    GF Latin Plus glyph
  </note>
  <outline>
    <contour>
      <point x="-449" y="766" type="line"/>
      <point x="-342" y="631" type="line"/>
      <point x="-308" y="631" type="line"/>
      <point x="-397" y="766" type="line"/>
    </contour>
    <contour>
      <point x="-313" y="766" type="line"/>
      <point x="-206" y="631" type="line"/>
      <point x="-172" y="631" type="line"/>
      <point x="-261" y="766" type="line"/>
    </contour>
    <contour>
      <point x="-279" y="650" type="move" name="_top"/>
    </contour>
  </outline>
</glyph>
<glyph name="degree.smcp" format="1">
  <advance width="291"/>
  <note>
    GF Latin Plus glyph
  </note>
  <outline>
    <contour>
      <point x="234" y="554" type="curve" smooth="yes"/>
      <point x="275" y="554"/>
      <point x="300" y="529"/>
      <point x="300" y="493" type="curve" smooth="yes"/>
      <point x="301" y="443"/>
      <point x="263" y="406"/>
      <point x="211" y="406" type="curve" smooth="yes"/>
      <point x="170" y="406"/>
      <point x="143" y="430"/>
      <point x="143" y="467" type="curve" smooth="yes"/>
      <point x="143" y="515"/>
      <point x="180" y="554"/>
    </contour>
    <contour>
      <point x="116" y="463" type="curve" smooth="yes"/>
      <point x="116" y="414"/>
      <point x="153" y="381"/>
      <point x="206" y="381" type="curve" smooth="yes"/>
      <point x="282" y="381"/>
      <point x="328" y="428"/>
      <point x="327" y="496" type="curve" smooth="yes"/>
      <point x="327" y="546"/>
      <point x="292" y="580"/>
      <point x="238" y="580" type="curve" smooth="yes"/>
      <point x="163" y="580"/>
      <point x="115" y="530"/>
    </contour>
  </outline>
</glyph>
<glyph name="dieresiscomb" format="1">
  <note>
    GF Latin Plus glyph
  </note>
  <outline>
    <contour>
      <point x="-405" y="670" type="curve" smooth="yes"/>
      <point x="-405" y="663"/>
      <point x="-401" y="658"/>
      <point x="-393" y="658" type="curve" smooth="yes"/>
      <point x="-367" y="658" type="line" smooth="yes"/>
      <point x="-358" y="658"/>
      <point x="-351" y="663"/>
      <point x="-350" y="672" type="curve" smooth="yes"/>
      <point x="-338" y="745"/>
      <point x="-338" y="747"/>
      <point x="-338" y="748" type="curve" smooth="yes"/>
      <point x="-338" y="754"/>
      <point x="-341" y="759"/>
      <point x="-350" y="759" type="curve" smooth="yes"/>
      <point x="-376" y="759" type="line" smooth="yes"/>
      <point x="-386" y="759"/>
      <point x="-392" y="754"/>
      <point x="-394" y="744" type="curve" smooth="yes"/>
      <point x="-405" y="671"/>
      <point x="-405" y="671"/>
    </contour>
    <contour>
      <point x="-200" y="670" type="curve" smooth="yes"/>
      <point x="-200" y="663"/>
      <point x="-195" y="658"/>
      <point x="-188" y="658" type="curve" smooth="yes"/>
      <point x="-161" y="658" type="line" smooth="yes"/>
      <point x="-152" y="658"/>
      <point x="-145" y="663"/>
      <point x="-144" y="672" type="curve" smooth="yes"/>
      <point x="-133" y="745"/>
      <point x="-132" y="747"/>
      <point x="-132" y="748" type="curve" smooth="yes"/>
      <point x="-132" y="754"/>
      <point x="-135" y="759"/>
      <point x="-144" y="759" type="curve" smooth="yes"/>
      <point x="-171" y="759" type="line" smooth="yes"/>
      <point x="-180" y="759"/>
      <point x="-187" y="754"/>
      <point x="-188" y="744" type="curve" smooth="yes"/>
      <point x="-199" y="671"/>
      <point x="-200" y="671"/>
    </contour>
    <contour>
      <point x="-269" y="650" type="move" name="_top"/>
    </contour>
  </outline>
</glyph>
<glyph name="dollar.smcp" format="1">
  <advance width="509"/>
  <note>
    GF Latin Plus glyph
  </note>
  <outline>
    <contour>
      <point x="80" y="9" type="line"/>
      <point x="120" y="2"/>
      <point x="185" y="-4"/>
      <point x="232" y="-5" type="curve"/>
      <point x="223" y="-67" type="line"/>
      <point x="256" y="-67" type="line"/>
      <point x="266" y="-5" type="line"/>
      <point x="384" y="-5"/>
      <point x="444" y="26"/>
      <point x="459" y="127" type="curve" smooth="yes"/>
      <point x="468" y="183"/>
      <point x="468" y="193"/>
      <point x="468" y="204" type="curve" smooth="yes"/>
      <point x="468" y="265"/>
      <point x="433" y="307"/>
      <point x="345" y="307" type="curve" smooth="yes"/>
      <point x="267" y="307" type="line" smooth="yes"/>
      <point x="214" y="307"/>
      <point x="190" y="320"/>
      <point x="189" y="361" type="curve" smooth="yes"/>
      <point x="189" y="368"/>
      <point x="189" y="375"/>
      <point x="198" y="423" type="curve" smooth="yes"/>
      <point x="209" y="497"/>
      <point x="249" y="513"/>
      <point x="327" y="513" type="curve" smooth="yes"/>
      <point x="368" y="513"/>
      <point x="443" y="511"/>
      <point x="494" y="507" type="curve"/>
      <point x="500" y="547" type="line"/>
      <point x="466" y="554"/>
      <point x="402" y="561"/>
      <point x="356" y="562" type="curve"/>
      <point x="367" y="628" type="line"/>
      <point x="333" y="628" type="line"/>
      <point x="322" y="563" type="line"/>
      <point x="241" y="562"/>
      <point x="160" y="538"/>
      <point x="142" y="431" type="curve" smooth="yes"/>
      <point x="132" y="372"/>
      <point x="132" y="362"/>
      <point x="132" y="350" type="curve" smooth="yes"/>
      <point x="133" y="291"/>
      <point x="167" y="254"/>
      <point x="251" y="254" type="curve" smooth="yes"/>
      <point x="328" y="254" type="line" smooth="yes"/>
      <point x="386" y="254"/>
      <point x="410" y="236"/>
      <point x="411" y="194" type="curve" smooth="yes"/>
      <point x="411" y="187"/>
      <point x="409" y="178"/>
      <point x="403" y="130" type="curve" smooth="yes"/>
      <point x="392" y="57"/>
      <point x="339" y="43"/>
      <point x="266" y="43" type="curve" smooth="yes"/>
      <point x="201" y="43"/>
      <point x="128" y="45"/>
      <point x="86" y="48" type="curve"/>
    </contour>
  </outline>
</glyph>
<glyph name="dong.smcp" format="1">
  <advance width="516"/>
  <note>
    GF Latin Plus glyph
  </note>
  <outline>
    <contour>
      <point x="68" y="-25" type="line"/>
      <point x="453" y="-25" type="line"/>
      <point x="460" y="20" type="line"/>
      <point x="76" y="20" type="line"/>
    </contour>
    <contour>
      <point x="336" y="511" type="line"/>
      <point x="565" y="511" type="line"/>
      <point x="568" y="535" type="line"/>
      <point x="340" y="535" type="line"/>
    </contour>
    <contour>
      <point x="311" y="401" type="curve" smooth="yes"/>
      <point x="360" y="401"/>
      <point x="390" y="392"/>
      <point x="430" y="380" type="curve"/>
      <point x="399" y="175" type="line"/>
      <point x="361" y="158"/>
      <point x="316" y="138"/>
      <point x="262" y="138" type="curve" smooth="yes"/>
      <point x="196" y="138"/>
      <point x="167" y="166"/>
      <point x="167" y="225" type="curve" smooth="yes"/>
      <point x="166" y="311"/>
      <point x="211" y="401"/>
    </contour>
    <contour>
      <point x="109" y="213" type="curve" smooth="yes"/>
      <point x="110" y="132"/>
      <point x="153" y="95"/>
      <point x="239" y="95" type="curve" smooth="yes"/>
      <point x="292" y="95"/>
      <point x="366" y="121"/>
      <point x="393" y="141" type="curve"/>
      <point x="397" y="100" type="line"/>
      <point x="442" y="100" type="line"/>
      <point x="521" y="597" type="line"/>
      <point x="465" y="597" type="line"/>
      <point x="437" y="417" type="line"/>
      <point x="402" y="429"/>
      <point x="354" y="442"/>
      <point x="305" y="442" type="curve" smooth="yes"/>
      <point x="166" y="442"/>
      <point x="108" y="319"/>
    </contour>
  </outline>
</glyph>
<glyph name="e.superior" format="1">
  <advance width="411"/>
  <note>
    GF Latin Plus glyph
  </note>
  <outline>
    <contour>
      <point x="165" y="484" type="curve"/>
      <point x="180" y="582"/>
      <point x="216" y="638"/>
      <point x="315" y="638" type="curve" smooth="yes"/>
      <point x="380" y="638"/>
      <point x="414" y="618"/>
      <point x="414" y="567" type="curve" smooth="yes"/>
      <point x="414" y="496"/>
      <point x="348" y="477"/>
      <point x="253" y="477" type="curve" smooth="yes"/>
      <point x="220" y="477"/>
      <point x="188" y="480"/>
    </contour>
    <contour>
      <point x="109" y="411" type="curve" smooth="yes"/>
      <point x="110" y="322"/>
      <point x="158" y="276"/>
      <point x="273" y="276" type="curve" smooth="yes"/>
      <point x="323" y="276"/>
      <point x="374" y="280"/>
      <point x="404" y="285" type="curve"/>
      <point x="410" y="315" type="line"/>
      <point x="289" y="315" type="line" smooth="yes"/>
      <point x="195" y="315"/>
      <point x="159" y="344"/>
      <point x="158" y="410" type="curve" smooth="yes"/>
      <point x="158" y="425"/>
      <point x="159" y="442"/>
      <point x="162" y="458" type="curve"/>
      <point x="181" y="452"/>
      <point x="221" y="447"/>
      <point x="270" y="447" type="curve" smooth="yes"/>
      <point x="367" y="447"/>
      <point x="461" y="470"/>
      <point x="460" y="573" type="curve" smooth="yes"/>
      <point x="460" y="652"/>
      <point x="403" y="678"/>
      <point x="319" y="678" type="curve" smooth="yes"/>
      <point x="195" y="678"/>
      <point x="135" y="613"/>
      <point x="117" y="496" type="curve" smooth="yes"/>
      <point x="113" y="470"/>
      <point x="109" y="441"/>
    </contour>
    <contour>
      <point x="328" y="757" type="move" name="top"/>
    </contour>
    <contour>
      <point x="373" y="280" type="move" name="ogonek"/>
    </contour>
    <contour>
      <point x="235" y="169" type="move" name="bottom"/>
    </contour>
  </outline>
</glyph>
<glyph name="eight.smcp" format="1">
  <advance width="545"/>
  <note>
    GF Latin Plus glyph
  </note>
  <outline>
    <contour>
      <point x="217" y="436" type="curve" smooth="yes"/>
      <point x="227" y="492"/>
      <point x="253" y="518"/>
      <point x="313" y="518" type="curve" smooth="yes"/>
      <point x="405" y="518" type="line" smooth="yes"/>
      <point x="448" y="518"/>
      <point x="470" y="502"/>
      <point x="470" y="463" type="curve" smooth="yes"/>
      <point x="470" y="454"/>
      <point x="468" y="443"/>
      <point x="458" y="377" type="curve" smooth="yes"/>
      <point x="454" y="347"/>
      <point x="425" y="309"/>
      <point x="367" y="309" type="curve" smooth="yes"/>
      <point x="279" y="309" type="line" smooth="yes"/>
      <point x="228" y="309"/>
      <point x="207" y="334"/>
      <point x="207" y="366" type="curve" smooth="yes"/>
      <point x="207" y="374"/>
      <point x="210" y="401"/>
    </contour>
    <contour>
      <point x="167" y="189" type="curve" smooth="yes"/>
      <point x="177" y="246"/>
      <point x="240" y="263"/>
      <point x="272" y="263" type="curve" smooth="yes"/>
      <point x="360" y="263" type="line" smooth="yes"/>
      <point x="417" y="263"/>
      <point x="440" y="249"/>
      <point x="440" y="210" type="curve" smooth="yes"/>
      <point x="440" y="202"/>
      <point x="440" y="194"/>
      <point x="427" y="114" type="curve" smooth="yes"/>
      <point x="420" y="67"/>
      <point x="388" y="44"/>
      <point x="331" y="44" type="curve" smooth="yes"/>
      <point x="238" y="44" type="line" smooth="yes"/>
      <point x="188" y="44"/>
      <point x="154" y="60"/>
      <point x="154" y="97" type="curve" smooth="yes"/>
      <point x="154" y="108"/>
      <point x="160" y="151"/>
    </contour>
    <contour>
      <point x="101" y="126" type="line" smooth="yes"/>
      <point x="97" y="102"/>
      <point x="96" y="91"/>
      <point x="96" y="82" type="curve" smooth="yes"/>
      <point x="96" y="33"/>
      <point x="133" y="-1"/>
      <point x="222" y="-1" type="curve" smooth="yes"/>
      <point x="335" y="-1" type="line" smooth="yes"/>
      <point x="414" y="-1"/>
      <point x="470" y="30"/>
      <point x="482" y="108" type="curve" smooth="yes"/>
      <point x="492" y="173" type="line" smooth="yes"/>
      <point x="497" y="199"/>
      <point x="498" y="209"/>
      <point x="498" y="222" type="curve" smooth="yes"/>
      <point x="498" y="253"/>
      <point x="478" y="282"/>
      <point x="438" y="289" type="curve"/>
      <point x="481" y="300"/>
      <point x="508" y="346"/>
      <point x="514" y="383" type="curve" smooth="yes"/>
      <point x="523" y="436" type="line" smooth="yes"/>
      <point x="526" y="458"/>
      <point x="526" y="471"/>
      <point x="526" y="480" type="curve" smooth="yes"/>
      <point x="526" y="540"/>
      <point x="491" y="564"/>
      <point x="425" y="564" type="curve" smooth="yes"/>
      <point x="311" y="564" type="line" smooth="yes"/>
      <point x="238" y="564"/>
      <point x="177" y="534"/>
      <point x="163" y="448" type="curve" smooth="yes"/>
      <point x="153" y="383" type="line" smooth="yes"/>
      <point x="152" y="374"/>
      <point x="151" y="366"/>
      <point x="151" y="358" type="curve" smooth="yes"/>
      <point x="151" y="328"/>
      <point x="168" y="301"/>
      <point x="203" y="285" type="curve"/>
      <point x="169" y="278"/>
      <point x="119" y="247"/>
      <point x="110" y="189" type="curve" smooth="yes"/>
    </contour>
  </outline>
</glyph>
<glyph name="emdash.smcp" format="1">
  <advance width="627"/>
  <note>
    GF Latin Plus glyph
  </note>
  <outline>
    <contour>
      <point x="64" y="198" type="line"/>
      <point x="626" y="198" type="line"/>
      <point x="633" y="244" type="line"/>
      <point x="71" y="244" type="line"/>
    </contour>
  </outline>
</glyph>
<glyph name="endash.smcp" format="1">
  <advance width="447"/>
  <note>
    GF Latin Plus glyph
  </note>
  <outline>
    <contour>
      <point x="64" y="198" type="line"/>
      <point x="446" y="198" type="line"/>
      <point x="453" y="244" type="line"/>
      <point x="71" y="244" type="line"/>
    </contour>
  </outline>
</glyph>
<glyph name="euro.smcp" format="1">
  <advance width="516"/>
  <note>
    GF Latin Plus glyph
  </note>
  <outline>
    <contour>
      <point x="85" y="320" type="line"/>
      <point x="147" y="317" type="line"/>
      <point x="189" y="317" type="line"/>
      <point x="426" y="320" type="line"/>
      <point x="430" y="346" type="line"/>
      <point x="195" y="350" type="line"/>
      <point x="154" y="350" type="line"/>
      <point x="90" y="345" type="line"/>
    </contour>
    <contour>
      <point x="67" y="202" type="line"/>
      <point x="131" y="197" type="line"/>
      <point x="170" y="197" type="line"/>
      <point x="407" y="201" type="line"/>
      <point x="411" y="227" type="line"/>
      <point x="175" y="230" type="line"/>
      <point x="133" y="230" type="line"/>
      <point x="71" y="228" type="line"/>
    </contour>
    <component base="C.smcp" xOffset="25"/>
  </outline>
</glyph>
